<svg xmlns="http://www.w3.org/2000/svg" viewBox="0 0 668.97 440.49"><defs><style>.cls-1{fill:#f5f5f5;}.cls-2{fill:#e0e0e0;}.cls-3{fill:#ebebeb;}.cls-4{fill:#fff;}.cls-5{fill:#263238;}.cls-6{fill:#ff725e;}.cls-7{fill:#455a64;}.cls-8{fill:#fafafa;}.cls-9{fill:#ffbe9d;}.cls-10{fill:#eb996e;}.cls-11{opacity:0.6;}.cls-12{opacity:0.3;}</style></defs><g id="Camada_2" data-name="Camada 2"><g id="Background_Complete" data-name="Background Complete"><rect class="cls-1" x="538.63" y="37.92" width="110.75" height="102.75" transform="matrix(0.99, -0.13, 0.13, 0.99, -6.52, 75.49)"/><path class="cls-2" d="M602,59.84a7.65,7.65,0,1,0,8.87,6.58A7.81,7.81,0,0,0,602,59.84Z"/><path class="cls-2" d="M635,40.45,542.14,52.16c.09-.13-.88,1.08-.47.58v.16l0,.18,0,.37.1.72.18,1.45.37,2.9c.24,1.93.49,3.84.73,5.75.48,3.82,1,7.61,1.44,11.35,1,7.49,1.89,14.83,2.8,22,1.83,14.27,3.56,27.76,5.15,40.18l.06.44.45-.06,67.39-8.78,18.82-2.5,4.92-.68,1.25-.18a2.24,2.24,0,0,0,.4-.08,2.64,2.64,0,0,0-.46,0l-1.3.14-5,.59L620.08,129l-20.74,2.56,46.43-5.89c0,.16.05.27.05.28a1.28,1.28,0,0,0,0-.37c0-.3-.07-.67-.12-1.15-.12-1.07-.29-2.57-.52-4.51-.48-4-1.18-9.84-2.06-17.23-1.85-15-4.47-36.27-7.62-61.85l-.05-.43ZM618.65,91.77l-12.84,19.72L576.69,81.12l-23.38,55.46c-1.52-12.12-3.17-25.25-4.92-39.12-.9-7.14-1.82-14.48-2.77-22q-.71-5.61-1.44-11.35-.36-2.87-.73-5.75l-.36-2.9L542.9,54l-.09-.73,0-.22,91.86-11.72c3.3,25.25,6.05,46.29,8,61.08,1,7.42,1.78,13.26,2.32,17.3.27,2,.48,3.5.63,4.58.07.49.13.88.18,1.18,0,0,0,.07,0,.1Z"/><rect class="cls-1" x="5.38" y="315.69" width="78.78" height="73.08" transform="translate(57.4 -2.61) rotate(9.28)"/><path class="cls-2" d="M56.16,333.75A5.44,5.44,0,1,0,60.88,340,5.56,5.56,0,0,0,56.16,333.75Z"/><path class="cls-2" d="M82.58,327.2,16.91,316.42c.08-.07-.82.56-.44.3v.11l0,.13,0,.26-.09.51-.16,1-.34,2.05-.66,4.07c-.45,2.71-.88,5.38-1.31,8q-1.3,7.95-2.54,15.55c-1.63,10.1-3.18,19.65-4.61,28.44l0,.31.32.05,47.73,7.64L68,387l3.5.53.88.13.29,0-.32-.07-.91-.17-3.55-.62-13.39-2.27-14.66-2.44,32.85,5.37c0,.12,0,.19,0,.2s0-.08.07-.26.08-.47.15-.8c.13-.76.31-1.82.55-3.19.49-2.84,1.19-6.95,2.08-12.16,1.77-10.58,4.28-25.64,7.31-43.72l.05-.3ZM61.07,358.9,48.32,369.75l-13.71-26.6L7.45,376.25c1.41-8.58,2.94-17.86,4.56-27.68L14.56,333c.43-2.65.87-5.32,1.31-8,.23-1.35.45-2.7.67-4.07l.34-2.05.16-1,.09-.52,0-.15,65,10.57c-2.85,17.89-5.23,32.79-6.9,43.27-.82,5.26-1.47,9.4-1.92,12.27-.21,1.39-.38,2.48-.49,3.25l-.12.84a.2.2,0,0,0,0,.07Z"/><path class="cls-3" d="M6.73,67.36s-6.63,2.69,1,16.77,12.87,21,12.87,21S22,108.41,19.23,109s-8.94-.24-10.09,3.21,1.46,6.84,6.74,9.63,16.64,9.34,17.67,9.93,2,2.1.21,2.81-15.59,2.5-14.35,9S36.66,155.4,38.4,156s2.17,1.34,2.05,2.29-4.8,1.12-8.69,1.79-8.3,2.13-7.27,5.81S35.12,177.13,58,178.78l10.65.06,5.55-9.13c10.7-20.27,9.37-32.4,6.79-35.23s-6.14.14-8.77,3.09S67,144.41,66.08,144s-1.25-1.15-.85-2.95,4.31-18.22-.54-22.71S51,124.6,49.48,125.78s-2.3-.5-2.27-1.66.49-14.29.92-20.25-1-10-4.61-10.82-6.1,4.82-8.06,6.86-4-.85-4-.85-3.12-8.1-11-22S6.6,67.43,6.6,67.43"/><path class="cls-2" d="M69.24,181.33c-5.76-10.25-15.7-28.66-24.31-44.41s-16.42-30-22.13-40.29L16,84.46l-1.84-3.31c-.2-.37-.35-.66-.47-.87s-.15-.3-.15-.3.07.1.18.29.29.48.5.85l1.9,3.28c1.64,2.85,4,7,6.86,12.12,5.77,10.26,13.61,24.49,22.22,40.24s18.52,34.17,24.23,44.46"/><path class="cls-2" d="M17.71,113.7a3.88,3.88,0,0,1,.75.19c.47.14,1.15.36,2,.64,1.68.57,4,1.41,6.49,2.38l6.43,2.52,2,.75a3.79,3.79,0,0,1,.71.3,3.21,3.21,0,0,1-.75-.18c-.48-.14-1.16-.36-2-.65-1.67-.59-4-1.46-6.47-2.43l-6.45-2.47L18.42,114A3.73,3.73,0,0,1,17.71,113.7Z"/><path class="cls-2" d="M36.74,119.78c-.09,0,1.43-4.83,3.4-10.73s3.63-10.66,3.72-10.63-1.44,4.83-3.4,10.73S36.82,119.81,36.74,119.78Z"/><path class="cls-2" d="M48.87,144.57a3.22,3.22,0,0,1,.42-.67l1.21-1.76c1-1.48,2.43-3.54,3.9-5.86s2.73-4.47,3.63-6c.42-.74.78-1.36,1.07-1.85a3.66,3.66,0,0,1,.42-.67,3.6,3.6,0,0,1-.31.73c-.22.45-.55,1.1-1,1.9-.84,1.59-2.08,3.77-3.55,6.1s-2.92,4.37-4,5.82c-.54.72-1,1.3-1.3,1.7A4.06,4.06,0,0,1,48.87,144.57Z"/><path class="cls-2" d="M30.45,142.86a2.43,2.43,0,0,1,.73,0l2,.11c1.67.1,4,.26,6.5.47s4.83.4,6.49.56l2,.21a2.56,2.56,0,0,1,.72.13,3.42,3.42,0,0,1-.73,0l-2-.1c-1.66-.11-4-.27-6.5-.47s-4.83-.41-6.49-.57l-2-.21A3.82,3.82,0,0,1,30.45,142.86Z"/><path class="cls-2" d="M38.38,166.1a5.64,5.64,0,0,1,.93,0l2.53.13c2.14.12,5.08.3,8.33.53s6.2.46,8.33.64l2.52.23a5,5,0,0,1,.92.13,5.53,5.53,0,0,1-.93,0l-2.53-.13c-2.13-.12-5.08-.31-8.33-.54s-6.2-.45-8.32-.63l-2.52-.23A5.23,5.23,0,0,1,38.38,166.1Z"/><path class="cls-2" d="M61.39,167.56a5.66,5.66,0,0,1,.5-.86l1.46-2.28c1.23-1.93,2.92-4.6,4.71-7.6s3.33-5.76,4.44-7.76l1.31-2.37a5.65,5.65,0,0,1,.51-.85,5.58,5.58,0,0,1-.4.91c-.28.58-.69,1.41-1.22,2.42-1,2-2.57,4.81-4.36,7.82s-3.51,5.66-4.79,7.56c-.64.94-1.17,1.7-1.55,2.22A6.56,6.56,0,0,1,61.39,167.56Z"/><rect class="cls-2" x="497.42" y="161.91" width="171.55" height="106.32" rx="7.87"/><circle class="cls-3" cx="583.2" cy="216.52" r="13.07" transform="translate(17.71 475.8) rotate(-45)"/><path class="cls-4" d="M580.05,220.35v-7.72a.49.49,0,0,1,.73-.42l6.89,3.88a.49.49,0,0,1,0,.86l-6.89,3.82A.49.49,0,0,1,580.05,220.35Z"/><path class="cls-4" d="M507.23,256v.28h-1.29v-.22l.69-.66c.17-.16.2-.26.2-.36s-.11-.25-.32-.25a.47.47,0,0,0-.41.18l-.23-.18a.82.82,0,0,1,.67-.29c.38,0,.62.2.62.51a.71.71,0,0,1-.29.55l-.47.44Z"/><path class="cls-4" d="M507.4,255.16a.2.2,0,0,1,.21-.21.2.2,0,0,1,.2.21.19.19,0,0,1-.2.2A.2.2,0,0,1,507.4,255.16Zm0,1a.2.2,0,0,1,.21-.21.2.2,0,0,1,.2.21.2.2,0,0,1-.2.21A.21.21,0,0,1,507.4,256.11Z"/><path class="cls-4" d="M508.63,254.55v1.75h-.33v-1.48h-.37v-.27Z"/><path class="cls-4" d="M510.54,255.9h-.31v.4h-.32v-.4h-1v-.22l.86-1.13h.35l-.81,1.08h.57v-.36h.31v.36h.31Z"/><rect class="cls-4" x="513.4" y="255.15" width="132.86" height="0.7"/><rect class="cls-3" x="513.3" y="254.42" width="41.52" height="1.88"/><path class="cls-3" d="M556.16,255.51a2,2,0,1,1-2-2A2,2,0,0,1,556.16,255.51Z"/><path class="cls-4" d="M649.61,255.49a.59.59,0,0,1-.64.56c-.48,0-.76-.3-.76-.87a.83.83,0,0,1,.86-.93,1,1,0,0,1,.46.11l-.12.25a.64.64,0,0,0-.34-.09c-.33,0-.53.21-.53.61h0A.59.59,0,0,1,649,255,.55.55,0,0,1,649.61,255.49Zm-.32,0a.31.31,0,0,0-.35-.3.32.32,0,0,0-.35.3c0,.17.13.3.36.3A.31.31,0,0,0,649.29,255.5Z"/><path class="cls-4" d="M649.76,254.88a.2.2,0,0,1,.21-.2.19.19,0,0,1,.2.2.2.2,0,0,1-.2.21A.2.2,0,0,1,649.76,254.88Zm0,1a.2.2,0,0,1,.21-.21.2.2,0,0,1,.2.21.2.2,0,0,1-.2.21A.21.21,0,0,1,649.76,255.84Z"/><path class="cls-4" d="M650.38,255.15c0-.57.32-.9.74-.9s.73.33.73.9-.32.9-.73.9S650.38,255.73,650.38,255.15Zm1.14,0c0-.42-.16-.62-.4-.62s-.41.2-.41.62.17.62.41.62S651.52,255.58,651.52,255.15Z"/><path class="cls-4" d="M652.07,255.15c0-.57.31-.9.73-.9s.73.33.73.9-.32.9-.73.9S652.07,255.73,652.07,255.15Zm1.13,0c0-.42-.16-.62-.4-.62s-.41.2-.41.62.17.62.41.62S653.2,255.58,653.2,255.15Z"/><polygon class="cls-4" points="656.41 255.04 655.7 255.04 655.7 253.25 657.5 253.25 657.5 253.95 656.41 253.95 656.41 255.04"/><polygon class="cls-4" points="657.5 257.37 655.7 257.37 655.7 255.58 656.4 255.58 656.4 256.67 657.5 256.67 657.5 257.37"/><polygon class="cls-4" points="660.33 257.37 658.53 257.37 658.53 256.67 659.62 256.67 659.62 255.58 660.33 255.58 660.33 257.37"/><polygon class="cls-4" points="660.33 255.04 659.63 255.04 659.63 253.95 658.53 253.95 658.53 253.25 660.33 253.25 660.33 255.04"/><path class="cls-4" d="M637.67,172.25a30.25,30.25,0,0,1,3.61-.2h.2v.2c0,1.37,0,2.92,0,4.59v.59l-.42-.42c-.15-.15-.32-.31-.48-.48l-1.22-1.23h.32c-.67.6-1.32,1.16-1.92,1.69l-.36.32v-.48c0-1.42.06-2.6.1-3.39a6.38,6.38,0,0,1,.11-1.2,10.83,10.83,0,0,1,.11,1.33c0,.82.08,1.93.1,3.26l-.35-.16,1.88-1.73.17-.15.16.16,1.24,1.23c.16.16.32.33.48.48l-.42.17c0-1.67,0-3.22.05-4.59l.19.2A35.08,35.08,0,0,1,637.67,172.25Z"/><path class="cls-4" d="M651,172.82a11.78,11.78,0,0,1-.88,1.12c-.59.74-1.48,1.83-2.56,3.06l-.4.45v-.61c0-.72,0-1.48,0-2.27v-.23l.08.18-1.6-1.56-.42-.41h.58c1.58,0,3,.11,3.86.16s1.41.08,1.36.1-.64,0-1.58.09-2.19.11-3.65.11l.17-.39,1.61,1.54.08.07v.33c0,.79,0,1.55,0,2.27l-.41-.15c1-1.11,1.93-2,2.62-2.71S650.91,172.85,651,172.82Z"/><path class="cls-4" d="M651,172.82c0,.13-.72.57-1.71,1s-1.85.66-1.9.53.71-.56,1.71-1A4.26,4.26,0,0,1,651,172.82Z"/><path class="cls-4" d="M657.44,172.25a1.12,1.12,0,0,1,.64,0,2.58,2.58,0,0,1,1.53.92,2.71,2.71,0,0,1,.44,2.6,2.77,2.77,0,0,1-5.23,0,2.71,2.71,0,0,1,.45-2.6,2.53,2.53,0,0,1,1.52-.92,1.15,1.15,0,0,1,.65,0s-.23.05-.6.17a2.58,2.58,0,0,0-1.3,1,2.38,2.38,0,0,0-.29,2.23,2.34,2.34,0,0,0,4.38,0,2.38,2.38,0,0,0-.3-2.23,2.52,2.52,0,0,0-1.29-1C657.66,172.3,657.44,172.29,657.44,172.25Z"/><path class="cls-4" d="M658.31,175.9c-.1.09-.66-.32-1.26-.92l-.08-.07v-.1h0c0-.86.11-1.56.25-1.56s.24.7.24,1.56h0l-.07-.17C658,175.24,658.4,175.81,658.31,175.9Z"/><path class="cls-4" d="M595.3,175.73c0,.14-17.63.25-39.38.25s-39.37-.11-39.37-.25,17.62-.24,39.37-.24S595.3,175.6,595.3,175.73Z"/><circle class="cls-4" cx="509.72" cy="175.73" r="3.11"/></g><g id="Web"><rect class="cls-4" x="64.96" y="0.26" width="505.78" height="364.08"/><rect class="cls-2" x="64.34" y="0.26" width="505.78" height="26.91"/><path class="cls-5" d="M82.24,14.19a3.31,3.31,0,1,1-6.6,0,3.31,3.31,0,1,1,6.6,0Z"/><path class="cls-5" d="M94.52,14.19a3.31,3.31,0,1,1-6.6,0,3.31,3.31,0,1,1,6.6,0Z"/><path class="cls-5" d="M106.8,14.19a3.31,3.31,0,1,1-6.6,0,3.31,3.31,0,1,1,6.6,0Z"/><path class="cls-5" d="M282.41,56.14c0,.19-11.05.35-24.67.35s-24.68-.16-24.68-.35,11.05-.35,24.68-.35S282.41,56,282.41,56.14Z"/><path class="cls-5" d="M348,56.14c0,.19-11.05.35-24.67.35s-24.68-.16-24.68-.35,11.05-.35,24.68-.35S348,56,348,56.14Z"/><path class="cls-5" d="M413.67,56.14c0,.19-11.05.35-24.67.35s-24.67-.16-24.67-.35,11-.35,24.67-.35S413.67,56,413.67,56.14Z"/><path class="cls-5" d="M479.88,56.14c0,.19-11.05.35-24.67.35s-24.67-.16-24.67-.35,11-.35,24.67-.35S479.88,56,479.88,56.14Z"/><path class="cls-5" d="M537.4,64.45s.41,0,1.17-.21a5.47,5.47,0,0,0,2.84-1.84,5.68,5.68,0,0,0,1.13-2.25,12.08,12.08,0,0,0,.17-3.08c-.13-2.19.49-5-1.38-7.12a5.18,5.18,0,0,0-3.51-1.83c-1.42,0-3,0-4.53,0l-10,0-23,0a5.18,5.18,0,0,0-4.61,3,6,6,0,0,0-.57,2.87v3.09a11.53,11.53,0,0,0,.18,2.92,5.58,5.58,0,0,0,1.29,2.41,5.23,5.23,0,0,0,2.19,1.42,7.81,7.81,0,0,0,2.57.25l18.8.07,12.67.11,3.44.07.9,0a1,1,0,0,1,.31,0l-.31,0-.9,0-3.44.06-12.67.11-18.8.08a8.46,8.46,0,0,1-2.75-.27,6,6,0,0,1-2.46-1.57,6.32,6.32,0,0,1-1.45-2.7,6.4,6.4,0,0,1-.21-1.58V57.13c0-1,0-2.05,0-3.09a6.86,6.86,0,0,1,.64-3.19,5.85,5.85,0,0,1,5.19-3.37l23,0,10,0c1.58,0,3.07,0,4.57.05a5.64,5.64,0,0,1,3.82,2,6.3,6.3,0,0,1,1.42,3.83c0,1.28,0,2.48,0,3.61a12.53,12.53,0,0,1-.24,3.17,5.88,5.88,0,0,1-1.24,2.33,5.39,5.39,0,0,1-3,1.81A3.9,3.9,0,0,1,537.4,64.45Z"/><rect class="cls-2" x="103.32" y="151.36" width="153.18" height="31.41" rx="8.61"/><path class="cls-5" d="M64.34.26,570.12,0h.26V.26c0,109.85,0,233.6,0,364v.32h-.29l-505.78-.05h-.23v-.23c.14-221,.23-362.19.23-364.08,0,1.89.09,143.11.23,364.08l-.23-.23,505.78-.05-.28.28v0c0-130.44,0-254.19,0-364l.25.25Z"/><path class="cls-6" d="M527,216.6s0-.64,0-1.85,0-3,0-5.39c0-4.73,0-11.68-.05-20.62,0-17.84-.07-43.59-.11-75.22l.2.2-181.28.06h0l.26-.26c0,36.47,0,71.33,0,103.08l-.24-.24,130.4.11,37.45.07,10,0h2.58l.88,0h-.86l-2.54,0-9.93,0-37.4.06-130.56.12h-.24v-.24c0-31.75,0-66.61,0-103.08v-.26h.27l181.28.06h.2v.2c-.05,31.68-.08,57.47-.11,75.35,0,8.91,0,15.85-.05,20.57,0,2.34,0,4.13,0,5.35S527,216.6,527,216.6Z"/><path class="cls-6" d="M523.06,113.39s-.14.11-.43.3l-1.3.82-5,3.14c-4.37,2.72-10.72,6.61-18.59,11.38-15.74,9.54-37.6,22.52-62,36.47s-46.65,26.22-62.85,35c-8.09,4.37-14.66,7.88-19.21,10.28l-5.25,2.75-1.37.7c-.31.16-.48.23-.48.23l.45-.27,1.35-.75,5.2-2.84,19.14-10.43c16.14-8.83,38.39-21.15,62.76-35.09s46.27-26.88,62-36.34l18.67-11.23,5.08-3.06,1.33-.78Z"/><path class="cls-6" d="M524.9,216.6c-.08.12-39.85-22.65-88.83-50.87s-88.65-51.19-88.58-51.32,39.84,22.65,88.84,50.87S525,216.47,524.9,216.6Z"/><path class="cls-5" d="M523.3,267.85c0,.2-39.62.37-88.48.37s-88.48-.17-88.48-.37,39.61-.36,88.48-.36S523.3,267.65,523.3,267.85Z"/><path class="cls-5" d="M523.3,278.58c0,.2-39.62.36-88.48.36s-88.48-.16-88.48-.36,39.61-.36,88.48-.36S523.3,278.38,523.3,278.58Z"/><path class="cls-5" d="M425.27,305.28c0,.19-17.37.34-38.79.34s-38.79-.15-38.79-.34,17.37-.33,38.79-.33S425.27,305.1,425.27,305.28Z"/><path class="cls-5" d="M500.87,292.35c0,.19-34.29.34-76.59.34s-76.59-.15-76.59-.34S382,292,424.28,292,500.87,292.17,500.87,292.35Z"/><path class="cls-5" d="M546.6,325.12s0-.49,0-1.44,0-2.37,0-4.22c0-3.71,0-9.17,0-16.23,0-14.11-.06-34.59-.1-60.11l.18.18-220.24.08h0l.26-.26c0,28.62,0,56.31,0,82l-.25-.25,157.8.12,45.89.07,12.29,0,3.18,0h1.09l-1.06,0h-3.15l-12.24,0-45.83.07-158,.12h-.26v-.25c0-25.69,0-53.38,0-82v-.26h.28l220.24.08h.18v.18c0,25.56-.08,46.08-.1,60.21,0,7.05,0,12.5,0,16.2,0,1.83,0,3.23,0,4.18S546.6,325.12,546.6,325.12Z"/><ellipse class="cls-6" cx="111.35" cy="57.03" rx="11.21" ry="10.71"/><rect class="cls-7" x="28.25" y="186.75" width="79.21" height="55.11"/><path class="cls-5" d="M107.46,186.75c.08.12-17.56,12.66-39.39,28s-39.61,27.7-39.69,27.58,17.55-12.65,39.39-28S107.38,186.63,107.46,186.75Z"/><path class="cls-5" d="M107.46,241.86s-.08,0-.22-.12l-.6-.4-2.3-1.57-8.4-5.87L68.35,214.4,40.84,194.77c-3.47-2.52-6.3-4.56-8.3-6l-2.24-1.65-.57-.44a.88.88,0,0,1-.19-.17l.22.12.6.4,2.3,1.57,8.4,5.87L68.65,214l27.5,19.63,8.31,6,2.24,1.65.57.44A.88.88,0,0,1,107.46,241.86Z"/></g><g id="HTML"><rect class="cls-8" x="93.91" y="308.66" width="210.87" height="119.83"/><path class="cls-5" d="M304.78,428.49s0-.73,0-2.15,0-3.51,0-6.26c0-5.49,0-13.58-.05-24,0-20.75-.06-50.68-.11-87.46l.2.2-210.86.06h0l.26-.26c0,42.39,0,82.92,0,119.83l-.24-.24,151.7.12,43.55.06,11.6,0,3,0h1l-1,0h-3l-11.56,0-43.49.07-151.86.12h-.24v-.25c0-36.91,0-77.44,0-119.83v-.26h.27l210.86.06h.2v.2c0,36.83-.08,66.81-.1,87.59,0,10.36,0,18.43-.05,23.91,0,2.73,0,4.81,0,6.22S304.78,428.49,304.78,428.49Z"/><path class="cls-3" d="M179.47,328.21c0,.15-14.33.26-32,.26s-32-.11-32-.26,14.33-.26,32-.26S179.47,328.07,179.47,328.21Z"/><path class="cls-3" d="M213,339.7c0,.14-14.32.26-32,.26s-32-.12-32-.26,14.33-.26,32-.26S213,339.55,213,339.7Z"/><path class="cls-3" d="M282.67,328.21c0,.15-14.33.26-32,.26s-32-.11-32-.26,14.32-.26,32-.26S282.67,328.07,282.67,328.21Z"/><path class="cls-3" d="M206.66,328.2a70.46,70.46,0,0,1-8.64.26,70.33,70.33,0,0,1-8.64-.26,72.8,72.8,0,0,1,8.64-.26A72.94,72.94,0,0,1,206.66,328.2Z"/><path class="cls-3" d="M134.62,339.7A72.94,72.94,0,0,1,126,340a72.94,72.94,0,0,1-8.64-.26,70.46,70.46,0,0,1,8.64-.26A70.46,70.46,0,0,1,134.62,339.7Z"/><path class="cls-3" d="M237.87,339.21a65.17,65.17,0,0,1-8.31.26,65.4,65.4,0,0,1-8.32-.26,67.7,67.7,0,0,1,8.32-.26A67.46,67.46,0,0,1,237.87,339.21Z"/><path class="cls-3" d="M179.47,354.51c0,.15-14.33.26-32,.26s-32-.11-32-.26,14.33-.26,32-.26S179.47,354.37,179.47,354.51Z"/><path class="cls-3" d="M213,366c0,.14-14.32.26-32,.26s-32-.12-32-.26,14.33-.26,32-.26S213,365.85,213,366Z"/><path class="cls-3" d="M282.67,354.51c0,.15-14.33.26-32,.26s-32-.11-32-.26,14.32-.26,32-.26S282.67,354.37,282.67,354.51Z"/><path class="cls-3" d="M206.66,354.5a70.46,70.46,0,0,1-8.64.26,70.33,70.33,0,0,1-8.64-.26,72.8,72.8,0,0,1,8.64-.26A72.94,72.94,0,0,1,206.66,354.5Z"/><path class="cls-3" d="M134.62,366a72.94,72.94,0,0,1-8.64.26,72.94,72.94,0,0,1-8.64-.26,70.46,70.46,0,0,1,8.64-.26A70.46,70.46,0,0,1,134.62,366Z"/><path class="cls-3" d="M237.87,365.51a67.46,67.46,0,0,1-8.31.26,67.7,67.7,0,0,1-8.32-.26,67.7,67.7,0,0,1,8.32-.26A67.46,67.46,0,0,1,237.87,365.51Z"/><path class="cls-3" d="M180.06,400.11c0,.14-14.33.26-32,.26s-32-.12-32-.26,14.32-.26,32-.26S180.06,400,180.06,400.11Z"/><path class="cls-3" d="M213.56,411.59c0,.15-14.33.26-32,.26s-32-.11-32-.26,14.32-.26,32-.26S213.56,411.45,213.56,411.59Z"/><path class="cls-3" d="M283.27,400.11c0,.14-14.33.26-32,.26s-32-.12-32-.26,14.33-.26,32-.26S283.27,400,283.27,400.11Z"/><path class="cls-3" d="M207.25,400.1a72.94,72.94,0,0,1-8.64.26,72.94,72.94,0,0,1-8.64-.26,72.94,72.94,0,0,1,8.64-.26A72.94,72.94,0,0,1,207.25,400.1Z"/><path class="cls-3" d="M135.21,411.59a70.23,70.23,0,0,1-8.63.26,70.57,70.57,0,0,1-8.65-.26,73,73,0,0,1,8.65-.26A72.69,72.69,0,0,1,135.21,411.59Z"/><path class="cls-3" d="M238.47,411.11a67.7,67.7,0,0,1-8.32.26,67.46,67.46,0,0,1-8.31-.26,65.17,65.17,0,0,1,8.31-.26A65.4,65.4,0,0,1,238.47,411.11Z"/><path class="cls-3" d="M179.47,379.24c0,.14-14.33.26-32,.26s-32-.12-32-.26,14.33-.26,32-.26S179.47,379.1,179.47,379.24Z"/><path class="cls-3" d="M213,390.72c0,.15-14.32.26-32,.26s-32-.11-32-.26,14.33-.26,32-.26S213,390.58,213,390.72Z"/><path class="cls-3" d="M282.67,379.24c0,.14-14.33.26-32,.26s-32-.12-32-.26,14.32-.26,32-.26S282.67,379.1,282.67,379.24Z"/><path class="cls-3" d="M206.66,379.23a72.94,72.94,0,0,1-8.64.26,72.8,72.8,0,0,1-8.64-.26A72.8,72.8,0,0,1,198,379,72.94,72.94,0,0,1,206.66,379.23Z"/><path class="cls-3" d="M134.62,390.72A70.46,70.46,0,0,1,126,391a70.46,70.46,0,0,1-8.64-.26,72.94,72.94,0,0,1,8.64-.26A72.94,72.94,0,0,1,134.62,390.72Z"/><path class="cls-3" d="M237.87,390.24a67.46,67.46,0,0,1-8.31.26,67.7,67.7,0,0,1-8.32-.26,67.7,67.7,0,0,1,8.32-.26A67.46,67.46,0,0,1,237.87,390.24Z"/><path class="cls-5" d="M167.87,355.42v21.85h-4.06v-9.36h-11.3v9.36h-4.06V355.42h4.06v9h11.3v-9Z"/><path class="cls-5" d="M178.17,358.85h-7.24v-3.43h18.54v3.43h-7.24v18.42h-4.06Z"/><path class="cls-5" d="M212.6,377.27l0-14.48-7.18,12h-1.81L196.4,363v14.3h-3.87V355.42h3.34l8.67,14.48,8.53-14.48h3.34l0,21.85Z"/><path class="cls-5" d="M222.33,355.42h4.06v18.42h11.43v3.43H222.33Z"/></g><g id="Speech_Bubble" data-name="Speech Bubble"><path class="cls-4" d="M161.83,111.38l-11.19-5.71a29.34,29.34,0,1,0-1.56,10.38v0Z"/><path class="cls-5" d="M161.83,111.38l-12.7,4.81a.14.14,0,0,1-.17-.08s0,0,0,0v0l.26,0a29.25,29.25,0,0,1-8.45,12.7,27.19,27.19,0,0,1-3.74,2.76c-.69.4-1.38.83-2.1,1.23l-2.27,1.05a29.59,29.59,0,0,1-21.77.29,29.18,29.18,0,0,1-10.37-6.71,29.88,29.88,0,0,1-6.91-11.07,29,29,0,0,1-1.4-13.53,29.47,29.47,0,0,1,5-13A29.86,29.86,0,0,1,107,80.92a28.93,28.93,0,0,1,12-3.67,29.8,29.8,0,0,1,21,6.63,31.86,31.86,0,0,1,6.31,7.25,29.15,29.15,0,0,1,4.34,14.54l-.07-.11,11.14,5.82-11.25-5.59a.14.14,0,0,1-.07-.11,29.1,29.1,0,0,0-4.4-14.36,31.6,31.6,0,0,0-6.26-7.13,29.38,29.38,0,0,0-20.75-6.46,28.45,28.45,0,0,0-11.82,3.63,29.34,29.34,0,0,0-9.67,8.79,28.85,28.85,0,0,0-4.89,12.73,28.32,28.32,0,0,0,1.37,13.28,29.37,29.37,0,0,0,6.77,10.89,28.82,28.82,0,0,0,10.2,6.63,29.25,29.25,0,0,0,21.43-.23l2.25-1c.71-.39,1.39-.81,2.07-1.2a25.82,25.82,0,0,0,3.71-2.71A29.09,29.09,0,0,0,149,116a.13.13,0,0,1,.17-.08.12.12,0,0,1,.08.13v0l-.17-.14Z"/><path class="cls-5" d="M128,113a2.87,2.87,0,0,1,.45-.51c.35-.36.79-.79,1.31-1.31,1.11-1.1,2.66-2.6,4.38-4.25l0,0v.22c-1.74-1.61-3.3-3.08-4.42-4.16l-1.32-1.29c-.3-.3-.47-.48-.45-.5a4.13,4.13,0,0,1,.53.42l1.38,1.21c1.16,1,2.74,2.49,4.48,4.1l.12.11-.12.11,0,0c-1.72,1.65-3.3,3.12-4.45,4.18l-1.37,1.25A3.22,3.22,0,0,1,128,113Z"/><path class="cls-5" d="M128,113.15a.1.1,0,0,1-.08,0h0c-.1-.11-.07-.15.45-.69l1.31-1.31c1.13-1.12,2.62-2.56,4.21-4.08-1.57-1.47-3.06-2.87-4.2-4l-1.31-1.29c-.5-.5-.56-.57-.46-.67s.16-.06.7.4l1.38,1.22c1.18,1,2.7,2.44,4.3,3.92h0v0l.17.16.21.2-.25.24-.13.12v0l0,0c-1.63,1.56-3.15,3-4.3,4l-1.38,1.25C128.26,113,128.12,113.15,128,113.15Zm6.08-6c-1.23,1.16-2.39,2.29-3.37,3.25l3.41-3.22h0Zm.24-.19v0l0,0Zm-3.59-3.3c1,.94,2.14,2,3.35,3.14l0,0C132.93,105.69,131.77,104.62,130.76,103.71Z"/><path class="cls-5" d="M114.62,101.18a3,3,0,0,1-.45.51L112.86,103c-1.11,1.1-2.66,2.6-4.39,4.24l0,0v-.22c1.74,1.61,3.3,3.09,4.42,4.16l1.31,1.29a3.65,3.65,0,0,1,.46.5s-.2-.13-.53-.41l-1.38-1.22c-1.16-1-2.74-2.48-4.48-4.1l-.12-.11.12-.11,0,0c1.73-1.64,3.3-3.12,4.45-4.18.55-.49,1-.91,1.38-1.24A3.21,3.21,0,0,1,114.62,101.18Z"/><path class="cls-5" d="M114.63,113.15c-.09,0-.23-.11-.63-.45l-1.38-1.22c-1.15-1-2.67-2.42-4.29-3.92l0,0v0l-.17-.16-.21-.2.25-.24.13-.12v0l0,0c1.63-1.55,3.15-3,4.3-4l1.37-1.24c.55-.48.61-.53.71-.42s0,.17-.45.68L113,103.09c-1.12,1.11-2.61,2.56-4.22,4.09,1.6,1.48,3.08,2.88,4.21,4l1.31,1.29c.51.51.56.57.46.68A.1.1,0,0,1,114.63,113.15Zm-6.12-5.76c1.22,1.13,2.39,2.2,3.38,3.1l-3.34-3.14Zm-.22-.21,0,0v0Zm.22-.21h0l0,0c1.23-1.18,2.39-2.3,3.37-3.26Z"/><path class="cls-5" d="M118.06,115.81c-.08,0,1.33-4,3.15-8.84s3.35-8.77,3.43-8.74-1.33,4-3.15,8.84S118.14,115.84,118.06,115.81Z"/><path class="cls-5" d="M118.07,115.94h0c-.15-.06-.17-.07.79-2.77.59-1.67,1.4-3.89,2.28-6.24s1.72-4.55,2.37-6.2c1.05-2.67,1.07-2.66,1.22-2.61s.18.07-.79,2.77c-.59,1.68-1.4,3.89-2.28,6.24s-1.72,4.55-2.37,6.2C118.33,115.65,118.19,115.94,118.07,115.94ZM123.22,102c-.52,1.36-1.17,3-1.89,5s-1.35,3.64-1.85,5c.53-1.36,1.17-3,1.9-5S122.73,103.39,123.22,102Z"/></g><g id="Floor"><path class="cls-5" d="M628.65,428.49c0,.15-137,.26-306,.26s-306-.11-306-.26,137-.26,306-.26S628.65,428.35,628.65,428.49Z"/></g><g id="Character"><path class="cls-5" d="M195.8,82.59a12.22,12.22,0,0,1,10.76-10.24,16.08,16.08,0,0,0,4.17-.47,22.81,22.81,0,0,0,3-1.71,8.18,8.18,0,0,1,10,2.08c2.14,2.74,3-1.07,8.07,1.94,4.18,2.48,2,6,2,6a9.37,9.37,0,0,1,9.3,7.41c.49,2.7-.06,6,2.05,7.75,1,.85,2.44,1.09,3.49,1.9,2,1.51,2,4.43,1.59,6.86s-1.21,5-.3,7.31c1.48,3.77,6.85,5.27,7.51,9.27.32,1.89-.48,4.15.84,5.54a6.53,6.53,0,0,0,2,1.16,8.55,8.55,0,0,1,.32,15.18c-.77.42-1.67.8-2,1.62s.28,1.86.72,2.73a8.22,8.22,0,0,1-11.69,10.66,12.86,12.86,0,0,1-7.55,6,7.73,7.73,0,0,1-4.49.12,9,9,0,0,1-3.09-1.9c-4.37-3.81-10.5-9.64-10.9-15.42"/><path class="cls-9" d="M296.7,150.78l-26.19,24c-3.26-.75-43.15-24.6-43.15-24.6l-6.3,30.69s40.82,18.77,52.06,16.49c1.83-.37,4.85-.61,6.74-3,9-11.55,28.05-40.12,28.05-40.12Z"/><path class="cls-9" d="M309.36,124.37c-1.73.71-7.91,11.12-7.91,11.12l-1.54.08a4.92,4.92,0,0,0-4.62,5.51c.51,4.34,1.41,9.7,1.41,9.7l8.65,3.94,2.56-.54c2.39-.13,4.7-5,6.17-8.39s-.94-4.09-.94-4.09c0-3.39-2.87-2.71-2.87-2.71a3,3,0,0,0-3.09-2.94s3.84-7,4.59-9.49S311.09,123.66,309.36,124.37Z"/><path class="cls-10" d="M310.1,139a14.45,14.45,0,0,1-.9,2.18,8.2,8.2,0,0,1-.53,1.08,4.44,4.44,0,0,1-.95,1.05,3.33,3.33,0,0,1-1.4.72,2.12,2.12,0,0,1-1.67-.4,1.57,1.57,0,0,1-.5-.77,2.09,2.09,0,0,1,0-.86,9.55,9.55,0,0,1,.45-1.48,18.18,18.18,0,0,1,1.06-2.34,15.08,15.08,0,0,1,.91-1.48c.24-.34.39-.51.41-.49s-.46.78-1.1,2.08a20.21,20.21,0,0,0-1,2.34,9.31,9.31,0,0,0-.41,1.42,1.32,1.32,0,0,0,.41,1.31,1.78,1.78,0,0,0,1.39.34,3,3,0,0,0,1.26-.64,4.27,4.27,0,0,0,.91-1,10.45,10.45,0,0,0,.55-1A16.28,16.28,0,0,1,310.1,139Z"/><path class="cls-10" d="M313.05,141.23a2.32,2.32,0,0,1-.14.6,16.62,16.62,0,0,1-.57,1.57,7.59,7.59,0,0,1-1.31,2.13,3.49,3.49,0,0,1-1.2.92,1.51,1.51,0,0,1-2.16-1.74,6.73,6.73,0,0,1,.39-1.44c.31-.88.64-1.65.93-2.29s.57-1.14.77-1.48a1.92,1.92,0,0,1,.34-.51s-.35.8-.88,2.09c-.27.64-.57,1.42-.86,2.3a7.66,7.66,0,0,0-.36,1.37,1.34,1.34,0,0,0,.38,1.27,1.33,1.33,0,0,0,1.32.12,3,3,0,0,0,1.09-.83,8.2,8.2,0,0,0,1.33-2C312.71,142,313,141.21,313.05,141.23Z"/><path class="cls-10" d="M314.58,143.73a4.17,4.17,0,0,1-.34,1.62,8.61,8.61,0,0,1-.8,1.62,4.5,4.5,0,0,1-.66.86,1.36,1.36,0,0,1-1.18.39,1.16,1.16,0,0,1-.82-.95,2.83,2.83,0,0,1,.07-1.1,7,7,0,0,1,.64-1.69,15.09,15.09,0,0,1,.77-1.45,5.42,5.42,0,0,1-.55,1.55,8.17,8.17,0,0,0-.55,1.65,2.7,2.7,0,0,0-.05,1,.81.81,0,0,0,.57.67,1,1,0,0,0,.87-.3,4.75,4.75,0,0,0,.63-.79,9.06,9.06,0,0,0,.83-1.53C314.4,144.34,314.52,143.72,314.58,143.73Z"/><path class="cls-9" d="M299.91,135.57c2.22-.08,5.5-.09,7.63.07a2.8,2.8,0,0,1-1.51,3.3,7.81,7.81,0,0,1-3.9.56,5.1,5.1,0,0,1,1.59,3.73,5.05,5.05,0,0,1-1.7,3.68"/><path class="cls-10" d="M302,146.91a6.7,6.7,0,0,0,1.24-1.95,4.87,4.87,0,0,0,.26-2.53,5,5,0,0,0-1.51-2.81l-.31-.29h.43a8.65,8.65,0,0,0,3.5-.41,2.69,2.69,0,0,0,1.76-3.23l.14.1c-2.22-.16-4.13-.16-5.48-.18h-1.58a2.2,2.2,0,0,1-.56,0,3.1,3.1,0,0,1,.56-.07c.36,0,.9-.06,1.58-.08,1.35,0,3.26-.08,5.51.06h.09l0,.09a2.45,2.45,0,0,1-.2,2.15,3.36,3.36,0,0,1-1.73,1.52,8.48,8.48,0,0,1-3.64.41l.12-.28a5.25,5.25,0,0,1,1.56,3,4.92,4.92,0,0,1-.35,2.65,4.76,4.76,0,0,1-.95,1.46A1.89,1.89,0,0,1,302,146.91Z"/><path class="cls-5" d="M249.89,409.56a2.18,2.18,0,0,0,.39-.86,6.35,6.35,0,0,0,.21-2.59,3.6,3.6,0,0,0-.21-.88,1.1,1.1,0,0,0-.86-.69.76.76,0,0,0-.63.22,1.09,1.09,0,0,0-.27.59,6.5,6.5,0,0,0,0,1.09c0,.72,0,1.42.17,2.26a1.36,1.36,0,0,0,.89,1.08,2.66,2.66,0,0,0,1.34.05,10.08,10.08,0,0,0,2.36-.7c.36-.15.71-.33,1.05-.51a3.15,3.15,0,0,0,.95-.72,1,1,0,0,0,0-1.28,1.21,1.21,0,0,0-1.14-.28,7.16,7.16,0,0,0-1.69.7,9.27,9.27,0,0,0-2.07,1.53c-.43.44-.62.72-.59.74a18.56,18.56,0,0,1,2.85-1.92,7.05,7.05,0,0,1,1.58-.58.74.74,0,0,1,.69.14.51.51,0,0,1-.07.63,2.51,2.51,0,0,1-.8.56,8.37,8.37,0,0,1-1,.48,10.09,10.09,0,0,1-2.23.65,2.21,2.21,0,0,1-1.06,0,.82.82,0,0,1-.54-.66c-.1-.69-.13-1.5-.19-2.19a5.73,5.73,0,0,1,0-1c0-.29.16-.42.36-.41.47,0,.63.66.71,1.16A9.3,9.3,0,0,1,249.89,409.56Z"/><path class="cls-5" d="M292.45,369.36a2,2,0,0,0,0-.94,6.32,6.32,0,0,0-1-2.41,3.58,3.58,0,0,0-.57-.7,1.1,1.1,0,0,0-1.08-.24.76.76,0,0,0-.47.47,1,1,0,0,0,0,.65,5.77,5.77,0,0,0,.5,1c.37.63.68,1.25,1.15,2a1.37,1.37,0,0,0,1.28.57,2.75,2.75,0,0,0,1.23-.54,10.67,10.67,0,0,0,1.8-1.67,10.52,10.52,0,0,0,.72-.93,3.1,3.1,0,0,0,.53-1.06,1,1,0,0,0-.54-1.16,1.21,1.21,0,0,0-1.15.26,7,7,0,0,0-1.2,1.37,9,9,0,0,0-1.19,2.29,2.22,2.22,0,0,0-.2.92,18.25,18.25,0,0,1,1.71-3,7.38,7.38,0,0,1,1.16-1.22c.22-.16.51-.27.68-.18a.51.51,0,0,1,.22.6,2.74,2.74,0,0,1-.47.86c-.21.29-.44.58-.68.87a11.27,11.27,0,0,1-1.72,1.57,2.28,2.28,0,0,1-1,.44.8.8,0,0,1-.77-.35c-.39-.58-.77-1.29-1.14-1.88a8.77,8.77,0,0,1-.48-.86c-.09-.27,0-.45.15-.52.43-.18.85.31,1.15.72A9,9,0,0,1,292.45,369.36Z"/><polygon class="cls-9" points="262.81 379.12 250.6 405.57 230.91 396.47 243.53 363.74 262.81 379.12"/><path class="cls-7" d="M252.91,403.8l-7.13,13.6s18.25,18.87,16.54,23.09l-42.9-20.57,11.78-27.27Z"/><path class="cls-2" d="M233.41,409.18a2,2,0,0,0-2.17,1.42,1.87,1.87,0,0,0,1.38,2.16,2,2,0,0,0,2.29-1.51,1.93,1.93,0,0,0-1.69-2.09"/><g class="cls-11"><path class="cls-4" d="M219.42,419.92l1.78-3.42,40.47,21s1.51,1.74.65,3Z"/></g><path class="cls-5" d="M246.58,417.51c-.11.21-1.2-.2-2.55,0s-2.33.8-2.48.62.74-1.23,2.38-1.42S246.72,417.34,246.58,417.51Z"/><path class="cls-5" d="M250.19,421.53c-.05.23-1.13.15-2.27.7s-1.79,1.38-2,1.27.23-1.36,1.66-2S250.28,421.33,250.19,421.53Z"/><path class="cls-5" d="M250.16,428.14c-.21,0,0-1.23,1.09-2.12s2.29-.87,2.29-.66-.9.54-1.78,1.29S250.38,428.22,250.16,428.14Z"/><path class="cls-5" d="M248.63,412.28c-.18.15-1-.6-2.23-1.09s-2.32-.56-2.34-.79,1.22-.55,2.65,0S248.81,412.16,248.63,412.28Z"/><path class="cls-5" d="M263.08,388.2l31.09-77.34s-.73-13.73-3.26-18.07-79.15-29.64-79.15-29.64-19.52-4.7-32.53,0-22.77,21-21,30,9.43,15.67,9.43,15.67l56.35,1.68,30.71,11.2L234.08,381S244.65,392.54,263.08,388.2Z"/><polygon class="cls-9" points="290.61 336.35 291.33 365.47 269.65 366 266.53 331.06 290.61 336.35"/><path class="cls-7" d="M292.63,362.86l-.4,15.35s24.7,8.88,25,13.42l-47.58.48-1.46-29.67Z"/><path class="cls-2" d="M277.5,376.3a1.93,1.93,0,0,0-1.32,2.23,1.87,1.87,0,0,0,2.2,1.33,2,2,0,0,0,1.38-2.37,1.93,1.93,0,0,0-2.44-1.13"/><g class="cls-11"><path class="cls-4" d="M269.68,392.11l.1-3.86,45.58,1s2.12.9,1.9,2.4Z"/></g><path class="cls-5" d="M293,378c0,.23-1.17.35-2.3,1.11s-1.74,1.74-1.95,1.65.12-1.44,1.51-2.33S293.05,377.75,293,378Z"/><path class="cls-5" d="M298,380c.05.23-.95.63-1.73,1.62s-1,2-1.22,2-.4-1.32.6-2.53S298,379.75,298,380Z"/><path class="cls-5" d="M300.9,385.92c-.21.05-.54-1.11,0-2.39s1.67-1.79,1.77-1.6-.57.88-1,1.94S301.13,385.89,300.9,385.92Z"/><path class="cls-5" d="M292.52,372.36c-.09.21-1.16-.1-2.47,0s-2.33.53-2.46.33.85-1,2.4-1.13S292.64,372.17,292.52,372.36Z"/><path class="cls-5" d="M278,255.52s13-1,14.44,13,2.86,79.88,2.86,79.88L264.89,351l-4.7-67.23-48.43-20.6S269.27,253.71,278,255.52Z"/><path class="cls-5" d="M224.4,236.49s7.88,22.11,6.38,24.57S209,273.67,209,273.67l-50.74,19.48s-5.21-8.29-5.21-21,17.65-35.64,17.65-35.64Z"/><path class="cls-7" d="M209.36,262a.84.84,0,0,0,.24.13l.72.34,2.81,1.25,10.55,4.59L260.09,284l-.17-.23c.46,6.64,1,13.81,1.47,21.23,1.24,17.35,2.38,33.34,3.28,46v.23l.23,0L287,349.26l6.09-.57,1.59-.16a3.25,3.25,0,0,0,.54-.08,3.27,3.27,0,0,0-.55,0l-1.59.1L287,349l-22.14,1.74.25.21c-.87-12.65-2-28.65-3.16-46-.52-7.42-1-14.6-1.5-21.24v-.16l-.15-.07L223.81,268l-10.61-4.45-2.84-1.17-.74-.29Z"/><path class="cls-7" d="M169,264.24a8.75,8.75,0,0,0,1.43-.39l3.82-1.23A82,82,0,0,1,187,259.39a37.44,37.44,0,0,1,13.09.16c3.3.69,5.2,1.63,5.24,1.52a5.66,5.66,0,0,0-1.32-.66,22.42,22.42,0,0,0-3.84-1.25,35.12,35.12,0,0,0-13.25-.33,70.25,70.25,0,0,0-12.83,3.41c-1.6.56-2.88,1.05-3.77,1.4A7.21,7.21,0,0,0,169,264.24Z"/><path class="cls-7" d="M176.18,252.58a39.24,39.24,0,0,1,4.44,0c1.37.09,3,.3,4.8.51s3.79.46,5.85.85a27,27,0,0,1,9.94,3.69,30.16,30.16,0,0,1,3.45,2.78,3.82,3.82,0,0,0-.74-1,14.87,14.87,0,0,0-2.49-2.15,25.49,25.49,0,0,0-10.06-3.92c-2.08-.39-4.08-.62-5.89-.81s-3.45-.35-4.84-.39a17.82,17.82,0,0,0-3.28.15A4.06,4.06,0,0,0,176.18,252.58Z"/><path class="cls-9" d="M225.65,149.4a16.45,16.45,0,0,1,8.43,7.32c3.16,5.6,2.32,8.37,1.49,11.68s-2.28,9.88-2.37,9.46S225.65,149.4,225.65,149.4Z"/><polygon class="cls-9" points="225.3 149.4 218.65 145.45 181.15 144.46 193.77 185.89 216.62 200.27 230.15 193.5 231.5 178.44 225.3 149.4"/><path class="cls-6" d="M225.65,149.4s8.62,27.66,8.43,35.58S230.6,215.4,231,219.83s-1.16,16.66-6.57,16.66H170.71s-12.13-3.35-12.65-10.64,9.32-69.61,9.32-69.61,6.85-10.34,11.29-11.29,12.67-2.78,15.64,6.41,3.94,13.9,10.28,20.24,15.35,13.45,15.35,13.45,7.29-6.09,7.61-14.32-2.76-21.6-2.76-21.6Z"/><path class="cls-5" d="M217.7,237.09a5,5,0,0,0,2.12-1.12,12.82,12.82,0,0,0,3.59-4.55,25.15,25.15,0,0,0,1.83-5.48,9.7,9.7,0,0,0,.37-2.36,10.5,10.5,0,0,0-.76,2.26,34,34,0,0,1-1.95,5.33,14.53,14.53,0,0,1-3.33,4.49C218.48,236.61,217.65,237,217.7,237.09Z"/><path class="cls-5" d="M189.29,202.81a4.2,4.2,0,0,0,.9.76,16.77,16.77,0,0,0,7.36,3,15.85,15.85,0,0,0,5.86-.25,19.3,19.3,0,0,0,9.11-5.29,23.61,23.61,0,0,0,2.1-2.43,4.62,4.62,0,0,0,.63-1c-.09-.06-1.06,1.31-3,3.14a20.07,20.07,0,0,1-9,5,16.4,16.4,0,0,1-10.15-.94C190.67,203.77,189.35,202.71,189.29,202.81Z"/><path class="cls-5" d="M218.36,236.1c.12.09.86-.75,1.11-2.07a3,3,0,0,0-.24-2.34c-.17,0-.07,1-.32,2.23S218.22,236,218.36,236.1Z"/><g class="cls-12"><path d="M214.35,198.83a15.66,15.66,0,0,1-5.52,10.55,13,13,0,0,1-11.49,2.5,11.11,11.11,0,0,1-7.84-8.52,33,33,0,0,0,8.56,3,16.83,16.83,0,0,0,16.55-7.81l-.44.46"/></g><g class="cls-12"><path d="M225.63,224.42a12,12,0,0,1-3.83,11.21,2.6,2.6,0,0,1-2.41.82,28.65,28.65,0,0,0,6.17-12.27"/></g><path class="cls-6" d="M153.06,186.57l27.06,12.68s11-24.4,12-27.73S196,162.9,193,156s-10.73-10.83-15.84-9C165.2,151.09,153.06,186.57,153.06,186.57Z"/><path class="cls-6" d="M231.5,186.48c1.27,0,15.77,7.59,15.77,7.59l8.26-27.36C243.2,158.49,230.6,150,223.38,148l6.27,21.76Z"/><path class="cls-9" d="M177.46,197.53c-5.12,8.42-8.69,13.26-8.69,13.26l45.95,28-5.36,12.44-59.6-24.53s-5.87-6.05-3.8-12.79l9.5-26.23Z"/><path class="cls-10" d="M157.59,215.07a39.85,39.85,0,0,1,5.5-2.86c3.2-1.21,6-1.24,6-1.42a14.84,14.84,0,0,0-11.53,4.28Z"/><path class="cls-5" d="M153.06,186.57a2.19,2.19,0,0,1,.54.19l1.5.63,5.46,2.43,18,8.19,2.19,1-.34.12c3.12-6.44,5.86-12.19,7.8-16.35l2.26-4.91c.24-.54.45-1,.61-1.33a1.67,1.67,0,0,1,.24-.45,2.14,2.14,0,0,1-.15.49c-.12.31-.28.77-.52,1.36-.48,1.19-1.2,2.89-2.12,5-1.86,4.2-4.54,10-7.65,16.43l-.11.22-.24-.1-2.19-1-17.89-8.33-5.4-2.57-1.46-.73A2.69,2.69,0,0,1,153.06,186.57Z"/><path class="cls-5" d="M229.84,161.74a7.89,7.89,0,0,1,.63,1.28,26.72,26.72,0,0,1,1.22,3.71,67.67,67.67,0,0,1,1.86,12.73,88.48,88.48,0,0,1-.13,12.86c-.14,1.64-.33,3-.48,3.87a9,9,0,0,1-.32,1.4,7.55,7.55,0,0,1,.11-1.43c.1-.91.23-2.23.33-3.87a111.32,111.32,0,0,0,0-12.8,78.64,78.64,0,0,0-1.7-12.67,35.07,35.07,0,0,0-1.05-3.73A6.33,6.33,0,0,1,229.84,161.74Z"/><path class="cls-9" d="M250.37,247.3l-11.46-5.48L216.54,240l-1.82-1.26-5.36,12.44s5.86,2.8,8.94,3.05l18.8-.57,9.83,1Z"/><path class="cls-7" d="M236,103.73a4.73,4.73,0,0,0,2,0,11.88,11.88,0,0,0,8-5.2,5,5,0,0,0,.86-1.83,14.56,14.56,0,0,0-1.18,1.61,14,14,0,0,1-3.45,3.21,13.75,13.75,0,0,1-4.35,1.83A18.59,18.59,0,0,0,236,103.73Z"/><path class="cls-7" d="M233.07,90.44s.4.61,1.32,1.31a11.32,11.32,0,0,0,4.05,1.93,11.57,11.57,0,0,0,4.47.25,4.24,4.24,0,0,0,1.78-.53,18.3,18.3,0,0,1-6.12-.25A18.78,18.78,0,0,1,233.07,90.44Z"/><path class="cls-7" d="M254.55,156.24s.07,0,.19,0a3.45,3.45,0,0,0,.51-.15,6.38,6.38,0,0,0,1.81-1,7,7,0,0,0,2.07-2.55,6.86,6.86,0,0,0,.5-4.31,7,7,0,0,0-.94-2.38,9.42,9.42,0,0,0-1.84-2.06,9.16,9.16,0,0,1-1.91-2.07,2.84,2.84,0,0,1-.09-2.73,13.84,13.84,0,0,1,1.87-2.55,8.81,8.81,0,0,0,1-1.4,5.37,5.37,0,0,0,.56-1.71,6,6,0,0,0-3.26-6.16,19.7,19.7,0,0,0-3.55-.83,4,4,0,0,1-1.51-.64,2.4,2.4,0,0,1-.87-1.27,4.9,4.9,0,0,1,.35-3.12c.4-1,1-1.93,1.34-3a4.75,4.75,0,0,0,.22-3.17,5,5,0,0,0-1.8-2.4,14.05,14.05,0,0,0-4.85-2.05,10.78,10.78,0,0,1-3.83-1.74,4.81,4.81,0,0,1-1.6-2.66,3.14,3.14,0,0,1,.19-2c.2-.41.39-.58.36-.61a1.66,1.66,0,0,0-.46.56,3.13,3.13,0,0,0-.3,2,5,5,0,0,0,1.61,2.85,10.76,10.76,0,0,0,3.92,1.88,13.72,13.72,0,0,1,4.68,2,4.62,4.62,0,0,1,1.62,2.19,4.29,4.29,0,0,1-.23,2.85c-.36,1-.92,1.88-1.36,2.94a5.51,5.51,0,0,0-.38,3.47,3.05,3.05,0,0,0,1.06,1.54,4.55,4.55,0,0,0,1.71.74,20.35,20.35,0,0,1,3.46.79,5.49,5.49,0,0,1,3,5.6,4.69,4.69,0,0,1-.5,1.52,8.53,8.53,0,0,1-.92,1.33,14.19,14.19,0,0,0-1.93,2.67,3.35,3.35,0,0,0,.13,3.18,9.6,9.6,0,0,0,2,2.17,8.76,8.76,0,0,1,1.79,1.94,6.65,6.65,0,0,1,.92,2.24,6.54,6.54,0,0,1-.4,4.1,7,7,0,0,1-1.92,2.52A9,9,0,0,1,254.55,156.24Z"/><path class="cls-9" d="M195.05,91.5l.09-4.11L220,83.69c7.65-.49,15.57,7.47,15.74,15.13.19,8.51.09,18.91-1.18,25.2-2.53,12.66-12.36,13.88-12.36,13.88l-.57,12.64-28.18-.79Z"/><path class="cls-5" d="M232.54,108.17a1.63,1.63,0,0,1-1.64,1.58,1.55,1.55,0,0,1-1.62-1.54,1.63,1.63,0,0,1,1.64-1.58A1.56,1.56,0,0,1,232.54,108.17Z"/><path class="cls-5" d="M232.85,104.12c-.21.21-1.41-.76-3.17-.83s-3.08.76-3.27.54.14-.47.71-.86a4.53,4.53,0,0,1,2.63-.69,4.33,4.33,0,0,1,2.51.92C232.78,103.64,233,104,232.85,104.12Z"/><path class="cls-5" d="M216.29,107.53a1.64,1.64,0,0,1-1.65,1.58,1.57,1.57,0,0,1-1.62-1.54,1.64,1.64,0,0,1,1.64-1.59A1.58,1.58,0,0,1,216.29,107.53Z"/><path class="cls-5" d="M215.56,103.75c-.21.2-1.42-.76-3.17-.83s-3.08.76-3.27.54.13-.48.71-.86a4.45,4.45,0,0,1,2.63-.7,4.26,4.26,0,0,1,2.51.93C215.49,103.26,215.66,103.66,215.56,103.75Z"/><path class="cls-5" d="M221.41,117a11.8,11.8,0,0,1,2.87-.4c.45,0,.88-.1,1-.4a2.25,2.25,0,0,0-.25-1.34c-.37-1.11-.77-2.26-1.18-3.47-1.65-4.94-2.82-9-2.62-9.06s1.69,3.88,3.34,8.82c.39,1.22.77,2.38,1.13,3.49a2.58,2.58,0,0,1,.16,1.77,1.13,1.13,0,0,1-.76.63,3.2,3.2,0,0,1-.77.08A11.41,11.41,0,0,1,221.41,117Z"/><path class="cls-10" d="M222.21,137.93a33.77,33.77,0,0,1-17.3-5.28s3.94,9.09,17.16,8.46Z"/><path class="cls-10" d="M220.49,121.25A3.15,3.15,0,0,0,217.7,120a2.85,2.85,0,0,0-2,1,1.83,1.83,0,0,0-.22,2.09,2.12,2.12,0,0,0,2.28.67,6.63,6.63,0,0,0,2.3-1.25,1.9,1.9,0,0,0,.52-.5.57.57,0,0,0,0-.65"/><path class="cls-5" d="M216.19,118.05c.28,0,.21,1.9,1.79,3.32s3.61,1.29,3.62,1.56c0,.12-.47.35-1.33.34a4.73,4.73,0,0,1-3-1.19,4.19,4.19,0,0,1-1.38-2.78C215.82,118.5,216.06,118,216.19,118.05Z"/><path class="cls-5" d="M216.29,96.88c-.19.47-1.94.17-4,.34s-3.76.66-4,.22c-.11-.21.2-.65.89-1.09a6.61,6.61,0,0,1,3-.91,6.54,6.54,0,0,1,3.1.49C216,96.26,216.37,96.66,216.29,96.88Z"/><path class="cls-5" d="M232.41,99c-.33.39-1.52-.08-3-.16s-2.7.16-3-.27c-.12-.2.09-.6.64-1a4.3,4.3,0,0,1,4.79.34C232.4,98.4,232.55,98.82,232.41,99Z"/><path class="cls-5" d="M239,83.39C237,87.85,232.39,94.48,227.51,95a14.38,14.38,0,0,1-12.82-5.78c-.82,3.62-4.89,5.45-8.56,6a14.59,14.59,0,0,1-7.73-.7,7.72,7.72,0,0,1-4.78-5.79c-.33-2.6,3.5-8.88,6.08-9.3"/><path class="cls-5" d="M199.29,148.48a10,10,0,0,1-7.35,8.91,7.11,7.11,0,0,1-13.77,2.77,8.43,8.43,0,0,0-1-2.41c-1.25-1.58-3.68-1.27-5.6-1.89-3.45-1.12-4.94-5.34-4.55-9a8,8,0,0,0,.1-2.13c-.21-1.45-1.35-2.55-2.19-3.75-3.47-4.91-2-12.06,1.82-16.68,1.29-1.55,2.9-3.16,2.79-5.16a10.78,10.78,0,0,0-1.09-3.16,9.08,9.08,0,0,1,2.45-9.93,2.84,2.84,0,0,0,1.05-1.26,2.7,2.7,0,0,0,0-1.06,10.64,10.64,0,0,1,9-11.35,2.64,2.64,0,0,0,.94-.21c.82-.43.85-1.56,1-2.47.28-2.43,2.15-7,4-8.53,5.14-4.4,10.12-.82,11.9.85,0,0,3.52,17.45,2.83,20.69s-3.06,11.36-2.12,15,2.5,11.22,1,14.54S199.29,148.48,199.29,148.48Z"/><path class="cls-7" d="M180.06,92.36s.22.22.68.55a17.48,17.48,0,0,0,2,1.22,25,25,0,0,0,15.28,2.51,17,17,0,0,0,2.32-.51,2.94,2.94,0,0,0,.82-.3c0-.09-1.22.21-3.19.43A28.28,28.28,0,0,1,183,93.79C181.15,93,180.11,92.28,180.06,92.36Z"/><path class="cls-7" d="M178.39,93.59a3.5,3.5,0,0,0,.37,1,9,9,0,0,0,.55,1.17c.25.44.5,1,.86,1.48a22.72,22.72,0,0,0,2.75,3.52,26.19,26.19,0,0,0,4.2,3.51,25.53,25.53,0,0,0,4.88,2.48,22.66,22.66,0,0,0,4.32,1.14,13.13,13.13,0,0,0,1.7.2,8.9,8.9,0,0,0,1.3.06,4.17,4.17,0,0,0,1.1-.07c0-.11-1.57-.09-4-.57a25,25,0,0,1-4.21-1.23,28.09,28.09,0,0,1-4.76-2.46,28.41,28.41,0,0,1-4.14-3.41,26.18,26.18,0,0,1-2.79-3.38C179.08,95,178.49,93.55,178.39,93.59Z"/><path class="cls-7" d="M187.51,158.41s-.22,0-.61-.07a2.73,2.73,0,0,1-1.47-.88,3.73,3.73,0,0,1-1-2.5,12,12,0,0,1,.66-3.62,7.91,7.91,0,0,0,.27-4.59c-.54-1.65-1.87-2.92-3-4.28a8.31,8.31,0,0,1-1.52-2.26,3.11,3.11,0,0,1,.08-2.63,5.87,5.87,0,0,1,2-2.1c.82-.59,1.73-1.12,2.6-1.76a5.69,5.69,0,0,0,2.08-2.49,3.84,3.84,0,0,0-.32-3.15c-1-1.82-2.53-3.13-2.89-4.87a5.94,5.94,0,0,1,1.29-4.68,20.71,20.71,0,0,1,3.07-3.28,20.7,20.7,0,0,0,2.57-2.76,8.4,8.4,0,0,0,1.33-2.53,5.18,5.18,0,0,0,.21-1.8,1.88,1.88,0,0,0-.12-.61,6.38,6.38,0,0,1-.29,2.34,13,13,0,0,1-4,5.08,20.87,20.87,0,0,0-3.18,3.29,9,9,0,0,0-1.22,2.28,4.93,4.93,0,0,0-.19,2.78c.41,2,2,3.31,2.9,5a3.32,3.32,0,0,1,.29,2.73,5.18,5.18,0,0,1-1.9,2.23c-.83.62-1.74,1.15-2.59,1.76a6.42,6.42,0,0,0-2.14,2.31,3.68,3.68,0,0,0-.08,3.06A8.7,8.7,0,0,0,182,142.8c1.22,1.37,2.5,2.6,3,4.1a7.5,7.5,0,0,1-.22,4.34,12.44,12.44,0,0,0-.59,3.74,3.91,3.91,0,0,0,1.11,2.63,2.74,2.74,0,0,0,1.6.84A1.53,1.53,0,0,0,187.51,158.41Z"/><path class="cls-2" d="M314.84,203.15l-64.47.53c-2.1,0-4.09,1-4.41,3.07l-7,47H205.7a1.94,1.94,0,0,0,0,3.88H311.78L319,208A4.24,4.24,0,0,0,314.84,203.15Z"/><path class="cls-5" d="M314.84,203.15a3.57,3.57,0,0,1,1,.1,4.27,4.27,0,0,1,3.26,3.69,11.35,11.35,0,0,1-.24,2.65l-.93,6.55c-1.42,9.85-3.46,24.05-6,41.51l0,.17h-.17l-102.91.06H206.1a2.8,2.8,0,0,1-1.47-.28,2.24,2.24,0,0,1-1-1.17,2.21,2.21,0,0,1,1-2.67,2.78,2.78,0,0,1,1.46-.28h32.82l-.25.22c2.53-16.83,4.9-32.53,7-46.62a3.64,3.64,0,0,1,1.2-2.45,4.73,4.73,0,0,1,2.46-1.09,20.87,20.87,0,0,1,2.6-.09l2.53,0,9.71-.07,17.25-.11,24.56-.12h8.27l.57,0-.57,0-1.7,0-6.57.1-24.56.27-17.25.17-9.71.1-2.53,0a21.09,21.09,0,0,0-2.53.09,4.42,4.42,0,0,0-2.25,1,3.22,3.22,0,0,0-1,2.21c-2.1,14.08-4.44,29.79-7,46.62l0,.21h-33a2.21,2.21,0,0,0-1.2.21,1.67,1.67,0,0,0,0,2.93,2.14,2.14,0,0,0,1.21.22h2.77l102.91.06-.2.17c2.59-17.45,4.69-31.64,6.15-41.49.37-2.45.7-4.64,1-6.53A12,12,0,0,0,319,207a4.11,4.11,0,0,0-.75-2,4.18,4.18,0,0,0-2.38-1.64A10,10,0,0,0,314.84,203.15Z"/><circle class="cls-4" cx="279.87" cy="229.79" r="4.04"/><path class="cls-5" d="M241.53,257.18c.09,0,2.14-12,4.58-26.72s4.35-26.77,4.26-26.78-2.15,11.95-4.59,26.72S241.44,257.17,241.53,257.18Z"/></g><g id="Picture"><path class="cls-5" d="M416.41,170.77s0-.6,0-1.74,0-2.83,0-5c0-4.41,0-10.85-.06-19.06,0-16.4-.07-39.83-.11-68l.22.22-105.09,0h0l.26-.26c0,34.14,0,66.28,0,93.86l-.23-.23,76,.12,21.44.06,5.67,0h2l-.48,0h-1.44l-5.63,0-21.38.06-76.17.11h-.23v-.23c0-27.58,0-59.72,0-93.86v-.26h.27l105.09,0h.22v.22c-.05,28.26-.09,51.75-.11,68.18,0,8.19,0,14.61-.06,19,0,2.17,0,3.84,0,5S416.41,170.77,416.41,170.77Z"/><rect class="cls-6" x="318.16" y="82.24" width="89.68" height="83.19"/><g class="cls-12"><path d="M372.4,101a6.2,6.2,0,1,0,6.46,6.19A6.32,6.32,0,0,0,372.4,101Z"/><path d="M400.89,88.78l-75.77-.06c.09-.09-.81.78-.43.42v18.68c0,6.11,0,12.1,0,17.93,0,11.65,0,22.66,0,32.8v.36h.38l55-.18,15.37-.09,4,0,1,0,.33,0a1.75,1.75,0,0,0-.38,0l-1.06,0-4.1,0-15.45-.1L363,158.32h37.9a1.45,1.45,0,0,0,0,.23,1.71,1.71,0,0,0,0-.3c0-.24,0-.55,0-.94,0-.87,0-2.09,0-3.67,0-3.28.06-8,.1-14,0-12.21.11-29.59.18-50.46v-.35Zm-18.35,39.56-12.33,14.53-20.29-27.36-24.43,42.16c0-9.89,0-20.6,0-31.92,0-5.83,0-11.82,0-17.93V89.54l75-.06c.08,20.62.14,37.8.19,49.88,0,6.06.07,10.83.09,14.13,0,1.61,0,2.86.05,3.75,0,.4,0,.72,0,1v.08Z"/></g><rect class="cls-5" x="308.55" y="73.45" width="5.51" height="5.51"/><rect class="cls-5" x="412.77" y="73.45" width="5.51" height="5.51"/><rect class="cls-5" x="412.77" y="167.12" width="5.51" height="5.51"/><rect class="cls-5" x="309.33" y="167.12" width="5.51" height="5.51"/><rect class="cls-5" x="309.33" y="120.83" width="5.51" height="5.51"/><rect class="cls-5" x="360.43" y="168.02" width="5.51" height="5.51"/><rect class="cls-5" x="413.66" y="118.08" width="5.51" height="5.51"/><rect class="cls-5" x="360.45" y="73.95" width="5.51" height="5.51"/></g><g id="Plant"><path class="cls-5" d="M577,332.32c-.1.12-.93-.38-1.85-1.12s-1.6-1.44-1.5-1.57.93.38,1.86,1.12S577.12,332.19,577,332.32Z"/><path class="cls-7" d="M602.29,294.55c.16-3.53.26-7.15-.86-10.5s-3.7-6.44-7.16-7.15c-3.94-.82-8,1.67-10.2,5s-3,7.46-3.63,11.44a404.34,404.34,0,0,0-5,83l16.16,2.27C598.74,349.7,601,324.36,602.29,294.55Z"/><path class="cls-5" d="M592,276.77a.72.72,0,0,1-.07.26l-.27.73c-.26.69-.62,1.62-1.07,2.79-.23.61-.53,1.27-.77,2l-.78,2.45c-.29.88-.59,1.82-.91,2.81l-.83,3.2a140.24,140.24,0,0,0-3.12,16c-.88,6.07-1.45,12.8-1.9,19.87-.83,14.15-1,27-1.32,36.29-.17,4.65-.33,8.41-.51,11-.09,1.26-.15,2.26-.2,3,0,.31,0,.56-.07.77a1.14,1.14,0,0,1,0,.27.85.85,0,0,1,0-.27c0-.21,0-.47,0-.78,0-.73.06-1.73.1-3,.1-2.6.2-6.36.32-11,.26-9.29.33-22.14,1.15-36.31.45-7.09,1-13.83,1.95-19.92a134,134,0,0,1,3.25-16c.31-1.12.6-2.19.88-3.21s.65-1.92,1-2.8.57-1.69.83-2.44.57-1.4.82-2c.49-1.16.89-2.08,1.18-2.75l.31-.71A1.31,1.31,0,0,1,592,276.77Z"/><path class="cls-5" d="M593.53,276.78a11.59,11.59,0,0,1,2,3.34A24.71,24.71,0,0,1,597,290.57c-.43,8.93-1.23,21.23-2.3,34.81s-2.25,25.86-3.2,34.73c-.48,4.44-.89,8-1.19,10.51-.16,1.2-.28,2.15-.37,2.85,0,.29-.08.54-.11.74a1,1,0,0,1-.06.25.86.86,0,0,1,0-.26l0-.74c.07-.71.15-1.66.26-2.87.25-2.53.59-6.11,1-10.52.85-8.88,2-21.16,3-34.74s1.92-25.87,2.46-34.77a25.22,25.22,0,0,0-1.28-10.35A21.47,21.47,0,0,0,593.53,276.78Z"/><path class="cls-5" d="M604.73,318.59a8.68,8.68,0,0,1-3.06-.79,8.91,8.91,0,0,1-2.87-1.34,8.93,8.93,0,0,1,3.06.8A8.77,8.77,0,0,1,604.73,318.59Z"/><path class="cls-5" d="M606.67,302.13a19.08,19.08,0,0,1-6.06,2.71,9.79,9.79,0,0,1,2.92-1.62A9.59,9.59,0,0,1,606.67,302.13Z"/><path class="cls-5" d="M605.67,288.69a5.27,5.27,0,0,1-2.41.12,5.21,5.21,0,0,1-2.37-.45,10.19,10.19,0,0,1,4.78.33Z"/><path class="cls-5" d="M589,280.08c-.14.09-.85-.8-1.58-2a5.85,5.85,0,0,1-1.1-2.27c.14-.09.85.79,1.58,2A5.85,5.85,0,0,1,589,280.08Z"/><path class="cls-5" d="M583.49,288.2a9.34,9.34,0,0,1-4.58-.09,4.74,4.74,0,0,1,2.3-.24A4.89,4.89,0,0,1,583.49,288.2Z"/><path class="cls-5" d="M579.53,304.46a5.58,5.58,0,0,1-2.41-.66c-1.28-.51-2.26-1.05-2.2-1.2a5.58,5.58,0,0,1,2.41.66C578.61,303.78,579.59,304.31,579.53,304.46Z"/><path class="cls-5" d="M579.11,318.13c0,.16-.89.48-2.06.73s-2.14.32-2.17.16.89-.48,2.06-.72A4.36,4.36,0,0,1,579.11,318.13Z"/><path class="cls-5" d="M577.25,340.5c0,.15-1,.46-2.18.68a4.88,4.88,0,0,1-2.29.12c0-.16,1-.47,2.19-.69S577.22,340.34,577.25,340.5Z"/><path class="cls-5" d="M576,352.84c.08.14-.74.72-1.82,1.29s-2,.92-2.09.78.74-.72,1.82-1.29S575.94,352.7,576,352.84Z"/><path class="cls-5" d="M586.09,366.85c-.14.08-.85-.9-1.58-2.19a6.43,6.43,0,0,1-1.09-2.47c.14-.08.85.9,1.59,2.19A6.37,6.37,0,0,1,586.09,366.85Z"/><path class="cls-5" d="M589,343.57c.11.11-.68,1.07-1.76,2.13s-2.06,1.84-2.17,1.73.67-1.07,1.76-2.14S588.89,343.46,589,343.57Z"/><path class="cls-5" d="M588.36,331.35c-.12.11-.85-.49-1.64-1.34s-1.33-1.63-1.22-1.74.85.49,1.64,1.35S588.48,331.24,588.36,331.35Z"/><path class="cls-5" d="M590.36,315.74c.12.11-.54,1-1.47,2.08s-1.79,1.79-1.91,1.69.54-1,1.48-2.08S590.24,315.64,590.36,315.74Z"/><path class="cls-5" d="M591.48,304.41c-.11.12-1-.61-2.05-1.61s-1.76-1.91-1.65-2,1,.61,2.05,1.62S591.6,304.3,591.48,304.41Z"/><path class="cls-5" d="M593.7,289.1a5.78,5.78,0,0,1-1,2.29c-.7,1.19-1.39,2.08-1.52,2s.32-1.11,1-2.29S593.56,289,593.7,289.1Z"/><path class="cls-5" d="M597.86,274.91a5.46,5.46,0,0,1-.92,2.29c-.64,1.19-1.28,2.1-1.42,2a5.46,5.46,0,0,1,.92-2.29C597.08,275.74,597.72,274.83,597.86,274.91Z"/><path class="cls-5" d="M602.58,281.35c.06.15-.58.6-1.45,1s-1.62.64-1.69.49.58-.59,1.44-1S602.51,281.21,602.58,281.35Z"/><path class="cls-5" d="M602.69,332.32a6.49,6.49,0,0,1-3.16-.77,6.38,6.38,0,0,1-2.74-1.75,115.28,115.28,0,0,1,5.9,2.52Z"/><path class="cls-5" d="M600.76,343.12c0,.15-.94.47-2.17.71s-2.26.3-2.29.14a4.91,4.91,0,0,1,2.18-.71C599.71,343,600.73,343,600.76,343.12Z"/><path class="cls-5" d="M598.39,361.62a9.06,9.06,0,0,1-4-5,18.57,18.57,0,0,1,2,2.53A19.38,19.38,0,0,1,598.39,361.62Z"/><path class="cls-5" d="M572.42,370.09c-.1-.12.56-.85,1.47-1.63s1.74-1.32,1.84-1.2-.55.85-1.47,1.63S572.53,370.21,572.42,370.09Z"/><path class="cls-7" d="M565,329.69c-1.05-3.28-3-7.11-6.47-7.16a5.73,5.73,0,0,0-4.85,3.24,12,12,0,0,0-1.31,6,155.14,155.14,0,0,0,7.41,43h12.61A150,150,0,0,0,565,329.69Z"/><path class="cls-7" d="M542.15,309c-1.76-7-7-10.86-13.13-11.21-5.58,1-7.74,6.47-8.4,12.09s1.08,11.21,2.81,16.61q8.3,26,16.6,51.92l15.69-1.71C550.75,353.53,547.9,332,542.15,309Z"/><path class="cls-5" d="M558.49,322.53a12.44,12.44,0,0,0-1.07,1.79,11.67,11.67,0,0,0-.59,5.57c.24,2.4.52,5.29.92,8.45s1,6.64,1.69,10.26c1.43,7.25,3,13.75,4,18.49.52,2.37.91,4.29,1.15,5.62.11.62.2,1.13.27,1.54a2.06,2.06,0,0,1,.05.55,2,2,0,0,1-.17-.52c-.1-.42-.22-.92-.37-1.52-.33-1.4-.78-3.29-1.33-5.58-1.12-4.71-2.79-11.2-4.22-18.47-.71-3.63-1.26-7.12-1.65-10.3-.2-1.6-.33-3.12-.46-4.54s-.27-2.73-.34-3.95a11.51,11.51,0,0,1,.79-5.7A5,5,0,0,1,558.49,322.53Z"/><path class="cls-5" d="M529.25,297.36a20.74,20.74,0,0,0-1.9,2.55,18,18,0,0,0-2.39,8.21c-.24,3.65.58,8,1.94,12.64l4.48,15.17,8,27.6c1,3.5,1.79,6.35,2.37,8.39.26.95.46,1.71.62,2.28a8,8,0,0,1,.18.81,4,4,0,0,1-.29-.77c-.19-.57-.42-1.32-.72-2.26L539,363.65l-8.19-27.56c-1.58-5.38-3.07-10.51-4.44-15.19s-2.13-9.08-1.84-12.8a17.66,17.66,0,0,1,2.61-8.31A9.8,9.8,0,0,1,529.25,297.36Z"/><path class="cls-5" d="M552.3,375a4.34,4.34,0,0,1-.36-.75c-.2-.5-.54-1.23-.89-2.21-.75-1.93-1.71-4.76-2.7-8.33s-2-7.86-2.92-12.65-1.91-10.08-3-15.61-2.3-10.75-3.71-15.42A86.84,86.84,0,0,0,534.18,308a63.44,63.44,0,0,0-4.23-7.62c-.54-.88-1-1.51-1.32-2a4.42,4.42,0,0,1-.44-.71,4.22,4.22,0,0,1,.53.64c.33.44.85,1.05,1.42,1.92a56.85,56.85,0,0,1,4.41,7.57,81.46,81.46,0,0,1,4.71,12.11A155,155,0,0,1,543,335.38c1,5.53,2,10.81,2.91,15.61s1.85,9.09,2.79,12.65,1.84,6.42,2.52,8.37c.32,1,.62,1.72.79,2.24A4.4,4.4,0,0,1,552.3,375Z"/><path class="cls-5" d="M523.71,323.91c0,.16-.82.5-1.91.76s-2,.36-2,.2.81-.49,1.9-.76S523.67,323.76,523.71,323.91Z"/><path class="cls-5" d="M522,313.21a7.85,7.85,0,0,1-2.64.28,7.58,7.58,0,0,1-2.66-.08,5.45,5.45,0,0,1,2.64-.49A5.33,5.33,0,0,1,522,313.21Z"/><path class="cls-5" d="M523.81,303.42c-.1.13-.95-.43-1.9-1.23s-1.64-1.56-1.53-1.68,1,.43,1.9,1.24S523.92,303.3,523.81,303.42Z"/><path class="cls-5" d="M528.6,294.37c.16,0,.11.8.09,1.72s0,1.69-.19,1.71-.42-.74-.39-1.72S528.45,294.33,528.6,294.37Z"/><path class="cls-5" d="M538.38,298.64c.13.09-.25.86-.86,1.72s-1.2,1.49-1.33,1.4.26-.87.86-1.73S538.25,298.55,538.38,298.64Z"/><path class="cls-5" d="M544.73,309.66c.06.15-.76.62-1.82,1.06s-2,.66-2,.51.75-.62,1.81-1.05S544.67,309.52,544.73,309.66Z"/><path class="cls-5" d="M548.58,321a7.33,7.33,0,0,1-5.2,1.18,10.15,10.15,0,0,1,2.58-.66A10.68,10.68,0,0,1,548.58,321Z"/><path class="cls-5" d="M530.9,317.79c-.15-.05,0-.83.24-1.75s.65-1.63.8-1.58,0,.83-.25,1.75S531.05,317.83,530.9,317.79Z"/><path class="cls-5" d="M533.36,332a5.7,5.7,0,0,1,.71-2.36c.54-1.24,1.1-2.19,1.24-2.13a5.33,5.33,0,0,1-.71,2.36C534.07,331.14,533.51,332.09,533.36,332Z"/><path class="cls-5" d="M527.27,335.93c-.06.15-1-.12-2.26-.5s-2.17-.72-2.14-.88a4.36,4.36,0,0,1,2.31.33C526.42,335.27,527.33,335.79,527.27,335.93Z"/><path class="cls-5" d="M530.78,347.54c.1.13-.58.77-1.5,1.43s-1.74,1.09-1.83,1,.58-.77,1.5-1.43S530.69,347.41,530.78,347.54Z"/><path class="cls-5" d="M533.6,359.12c0,.16-.79.49-1.86.75s-2,.34-2,.19.79-.49,1.86-.75S533.56,359,533.6,359.12Z"/><path class="cls-5" d="M548.89,330.68c.08.14-.63.7-1.67,1.09s-1.94.44-2,.28.79-.45,1.77-.82S548.81,330.54,548.89,330.68Z"/><path class="cls-5" d="M551.07,348.7c-.07.14-.91-.12-1.89-.58s-1.71-.94-1.65-1.09.92.11,1.9.57S551.14,348.55,551.07,348.7Z"/><path class="cls-5" d="M554.93,361.59a6.09,6.09,0,0,1-2.5-.67c-1.32-.52-2.35-1.06-2.29-1.21a5.91,5.91,0,0,1,2.5.67C554,360.9,555,361.44,554.93,361.59Z"/><path class="cls-5" d="M534.22,371.69c-.08-.15.95-.84,2.14-1.78s2.11-1.77,2.23-1.66-.64,1.14-1.88,2.11A5.22,5.22,0,0,1,534.22,371.69Z"/><path class="cls-5" d="M544.41,365.13c-.16,0-.38-.85-.78-1.85s-.8-1.8-.67-1.9.79.6,1.21,1.69S544.56,365.12,544.41,365.13Z"/><path class="cls-5" d="M541.71,349.63c-.09.13-.75-.19-1.47-.7s-1.23-1-1.13-1.17.75.18,1.47.7S541.8,349.5,541.71,349.63Z"/><path class="cls-5" d="M565.47,325.33c.09.13-.55.76-1.43,1.42s-1.68,1.08-1.78.95.55-.76,1.43-1.42S565.37,325.2,565.47,325.33Z"/><path class="cls-5" d="M569.05,335.12c0,.16-1,.37-2.23.23s-2.18-.55-2.13-.7,1,0,2.19.13S569,335,569.05,335.12Z"/><path class="cls-5" d="M553.66,337.32c0,.15-.9.48-2.1.56s-2.17-.13-2.15-.28,1-.22,2.11-.3S553.62,337.16,553.66,337.32Z"/><path class="cls-5" d="M555,328.06c0,.15-1,.18-2-.3s-1.62-1.2-1.51-1.3.81.35,1.75.78S555,327.9,555,328.06Z"/><path class="cls-5" d="M570.37,345.63c-.08.13-1-.32-2.15-1s-1.93-1.37-1.84-1.5,1,.32,2.15,1S570.45,345.49,570.37,345.63Z"/><rect class="cls-6" x="525.81" y="373.1" width="82.12" height="14.55"/><polygon class="cls-6" points="531.94 384.77 541.93 428.26 590.87 428.26 601.79 384.77 531.94 384.77"/><path class="cls-5" d="M607.88,387.67c0,.16-18.52.29-41.37.29s-41.37-.13-41.37-.29,18.52-.29,41.37-.29S607.88,387.51,607.88,387.67Z"/><path class="cls-5" d="M562.21,337.63c-.13.09-.69-.57-1.25-1.46s-.9-1.68-.76-1.76.69.57,1.25,1.46S562.35,337.55,562.21,337.63Z"/><path class="cls-5" d="M562.24,349.34c-.15,0,0-1,.43-2.21s.83-2.07,1-2,0,1-.43,2.21S562.39,349.39,562.24,349.34Z"/><path class="cls-5" d="M566.25,361.64c-.14.07-.76-.92-1.37-2.2A6.09,6.09,0,0,1,564,357c.14-.07.76.91,1.37,2.19A6.11,6.11,0,0,1,566.25,361.64Z"/><path class="cls-5" d="M557.58,371.53c-.12-.11.37-.87,1.09-1.7s1.41-1.43,1.53-1.33-.37.87-1.09,1.7S557.7,371.63,557.58,371.53Z"/><path class="cls-5" d="M555.76,353.57c0,.16-.82.15-1.77,0s-1.69-.43-1.66-.59.82-.14,1.76,0S555.79,353.41,555.76,353.57Z"/></g></g></svg>