<svg xmlns="http://www.w3.org/2000/svg" viewBox="0 0 700.91 432.53"><defs><style>.cls-1{fill:#e0e0e0;}.cls-2{fill:#fafafa;}.cls-3{fill:#ebebeb;}.cls-4{fill:#f5f5f5;}.cls-5{fill:#263238;}.cls-6{fill:#fff;}.cls-7{fill:#ff725e;}.cls-8{opacity:0.3;}.cls-9{fill:#455a64;}.cls-10{opacity:0.1;}.cls-11{opacity:0.2;}.cls-12{opacity:0.4;}.cls-13{fill:#8e4842;}.cls-14{fill:#b2655f;}.cls-15{fill:#ffbe9d;}.cls-16{opacity:0.5;}.cls-17{fill:#eb996e;}</style></defs><g id="Camada_2" data-name="Camada 2"><g id="Background_Complete" data-name="Background Complete"><path class="cls-1" d="M179.9,46.6H133.83V.53H179.9Zm-45.07-1H178.9V1.53H134.83Z"/><path class="cls-1" d="M179.4,1c.1.1-9.9,10.27-22.35,22.72S134.43,46.2,134.33,46.1s9.9-10.27,22.35-22.72S179.3.92,179.4,1Z"/><path class="cls-1" d="M177.06,46.39a3.09,3.09,0,0,1-.4-.47c-.28-.37-.64-.83-1.07-1.41-.92-1.23-2.27-3-4-5.17C168.25,35,163.43,29.12,157.75,23S146.58,11.51,142.52,7.8c-2-1.86-3.68-3.34-4.84-4.36l-1.32-1.18a3.46,3.46,0,0,1-.44-.44,2.57,2.57,0,0,1,.51.36l1.38,1.11c1.2,1,2.9,2.41,5,4.24,4.12,3.64,9.65,8.89,15.36,15.07s10.49,12.11,13.79,16.51c1.66,2.2,3,4,3.83,5.28l1,1.47A2.35,2.35,0,0,1,177.06,46.39Z"/><path class="cls-1" d="M682.15,170.83H636.07V124.75h46.08Zm-45.08-1h44.08V125.75H637.07Z"/><path class="cls-1" d="M681.65,125.25c.1.1-9.91,10.28-22.35,22.72s-22.63,22.46-22.73,22.36,9.91-10.28,22.36-22.72S681.55,125.15,681.65,125.25Z"/><path class="cls-1" d="M679.31,170.62a4,4,0,0,1-.4-.47l-1.08-1.41c-.92-1.24-2.27-3-4-5.18-3.37-4.34-8.19-10.21-13.88-16.38S648.82,135.74,644.77,132c-2-1.86-3.69-3.35-4.84-4.36l-1.32-1.18a3.46,3.46,0,0,1-.44-.44,2.52,2.52,0,0,1,.5.36l1.39,1.11c1.19,1,2.89,2.41,5,4.23,4.13,3.65,9.66,8.9,15.36,15.08s10.49,12.1,13.8,16.51c1.65,2.2,3,4,3.83,5.28l1,1.47A3.15,3.15,0,0,1,679.31,170.62Z"/><path class="cls-1" d="M52.81,241.56H6.74V195.48H52.81Zm-45.07-1H51.81V196.48H7.74Z"/><path class="cls-1" d="M52.31,196c.11.1-9.9,10.28-22.35,22.72S7.34,241.16,7.24,241.06s9.9-10.28,22.35-22.73S52.21,195.88,52.31,196Z"/><path class="cls-1" d="M50,241.35a4,4,0,0,1-.4-.47l-1.07-1.41c-.92-1.24-2.27-3-4-5.18-3.38-4.34-8.2-10.21-13.88-16.38s-11.17-11.44-15.23-15.15c-2-1.86-3.68-3.35-4.84-4.36l-1.32-1.18a2.56,2.56,0,0,1-.44-.45,3.26,3.26,0,0,1,.51.36l1.38,1.12c1.2,1,2.9,2.41,5,4.23,4.12,3.65,9.65,8.9,15.36,15.07s10.49,12.11,13.79,16.52c1.66,2.2,3,4,3.83,5.28l1,1.46A2.26,2.26,0,0,1,50,241.35Z"/><path class="cls-1" d="M609.22,332.06a34.26,34.26,0,0,0-14.66-5c-2.39-.25-5-.18-6.93,1.27a1.45,1.45,0,0,0-.71,1.27,1.57,1.57,0,0,0,.68.87c6,4.54,15,5.12,21.62,1.63"/><path class="cls-1" d="M608.84,331.65a71.48,71.48,0,0,1-9.46-8.33,24,24,0,0,1-5.94-11,4.45,4.45,0,0,1,.47-3.67c7.55,5.89,13.47,13.51,14.93,23"/><path class="cls-1" d="M609.14,332a34.16,34.16,0,0,1,.18-12.43,16.75,16.75,0,0,1,6.61-10.25c1.31,3,.75,6.55-.17,9.74a47.57,47.57,0,0,1-6.56,13.82"/><path class="cls-1" d="M616.54,345.26c-4.49.54-8.4,2.91-11.76,5.95a22.23,22.23,0,0,0-6.72,11.53c4.41-.27,8.14-3.37,10.85-6.85s4.59-7.31,7.56-10.56"/><path class="cls-1" d="M618.14,347.38A29,29,0,0,1,621.49,320c2.56,9.1,1.62,19.38-3.35,27.42"/><path class="cls-1" d="M627.91,359a21,21,0,0,0-20,11.54,1.57,1.57,0,0,0-.13,1.57,1.49,1.49,0,0,0,1.33.39c3.95-.26,7.45-2.63,10.34-5.34s5.4-5.83,8.59-8.17"/><path class="cls-1" d="M627.6,358.38a37.34,37.34,0,0,1-.37-20.85c.73-2.68,2-5.51,4.45-6.77a.68.68,0,0,1,1.11.38,12.62,12.62,0,0,1,1.05,6,37.62,37.62,0,0,1-.94,6.06c-.78,3.7-1.2,7.68-3.23,10.87a23.75,23.75,0,0,0-1.29,2.38c-.38.82-.38,1.1-.74,1.75"/><path class="cls-1" d="M653.47,362.23c-1.92-7.29.11-16.12,4.71-22.1.34-.44.78-.91,1.34-.86.84.08,1.06,1.21,1,2.05a39.92,39.92,0,0,1-7.07,20.91"/><path class="cls-1" d="M655.8,363.83c8.85,2.3,19,.06,26.38-5.37a21.37,21.37,0,0,0-14.28-1.75c-4.77,1.09-9.13,3.23-12.1,7.12"/><path class="cls-1" d="M657.77,359c5-8.08,14.46-13.36,23.94-13.84-1.09,3.85-4.26,6.85-7.83,8.66s-7.56,2.59-11.5,3.36c-1.53.29-3.62.62-4.61,1.82"/><path class="cls-1" d="M654,335.42a69.8,69.8,0,0,0,3.06-14c.37-4.78-.31-9.77-2.79-13.87-4.63,9-5.1,19.44-.41,28.37"/><path class="cls-1" d="M669.56,327.54c5.42-9.85,16.47-17.71,27.66-18.82-4.32,10.75-16.09,19-27.66,18.82"/><path class="cls-1" d="M666.15,329.47c8.08,1.23,15,6.39,22.52,9.52a10,10,0,0,0,5.09,1,4,4,0,0,0,2.49-7,11.09,11.09,0,0,0-3.7-2.24c-8.22-3.42-17-3.51-25.71-1.43"/><path class="cls-1" d="M661.47,335.14c1.83.52,2.46,1.47,3.91,2.7a42.08,42.08,0,0,0,17.07,8.77c.65.16,1.51.23,1.83-.36s-.07-1.14-.44-1.6a23.6,23.6,0,0,0-10.31-7c-3.94-1.46-7.35-3.23-12.06-2.85"/><path class="cls-1" d="M656.2,300.91A32.28,32.28,0,0,0,681,309.33a1.66,1.66,0,0,0,1.13-.4c.62-.68-.13-1.73-.85-2.29-7.29-5.68-16.11-8-25-5.73"/><path class="cls-1" d="M662.45,298.62a34.54,34.54,0,0,1,30.92-5.1A24.57,24.57,0,0,1,678.63,300a46.51,46.51,0,0,1-16.18-1.36"/><path class="cls-1" d="M660,282.89c-.72-7.27-.25-13-.76-20.31,0-.59-.16-1.29-.71-1.5-.76-.29-1.39.64-1.64,1.42a23.24,23.24,0,0,0,3.1,20.23"/><path class="cls-1" d="M659.44,283.69a42.88,42.88,0,0,0,12-11.7c2.37-3.26,4.38-7.16,3.84-11.15a11.51,11.51,0,0,0-8.69,4.31,24.38,24.38,0,0,0-4.43,8.91c-1,3.2-1.63,6.49-2.77,9.63"/><path class="cls-1" d="M671.27,280.4a96.75,96.75,0,0,0,29.64-17.47c-3.54-1.43-7.59-.57-11.13.86a35.08,35.08,0,0,0-18.66,16.54"/><path class="cls-1" d="M662.77,287.67c5.47.6,11,1,16.46.08s10.37-3,15.36-5.11a1.78,1.78,0,0,0,1-.79,1.19,1.19,0,0,0-.37-1.31,3.12,3.12,0,0,0-1.31-.62c-5.42-1.51-11.27-.8-16.6,1a76.21,76.21,0,0,0-14.58,6.75"/><path class="cls-1" d="M631.53,301.15c-3.73-7.53-3.49-16.32-.26-24.09,2.27,3.46,2.54,7.87,2.13,12s-1.67,8.35-1.75,12.49"/><path class="cls-1" d="M616.62,293.63a33.65,33.65,0,0,0-25,10.64,23.37,23.37,0,0,0,13.67-2.53A69.5,69.5,0,0,0,617,293.89"/><path class="cls-1" d="M606.6,290.28c-4.56-.37-9-.93-13.33.41a15.93,15.93,0,0,0-10.16,8.62A24.07,24.07,0,0,0,595.6,297a72.59,72.59,0,0,0,11-6.67"/><path class="cls-1" d="M621.44,290.44c-4.1-2.69-8.31-5.43-13.09-6.54s-10.31-.29-13.64,3.31c3.87,2.27,8.56,2.53,13,2.53s10-.05,14.2,1.44"/><path class="cls-1" d="M621.46,290.65c-7-6.88-9.67-19.25-6.85-28.66a43.61,43.61,0,0,1,6.85,28.66"/><path class="cls-1" d="M640.74,271.14c1.33-3.07,2.26-6.3,3.44-9.43a27.33,27.33,0,0,1,4.9-8.69,13,13,0,0,1,8.69-4.5,35,35,0,0,1-16.86,22.67"/><path class="cls-1" d="M637.25,275.21c-2.18-3-4.71-7.1-7.68-9.35s-6.83-3.61-10.45-2.74a24.35,24.35,0,0,0,18.13,12.09"/><path class="cls-1" d="M638,271.4a52.3,52.3,0,0,1-3.46-11.21,17.49,17.49,0,0,1,1.76-11.39c3.85,7.28,5.08,15.09,1.9,22.68"/><path class="cls-1" d="M640.78,248.8c2.18-7.21,8.78-12.52,15.91-15a6,6,0,0,1,2.79-.41,2.41,2.41,0,0,1,2.06,1.71c.26,1.23-.75,2.33-1.71,3.14a54.15,54.15,0,0,1-19.05,10.52"/><path class="cls-1" d="M640.86,242.91c.27-4.65.56-9.37,2.08-13.78s4.42-8.54,8.67-10.47c.72,4.7-1.36,9.37-3.85,13.41s-5.52,7.86-7,12.37"/><path class="cls-1" d="M640.74,246.11c-1.8-5.26-2-11.94-5.13-16.52-2.2-3.2-5.73-5.38-7.62-8.77a13.33,13.33,0,0,0,.44,10,29.15,29.15,0,0,0,5.82,8.34c2.33,2.48,4.33,4.36,6.49,7"/><path class="cls-1" d="M640.78,400.9c-.14,0-.26-35.07-.27-78.31s.09-78.32.23-78.32.26,35.06.27,78.32S640.92,400.9,640.78,400.9Z"/><path class="cls-1" d="M671.42,295.86a6.9,6.9,0,0,1-1.32.5l-3.63,1.22c-3.06,1-7.26,2.55-11.82,4.42s-8.77,3.51-11.2,5.62a8.12,8.12,0,0,0-2.25,3c-.35.83-.41,1.33-.46,1.32a1.3,1.3,0,0,1,0-.37,5.4,5.4,0,0,1,.26-1,7.9,7.9,0,0,1,2.19-3.17,19.86,19.86,0,0,1,4.86-3c1.95-.91,4.1-1.86,6.39-2.8,4.57-1.87,8.81-3.33,11.9-4.29,1.55-.48,2.81-.84,3.68-1.07A8.16,8.16,0,0,1,671.42,295.86Z"/><path class="cls-1" d="M681.46,271.19s-.11.15-.37.4L680,272.64l-4.2,3.82-14,12.45c-5.46,4.86-10.18,9.5-13.44,13-1.64,1.75-2.93,3.19-3.81,4.2-.41.47-.74.86-1,1.16a2.44,2.44,0,0,1-.38.39s.09-.17.3-.45.52-.7.94-1.22c.83-1.05,2.09-2.54,3.69-4.32a176.74,176.74,0,0,1,13.37-13.13c5.48-4.85,10.46-9.2,14.08-12.34l4.31-3.69,1.19-1A2.51,2.51,0,0,1,681.46,271.19Z"/><path class="cls-1" d="M655.9,293.85c-.15-.07,1-2.7,2.13-6s1.69-6.13,1.83-6.11a20.71,20.71,0,0,1-1.35,6.28,39.81,39.81,0,0,1-1.7,4.21A6.48,6.48,0,0,1,655.9,293.85Z"/><path class="cls-1" d="M640.81,315.07a6,6,0,0,1-.84-1l-2.16-2.76c-1.8-2.34-4.31-5.57-7.11-9.1s-5.38-6.7-7.25-9l-2.2-2.72a5.87,5.87,0,0,1-.76-1,6.68,6.68,0,0,1,.91.91c.56.61,1.35,1.5,2.32,2.62,1.94,2.24,4.57,5.38,7.38,8.92s5.26,6.8,7,9.2c.87,1.19,1.56,2.17,2,2.86A6.41,6.41,0,0,1,640.81,315.07Z"/><path class="cls-1" d="M634.09,306.45a12.51,12.51,0,0,1-2.81-5.27,14.81,14.81,0,0,1-.64-5.32l.22,0c-.1.41-.17.62-.21.62s0-.24,0-.65h.22a25,25,0,0,0,.9,5.17A41.05,41.05,0,0,0,634.09,306.45Z"/><path class="cls-1" d="M625.42,295.53a10,10,0,0,0-2-1.14A13.19,13.19,0,0,0,618,294a34,34,0,0,0-5.5.89,16.81,16.81,0,0,1-2.26.54,8.1,8.1,0,0,1,2.17-.89,25.64,25.64,0,0,1,5.55-1.05,11.88,11.88,0,0,1,5.63.61A3.56,3.56,0,0,1,625.42,295.53Z"/><path class="cls-1" d="M623.36,292.89c0,.08-1.14-.46-3-1.1a30.37,30.37,0,0,0-15.17-1.15c-1.94.35-3.12.71-3.14.62a3,3,0,0,1,.8-.34,19.85,19.85,0,0,1,2.27-.63,26.62,26.62,0,0,1,15.36,1.17,17.66,17.66,0,0,1,2.15,1C623.12,292.7,623.38,292.86,623.36,292.89Z"/><path class="cls-1" d="M640.74,281.71a62.89,62.89,0,0,1-2.19-7.63,64,64,0,0,1-1.71-7.75A61.77,61.77,0,0,1,639,274,59.76,59.76,0,0,1,640.74,281.71Z"/><path class="cls-1" d="M640.88,281.71a36.85,36.85,0,0,0-2.43-4.57,20,20,0,0,0-3.58-3.69,3.21,3.21,0,0,1,1.38.71,11,11,0,0,1,2.61,2.69A10,10,0,0,1,640.88,281.71Z"/><path class="cls-1" d="M640.78,382.2c-.06,0-.16-.84-.55-2.33a33.78,33.78,0,0,0-2.35-6.07c-2.42-4.95-6.83-11.23-12.43-17.51-2.78-3.17-5.47-6.17-7.75-9a64.13,64.13,0,0,1-5.55-8,38.79,38.79,0,0,1-2.8-5.93c-.25-.73-.44-1.3-.55-1.7a2.52,2.52,0,0,1-.14-.6s.3.8.88,2.23a41.59,41.59,0,0,0,2.92,5.82,66.49,66.49,0,0,0,5.6,7.89c2.29,2.83,5,5.81,7.77,9,5.62,6.31,10,12.66,12.38,17.7a30.86,30.86,0,0,1,2.21,6.18c.16.75.27,1.35.31,1.75A2.64,2.64,0,0,1,640.78,382.2Z"/><path class="cls-1" d="M668.47,350.93a12.59,12.59,0,0,1-1.45.81,32.44,32.44,0,0,0-3.77,2.49,43.75,43.75,0,0,0-4.94,4.51c-1.74,1.83-3.52,4-5.35,6.24-3.64,4.58-7.06,8.63-9.1,11.86-1,1.6-1.79,3-2.28,3.9a11.32,11.32,0,0,1-.8,1.46s0-.14.13-.41.26-.65.49-1.13a35.94,35.94,0,0,1,2.16-4c2-3.31,5.37-7.42,9-12,1.82-2.29,3.63-4.42,5.4-6.25A39.32,39.32,0,0,1,663,354a25.83,25.83,0,0,1,3.88-2.38c.49-.24.88-.39,1.14-.5S668.46,350.91,668.47,350.93Z"/><path class="cls-1" d="M669,361.08a22.41,22.41,0,0,1-3.07.44,41.06,41.06,0,0,0-7.27,1.43,22.08,22.08,0,0,0-6.52,3.42c-1.5,1.16-2.21,2.12-2.27,2.07s.12-.28.45-.71a11.7,11.7,0,0,1,1.6-1.64,19.69,19.69,0,0,1,6.58-3.62,33.36,33.36,0,0,1,7.4-1.31A16.78,16.78,0,0,1,669,361.08Z"/><path class="cls-1" d="M650.77,367.32c-.16-.09,1.22-2.2,2.29-5s1.25-5.38,1.43-5.35a5.19,5.19,0,0,1,0,1.65,17.83,17.83,0,0,1-.9,3.87,18.6,18.6,0,0,1-1.78,3.56C651.22,366.86,650.83,367.36,650.77,367.32Z"/><path class="cls-1" d="M677.43,323.69a1.77,1.77,0,0,1-.49.26l-1.44.66c-.63.27-1.4.61-2.26,1.07s-1.88.9-2.93,1.54l-1.67.95c-.58.33-1.16.73-1.77,1.11-1.23.75-2.47,1.67-3.79,2.61A65.64,65.64,0,0,0,648.49,347c-.89,1.35-1.77,2.62-2.48,3.87-.36.63-.73,1.22-1,1.81l-.89,1.7c-.6,1.07-1,2.1-1.44,3s-.74,1.66-1,2.3l-.61,1.46a2,2,0,0,1-.24.5,1.82,1.82,0,0,1,.15-.53c.13-.4.31-.89.52-1.5a24.74,24.74,0,0,1,.91-2.34c.39-.9.8-1.94,1.38-3l.87-1.73c.31-.6.68-1.2,1-1.83.7-1.27,1.57-2.56,2.46-3.93a62.2,62.2,0,0,1,14.7-15.2c1.33-.94,2.59-1.86,3.84-2.59.62-.38,1.2-.77,1.79-1.1l1.7-.93c1.07-.61,2.1-1,3-1.48s1.66-.75,2.3-1l1.49-.57A2.73,2.73,0,0,1,677.43,323.69Z"/><path class="cls-1" d="M655.52,338.37a3.61,3.61,0,0,1,1.21-1.79,7.61,7.61,0,0,1,4.85-1.86,13,13,0,0,1,5.11,1,7,7,0,0,1,1.93.93,11.13,11.13,0,0,1-2-.6,15.51,15.51,0,0,0-5-.83,7.92,7.92,0,0,0-4.64,1.63A15.27,15.27,0,0,0,655.52,338.37Z"/><path class="cls-1" d="M652.25,341.75a18.32,18.32,0,0,0,1.37-4.48,17.7,17.7,0,0,0-.31-4.68c.06,0,.34.45.57,1.3a9.31,9.31,0,0,1,.25,3.44,9.12,9.12,0,0,1-1,3.28C652.67,341.39,652.29,341.79,652.25,341.75Z"/><path class="cls-1" d="M616.56,387.23c.76,13.4,4.79,27,11,40.8h27c5.93-13.64,9.69-27.24,10.35-40.8Z"/><path class="cls-2" d="M660.55,408.91c0,.14-8.9.26-19.86.26s-19.86-.12-19.86-.26,8.89-.25,19.86-.25S660.55,408.77,660.55,408.91Z"/><path class="cls-2" d="M659.94,413.77c0,.14-8.33.25-18.61.25s-18.62-.11-18.62-.25,8.33-.26,18.62-.26S659.94,413.63,659.94,413.77Z"/><path class="cls-2" d="M628,396a77.5,77.5,0,0,1,0,12.44A77.5,77.5,0,0,1,628,396Z"/><path class="cls-2" d="M642.47,396a79.89,79.89,0,0,1,0,12.88,83.07,83.07,0,0,1,0-12.88Z"/><path class="cls-2" d="M656.06,395.92a86.45,86.45,0,0,1,0,13.14,83.14,83.14,0,0,1,0-13.14Z"/><path class="cls-2" d="M664.07,396c0,.14-10.43.25-23.3.25s-23.29-.11-23.29-.25,10.43-.26,23.29-.26S664.07,395.89,664.07,396Z"/><path class="cls-1" d="M646.21,73.27h-7.37V71.8h7.37Zm-14.75,0h-7.38V71.8h7.38Zm-14.75,0h-7.38V71.8h7.38Zm-14.75,0h-7.38V71.8H602Zm45-1.62h-1.48V64.27H647Zm-57.38-.74h-1.48V63.54h1.48ZM647,56.9h-1.48V49.52H647Zm-57.38-.74h-1.48V48.79h1.48Zm57.38-14h-1.48V34.77H647Zm-57.38-.74h-1.48V34h1.48ZM647,27.4h-1.48V20H647Zm-57.38-.74h-1.48V19.28h1.48ZM643.7,15.89h-7.37V14.42h7.37Zm-14.75,0h-7.37V14.42H629Zm-14.75,0h-7.37V14.42h7.37Zm-14.75,0h-7.37V14.42h7.37Z"/><path class="cls-1" d="M589.32,21.31a5.43,5.43,0,1,1,5.43-5.42A5.42,5.42,0,0,1,589.32,21.31Zm0-9.38a4,4,0,1,0,4,4A4,4,0,0,0,589.32,11.93Z"/><path class="cls-1" d="M645.91,21.31a5.43,5.43,0,1,1,5.43-5.42A5.42,5.42,0,0,1,645.91,21.31Zm0-9.38a4,4,0,1,0,4,4A4,4,0,0,0,645.91,11.93Z"/><path class="cls-1" d="M589.32,79.5a5.43,5.43,0,1,1,5.43-5.42A5.42,5.42,0,0,1,589.32,79.5Zm0-9.37a4,4,0,1,0,4,4A4,4,0,0,0,589.32,70.13Z"/><path class="cls-1" d="M645.91,79.5a5.43,5.43,0,1,1,5.43-5.42A5.42,5.42,0,0,1,645.91,79.5Zm0-9.37a4,4,0,1,0,4,4A4,4,0,0,0,645.91,70.13Z"/><path class="cls-1" d="M616.33,33.36H605.71v-5h27.18v5H622.28v27h-5.95Z"/><path class="cls-1" d="M26.91,92.13H11.49L9.66,96.38a9.41,9.41,0,0,0-.9,3.5,2.91,2.91,0,0,0,1.48,2.71,12.48,12.48,0,0,0,4.28.77v1.19H0v-1.19a6.46,6.46,0,0,0,3.86-2A25.64,25.64,0,0,0,7.6,94.83L23.21,60h.61L39.56,95.8c1.5,3.39,2.74,5.52,3.7,6.4a5,5,0,0,0,3.09,1.16v1.19H25.24v-1.19h.87a6.64,6.64,0,0,0,3.57-.71,1.71,1.71,0,0,0,.71-1.48,4,4,0,0,0-.2-1.19c0-.19-.36-1-1-2.41Zm-1.09-2.39-6.51-15-6.69,15Z"/><path class="cls-3" d="M55.18,352.09c4.15-2.14,9-2.42,13.65-1.65,2.47.41,5.06,1.15,6.74,3s2,5.13.07,6.73a6.51,6.51,0,0,1-4.25,1.08c-3.61-.05-7.61-.68-10.49,1.49-1.65,1.24-2.74,3.3-4.71,3.9a4.63,4.63,0,0,1-5.11-2.27,7.92,7.92,0,0,1-.58-5.86A9,9,0,0,1,55.18,352.09Z"/><path class="cls-3" d="M45.67,333.74c2.54,3.62,7.47,2.42,9.76.21s3.25-5.42,4.13-8.48c2-7,4-14.32,2.55-21.44a12,12,0,0,0-2.74-5.82,6.21,6.21,0,0,0-5.9-2c-2.48.65-4,3.09-5.15,5.41a51.19,51.19,0,0,0-5,21.92c0,3.54.41,7.24,2.4,10.16"/><path class="cls-3" d="M38.7,338.94c2.76-3.27,3.28-8,2-12.14a23.25,23.25,0,0,0-7.19-10.43,38.72,38.72,0,0,0-12.87-7.6,13.76,13.76,0,0,0-5.79-1A6.06,6.06,0,0,0,10,310.73c-1.36,2.58-.06,5.72,1.35,8.27a97.16,97.16,0,0,0,8.45,12.88c2.54,3.27,5.44,6.49,9.3,8s7.88,1.3,9.93-1.38"/><path class="cls-1" d="M45.5,388.42a7.88,7.88,0,0,0,.23-1.64c.11-1.2.26-2.71.44-4.5a63.76,63.76,0,0,1,1-6.59,50.75,50.75,0,0,1,2.39-7.79,28.48,28.48,0,0,1,4-7,15,15,0,0,1,5-4.18,14,14,0,0,1,4.23-1.31,7.53,7.53,0,0,0,1.64-.24,7.13,7.13,0,0,0-1.66,0,12.72,12.72,0,0,0-4.42,1.15,14.91,14.91,0,0,0-5.3,4.21,28.24,28.24,0,0,0-4.12,7.19,47.46,47.46,0,0,0-2.38,7.91,55.37,55.37,0,0,0-.87,6.68c-.15,1.91-.2,3.45-.23,4.52A7.39,7.39,0,0,0,45.5,388.42Z"/><path class="cls-1" d="M45.81,385a3.18,3.18,0,0,0,0-.76V382c0-1.89,0-4.64.09-8,.17-6.78.76-14.07,1.88-24.36,1.07-9.67,2.5-20.93,4-28.25.32-1.67.65-3.16.95-4.47s.55-2.45.79-3.37.38-1.57.51-2.12a2.68,2.68,0,0,0,.13-.76,3.35,3.35,0,0,0-.26.72l-.64,2.09c-.28.91-.57,2-.9,3.35s-.7,2.8-1.05,4.46a247.44,247.44,0,0,0-4.22,26.21C46,357.79,45.51,367.18,45.46,374c0,3.4,0,6.15.12,8,.06.89.1,1.61.14,2.18A2.47,2.47,0,0,0,45.81,385Z"/><path class="cls-1" d="M45.85,366.86a14.22,14.22,0,0,0,0-2.28c-.09-1.47-.29-3.59-.7-6.19a82.2,82.2,0,0,0-2-9,74.92,74.92,0,0,0-3.77-10.67,57,57,0,0,0-11.07-17.23,26.54,26.54,0,0,0-2.61-2.42c-.39-.34-.75-.68-1.11-.94l-1-.7a13.9,13.9,0,0,0-1.92-1.23,68.15,68.15,0,0,1,6.3,5.62A60,60,0,0,1,38.73,339a83.44,83.44,0,0,1,3.79,10.57,89.75,89.75,0,0,1,2.14,8.92c.48,2.58.75,4.68.91,6.13A16.57,16.57,0,0,0,45.85,366.86Z"/><polygon class="cls-1" points="28.36 398.8 30.17 423.65 62.1 423.65 63.91 398.8 28.36 398.8"/><rect class="cls-1" x="25.27" y="389" width="42.45" height="9.8"/><polygon class="cls-3" points="25.27 422.7 25.27 425.41 27.27 425.41 67.02 425.41 67.02 422.7 25.27 422.7"/><polygon class="cls-1" points="29.22 430.19 27.27 425.41 65.5 425.41 63.22 430.19 29.22 430.19"/><path class="cls-4" d="M63.32,406.92l-.15.23c-.13.16-.28.37-.48.63-.45.58-1.07,1.38-1.86,2.38l-.08.1-.08-.11-4.57-6.32h.26l-4.5,6.37-.14.2-.15-.18-5.34-6.35h.31l-.3.37c-1.65,2.08-3.25,4.08-4.77,6l-.16.2-.14-.2-4.5-6.37h.26l-5.54,6.31-.1.12-.08-.13-1.73-2.92c-.19-.31-.33-.57-.45-.77s-.14-.27-.13-.28a2.38,2.38,0,0,1,.18.25l.49.74L31.4,410l-.18,0,5.46-6.39.13-.16.13.17L41.48,410h-.31l4.76-6c.1-.13.2-.26.3-.37l.15-.19.15.18L51.85,410h-.29l4.54-6.33.13-.19.13.19L60.84,410h-.17l1.94-2.32.52-.6C63.25,407,63.31,406.91,63.32,406.92Z"/><path class="cls-4" d="M64.35,398.63c0,.11-8,.2-17.86.2s-17.87-.09-17.87-.2,8-.2,17.87-.2S64.35,398.52,64.35,398.63Z"/><path class="cls-4" d="M66,425.68c0,.11-8.7.2-19.42.2s-19.42-.09-19.42-.2,8.7-.2,19.42-.2S66,425.57,66,425.68Z"/></g><g id="Floor"><path class="cls-5" d="M687.27,430.11c0,.14-152.33.26-340.19.26s-340.21-.12-340.21-.26,152.29-.26,340.21-.26S687.27,430,687.27,430.11Z"/></g><g id="Screen"><polygon class="cls-6" points="514.41 0.26 210.47 0.26 210.47 283.9 345.8 283.9 345.8 308.96 367.96 283.9 514.41 283.9 514.41 0.26"/><rect class="cls-1" x="209.98" y="0.26" width="304.91" height="20.56"/><path class="cls-6" d="M226.39,11.21a4.47,4.47,0,1,1-4.47-4.47A4.48,4.48,0,0,1,226.39,11.21Z"/><path class="cls-6" d="M239.26,11.21a4.47,4.47,0,1,1-4.47-4.47A4.48,4.48,0,0,1,239.26,11.21Z"/><path class="cls-6" d="M252.13,11.21a4.48,4.48,0,1,1-4.48-4.47A4.49,4.49,0,0,1,252.13,11.21Z"/><path class="cls-5" d="M514.41,284.14c0-1.85-.08-112.84-.22-283.88l.22.22L210.47.52l.26-.26V18c0,95.7,0,186.2,0,266.1l-.23-.23,135.32,0h.2v.19c0,8.82,0,16.93,0,24.82l-.32-.13,22.16-24.4.05-.05h.07l146.47-.24-146.47.57.13,0-22.14,24.42-.32.35V309c0-7.89,0-16,0-24.82l.19.2-135.32,0h-.24v-.24c0-79.9,0-170.4,0-266.1,0-6.09,0-12.16,0-17.78V0h.26L514.41,0h.22V.26C514.5,171.3,514.41,282.29,514.41,284.14Z"/><rect class="cls-1" x="226.99" y="61.92" width="46.71" height="6.56"/><path class="cls-5" d="M320.24,85.2c0,.14-20.84.26-46.54.26s-46.55-.12-46.55-.26,20.84-.27,46.55-.27S320.24,85.05,320.24,85.2Z"/><path class="cls-5" d="M292.37,112.77c0,.15-14.6.26-32.61.26s-32.61-.11-32.61-.26,14.6-.26,32.61-.26S292.37,112.63,292.37,112.77Z"/><path class="cls-5" d="M320.24,97.88c0,.15-20.84.26-46.54.26s-46.55-.11-46.55-.26,20.84-.26,46.55-.26S320.24,97.74,320.24,97.88Z"/><path class="cls-7" d="M354.5,246.08H317V208.54H354.5Zm-36.55-1H353.5V209.54H318Z"/><path class="cls-7" d="M283.87,246.08H246.33V208.54h37.54Zm-36.54-1h35.54V209.54H247.33Z"/><path class="cls-5" d="M285.43,254.4c0,.14-9.1.26-20.33.26s-20.33-.12-20.33-.26,9.1-.26,20.33-.26S285.43,254.26,285.43,254.4Z"/><path class="cls-5" d="M281.93,262.73c0,.14-7.9.26-17.63.26s-17.64-.12-17.64-.26,7.9-.26,17.64-.26S281.93,262.59,281.93,262.73Z"/><path class="cls-5" d="M357.08,254.4c0,.14-9.11.26-20.34.26s-20.33-.12-20.33-.26,9.1-.26,20.33-.26S357.08,254.26,357.08,254.4Z"/><path class="cls-5" d="M353.57,262.73c0,.14-7.89.26-17.63.26s-17.63-.12-17.63-.26,7.89-.26,17.63-.26S353.57,262.59,353.57,262.73Z"/><path class="cls-7" d="M354,209c.1.1-8,8.36-18.09,18.45s-18.36,18.2-18.46,18.09,8-8.36,18.09-18.45S353.9,208.93,354,209Z"/><path class="cls-7" d="M352.1,245.82a1.92,1.92,0,0,1-.33-.38l-.88-1.13c-.75-1-1.85-2.43-3.22-4.19-2.75-3.51-6.66-8.27-11.27-13.27s-9-9.28-12.33-12.29c-1.64-1.51-3-2.72-3.91-3.55l-1.07-1c-.24-.22-.36-.35-.34-.36a1.93,1.93,0,0,1,.41.28l1.13.9c1,.78,2.35,1.94,4,3.42A173.6,173.6,0,0,1,348,239.9c1.34,1.78,2.39,3.25,3.09,4.29l.8,1.19C352,245.66,352.12,245.81,352.1,245.82Z"/><path class="cls-7" d="M282.6,211.26c.1.1-7.92,7.83-17.9,17.26s-18.17,17-18.27,16.88,7.92-7.83,17.91-17.26S282.5,211.15,282.6,211.26Z"/><path class="cls-7" d="M282.19,245.41a2,2,0,0,1-.35-.37l-.92-1.12c-.78-1-1.93-2.4-3.37-4.13-2.88-3.46-7-8.14-11.8-13s-9.45-9.06-12.87-12c-1.71-1.46-3.11-2.64-4.08-3.44l-1.11-.93q-.37-.33-.36-.36a2.13,2.13,0,0,1,.43.27l1.17.87c1,.75,2.44,1.88,4.19,3.31a170.85,170.85,0,0,1,24.71,25.06c1.41,1.77,2.52,3.22,3.25,4.24l.85,1.18C282.12,245.25,282.21,245.4,282.19,245.41Z"/><path class="cls-7" d="M486.66,245.53H449.11V208h37.55Zm-36.55-1h35.55V209H450.11Z"/><path class="cls-7" d="M421,245.53H383.49V208H421Zm-36.55-1H420V209H384.49Z"/><path class="cls-5" d="M422.6,253.84c0,.14-9.1.26-20.33.26s-20.34-.12-20.34-.26,9.11-.26,20.34-.26S422.6,253.7,422.6,253.84Z"/><path class="cls-5" d="M419.1,262.17c0,.14-7.9.26-17.64.26s-17.63-.12-17.63-.26,7.89-.26,17.63-.26S419.1,262,419.1,262.17Z"/><path class="cls-5" d="M489.23,253.84c0,.14-9.1.26-20.33.26s-20.33-.12-20.33-.26,9.1-.26,20.33-.26S489.23,253.7,489.23,253.84Z"/><path class="cls-5" d="M485.73,262.17c0,.14-7.9.26-17.63.26s-17.64-.12-17.64-.26,7.9-.26,17.64-.26S485.73,262,485.73,262.17Z"/><path class="cls-7" d="M486.16,208.48c.1.1-8,8.36-18.09,18.45s-18.36,18.2-18.46,18.1,8-8.37,18.09-18.46S486.05,208.38,486.16,208.48Z"/><path class="cls-7" d="M484.26,245.26a2.13,2.13,0,0,1-.34-.38l-.87-1.13c-.75-1-1.85-2.43-3.22-4.19-2.75-3.51-6.66-8.27-11.27-13.27S459.51,217,456.23,214c-1.64-1.51-3-2.72-3.92-3.55l-1.06-1a2,2,0,0,1-.35-.36,1.82,1.82,0,0,1,.42.28c.3.25.67.54,1.13.9,1,.78,2.35,1.95,4,3.42a172.79,172.79,0,0,1,12.47,12.22c4.62,5,8.5,9.82,11.18,13.4,1.34,1.78,2.39,3.25,3.09,4.29l.8,1.19A2.06,2.06,0,0,1,484.26,245.26Z"/><path class="cls-7" d="M419.77,210.7c.1.1-7.92,7.83-17.9,17.26s-18.17,17-18.27,16.88,7.92-7.83,17.91-17.26S419.67,210.59,419.77,210.7Z"/><path class="cls-7" d="M419.36,244.85s-.13-.11-.35-.37l-.92-1.12c-.78-1-1.94-2.39-3.38-4.12-2.87-3.47-7-8.15-11.79-13s-9.45-9-12.87-12c-1.71-1.46-3.11-2.63-4.08-3.43l-1.11-.94c-.25-.22-.38-.34-.36-.36a2.11,2.11,0,0,1,.42.28l1.17.86c1,.75,2.45,1.88,4.19,3.31A170.25,170.25,0,0,1,415,239c1.41,1.77,2.51,3.22,3.25,4.24l.85,1.18C419.29,244.69,419.38,244.84,419.36,244.85Z"/><path class="cls-7" d="M484.73,167.05H357.46V39.79H484.73Zm-126.27-1H483.73V40.79H358.46Z"/><path class="cls-7" d="M478.84,161.16H363.07V45.39H478.84Zm-114.77-1H477.84V46.39H364.07Z"/><polygon class="cls-7" points="365.66 159.59 364.87 158.99 398.92 113.69 422.52 126.79 452.34 81.54 453.18 82.09 422.84 128.12 399.19 114.98 365.66 159.59"/><path class="cls-7" d="M417.07,94.51a15.26,15.26,0,1,1,15.26-15.26A15.27,15.27,0,0,1,417.07,94.51Zm0-29.51a14.26,14.26,0,1,0,14.26,14.25A14.26,14.26,0,0,0,417.07,65Z"/><rect class="cls-7" x="398.11" y="113.39" width="1.88" height="1.88"/><rect class="cls-7" x="421.62" y="126.4" width="1.88" height="1.88"/><rect class="cls-7" x="451.82" y="81.14" width="1.88" height="1.88"/><rect class="cls-7" x="416.13" y="93.07" width="1.88" height="1.88"/><rect class="cls-7" x="416.13" y="63.45" width="1.88" height="1.88"/><rect class="cls-7" x="430.94" y="78.31" width="1.88" height="1.88" transform="translate(352.63 511.13) rotate(-90)"/><rect class="cls-7" x="401.32" y="78.31" width="1.88" height="1.88" transform="translate(323.01 481.52) rotate(-90)"/><rect class="cls-7" x="364.32" y="158.35" width="1.88" height="1.88"/><path class="cls-7" d="M452.76,102.33c-.15,0-.26-8.65-.26-19.31s.11-19.3.26-19.3S453,72.36,453,83,452.9,102.33,452.76,102.33Z"/><path class="cls-7" d="M453.45,63.72a.7.7,0,1,1-.69-.7A.7.7,0,0,1,453.45,63.72Z"/><circle class="cls-7" cx="452.76" cy="102.74" r="0.7"/><path class="cls-1" d="M501.78,190c0,.15-52,.26-116.09.26s-116.1-.11-116.1-.26,52-.26,116.1-.26S501.78,189.88,501.78,190Z"/></g><g id="Photos"><polygon class="cls-2" points="537.51 340 539.16 415.71 456.89 416.87 455.24 341.16 537.51 340"/><path class="cls-5" d="M537.51,340h-.4l-1.15,0-4.47.09-16.84.3-59.41,1,.21-.25c.5,22.53,1.07,48.36,1.68,75.7h0l-.25-.28,82.28-1.11-.19.23c-.46-22.79-.84-41.69-1.1-54.9-.12-6.61-.22-11.8-.29-15.35,0-1.76-.05-3.12-.06-4s0-1.4,0-1.4,0,.45,0,1.35.06,2.26.11,4c.09,3.53.22,8.7.39,15.29.31,13.25.76,32.19,1.3,55v.23h-.2l-82.27,1.2h-.24v-.28h0c-.59-27.33-1.14-53.16-1.63-75.69v-.25h.21l59.55-.72,16.8-.17,4.42,0h1.51Z"/><polygon class="cls-7" points="459.62 413.1 536.12 412.02 534.67 345.85 458.18 346.92 459.62 413.1"/><g class="cls-8"><polygon points="459.62 413.1 485.44 371.59 502.55 397.09 513.48 383.18 536.12 412.02 459.62 413.1"/></g><g class="cls-8"><path d="M508.91,366.68c.08,3.83-2.55,7-5.87,7s-6.1-3-6.18-6.85,2.55-7,5.87-7S508.82,362.85,508.91,366.68Z"/></g><polygon class="cls-2" points="516.93 332.95 518.59 408.66 436.31 409.82 434.66 334.11 516.93 332.95"/><path class="cls-5" d="M516.93,333a3.15,3.15,0,0,1-.4,0l-1.15,0-4.47.1-16.84.3-59.41,1,.21-.25c.5,22.53,1.07,48.36,1.68,75.7h0l-.24-.27,82.27-1.11-.19.23c-.46-22.79-.84-41.69-1.1-54.91-.12-6.61-.22-11.79-.28-15.34,0-1.77,0-3.12-.07-4.05s0-1.41,0-1.41,0,.46.05,1.36.07,2.26.11,4c.09,3.54.22,8.71.39,15.3.31,13.25.76,32.19,1.3,55.05v.23h-.2l-82.27,1.2h-.24v-.28h0c-.58-27.33-1.14-53.16-1.63-75.7v-.24h.21l59.55-.72L511,333l4.43,0h1.5Z"/><polygon class="cls-9" points="439.05 405.01 515.54 403.94 514.09 337.76 437.6 338.84 439.05 405.01"/><polygon class="cls-9" points="439.05 405.01 464.86 363.5 481.98 389 492.9 375.09 515.54 403.94 439.05 405.01"/><path class="cls-9" d="M488.33,358.13c.08,3.83-2.55,7-5.87,7s-6.09-3-6.18-6.85,2.55-7,5.87-7S488.24,354.3,488.33,358.13Z"/><g class="cls-8"><polygon points="439.05 405.01 464.86 363.5 481.98 389 492.9 375.09 515.54 403.94 439.05 405.01"/></g><g class="cls-8"><path d="M488.33,358.13c.08,3.83-2.55,7-5.87,7s-6.09-3-6.18-6.85,2.55-7,5.87-7S488.24,354.3,488.33,358.13Z"/></g><polygon class="cls-2" points="508.01 323.33 509.66 399.04 427.39 400.2 425.74 324.49 508.01 323.33"/><path class="cls-5" d="M508,323.33l-.4,0-1.15,0-4.47.1-16.85.3-59.4,1,.21-.25c.5,22.53,1.07,48.36,1.68,75.7h0l-.25-.27,82.28-1.11-.2.23c-.45-22.79-.83-41.69-1.09-54.91-.13-6.61-.22-11.79-.29-15.34q0-2.66-.06-4.05c0-.92,0-1.41,0-1.41s0,.46.05,1.36.06,2.26.11,4c.09,3.54.22,8.71.38,15.3.32,13.25.77,32.19,1.31,55.05v.22h-.2l-82.28,1.2h-.23v-.27h0c-.59-27.33-1.14-53.16-1.63-75.7v-.24h.21l59.55-.71,16.79-.17,4.43,0H508Z"/><polygon class="cls-7" points="430.12 396.43 506.61 395.35 505.17 329.18 428.68 330.25 430.12 396.43"/><g class="cls-8"><polygon points="430.12 396.43 455.94 354.92 473.05 380.42 483.98 366.5 506.61 395.35 430.12 396.43"/></g><g class="cls-8"><path d="M479.4,350c.09,3.82-2.54,7-5.87,7s-6.09-3-6.17-6.84,2.54-7,5.87-7S479.32,346.18,479.4,350Z"/></g><polygon class="cls-2" points="498.44 333.09 500.22 408.8 411.3 409.95 409.51 334.25 498.44 333.09"/><path class="cls-5" d="M498.44,333.09l-.43,0-1.25,0-4.83.09-18.21.3-64.2,1,.22-.25c.54,22.54,1.16,48.37,1.82,75.7h0l-.27-.27,88.93-1.11-.21.23c-.49-22.8-.9-41.7-1.19-54.91-.13-6.61-.23-11.8-.3-15.35,0-1.76-.06-3.12-.07-4.05s0-1.4,0-1.4,0,.45.05,1.35.07,2.26.12,4c.1,3.54.24,8.71.42,15.29.34,13.25.82,32.2,1.41,55.05V409h-.21l-88.93,1.21h-.25V410h0c-.64-27.34-1.24-53.17-1.76-75.7V334h.23l64.37-.71,18.15-.18,4.79,0h1.63Z"/><polygon class="cls-7" points="414.25 405.15 496.93 404.07 495.37 337.9 412.69 338.97 414.25 405.15"/><g class="cls-8"><polygon points="414.25 405.15 442.16 363.64 460.65 389.14 472.46 375.22 496.93 404.07 414.25 405.15"/></g><g class="cls-8"><path d="M467.52,358.27a6.64,6.64,0,0,1-6.35,7,6.82,6.82,0,0,1-6.67-6.84,6.65,6.65,0,0,1,6.35-7A6.82,6.82,0,0,1,467.52,358.27Z"/></g><rect class="cls-5" x="456.65" y="378.44" width="83.77" height="51.35"/><rect class="cls-9" x="405.48" y="378.44" width="91.83" height="51.35"/></g><g id="Character_1" data-name="Character 1"><polygon class="cls-9" points="118.58 109.64 160.38 109.64 159.66 136.16 126.08 143.81 118.58 109.64"/><path class="cls-7" d="M110.88,394.16l-7.81,18.92s16.61,14.29,15.51,17.93L81.36,417.19l11-30Z"/><g class="cls-8"><path d="M110.88,394.16l-7.81,18.92s16.61,14.29,15.51,17.93L81.36,417.19l11-30Z"/></g><path class="cls-1" d="M92.16,407.2a1.61,1.61,0,0,0-1.69,1.34,1.56,1.56,0,0,0,1.32,1.7,1.71,1.71,0,0,0,1.78-1.44A1.62,1.62,0,0,0,92,407.19"/><path class="cls-5" d="M81.36,417.19l1.22-3,35.23,14.36s1.39,1.34.77,2.44Z"/><path class="cls-5" d="M103.75,413.12c-.08.18-1-.08-2.13.18s-1.87.83-2,.7.52-1.08,1.87-1.36S103.85,413,103.75,413.12Z"/><path class="cls-5" d="M107.05,416.18c0,.19-.92.21-1.82.75s-1.39,1.29-1.57,1.21.09-1.14,1.23-1.79S107.11,416,107.05,416.18Z"/><path class="cls-5" d="M107.54,421.68c-.18,0-.1-1,.74-1.85s1.83-.9,1.85-.72-.7.51-1.38,1.2S107.72,421.73,107.54,421.68Z"/><path class="cls-5" d="M105.05,408.61c-.14.14-.88-.42-1.93-.74s-2-.28-2-.47,1-.55,2.21-.17S105.19,408.5,105.05,408.61Z"/><path class="cls-7" d="M92,397.39,91.39,419s21.71,7.87,22,11.86l-41.86.31-.42-33.64Z"/><path class="cls-1" d="M78.44,417.23a1.71,1.71,0,0,0-1.17,2,1.64,1.64,0,0,0,1.93,1.18,1.83,1.83,0,0,0,1.23-2.09,1.7,1.7,0,0,0-2.15-1"/><path class="cls-5" d="M71.5,432l0-3.26,40.25,0s1.87.8,1.67,2.11Z"/><path class="cls-5" d="M92.07,418.73c0,.21-1,.31-2,1s-1.53,1.53-1.72,1.45.11-1.26,1.34-2S92.11,418.54,92.07,418.73Z"/><path class="cls-5" d="M96.47,420.52c0,.19-.83.55-1.52,1.42s-.88,1.78-1.09,1.78-.34-1.17.54-2.23S96.47,420.32,96.47,420.52Z"/><path class="cls-5" d="M99,425.75c-.18.05-.47-1,0-2.1s1.47-1.57,1.56-1.4-.5.77-.91,1.7S99.21,425.73,99,425.75Z"/><path class="cls-5" d="M91.66,413.8c-.08.19-1-.09-2.18,0s-2,.46-2.16.29.76-.92,2.12-1S91.76,413.64,91.66,413.8Z"/><path class="cls-5" d="M130.5,206.29s17.08,68.93,19.89,91c2,15.4-1.91,25.53-2.36,28.62a8.63,8.63,0,0,1-1,3l-36.88,71.54-25.48-8.84s19.1-57.69,23.28-67l4.7-8.36L75.44,222.11Z"/><path class="cls-5" d="M112.4,221.16c.47,1.89-21.93,112.73-21.93,112.73l2.88,79.4-23.56.64s-12.06-43.27-12.53-68.79,2.41-29.88.32-45.82c-2.2-16.8-15.68-51.41-9.57-74.89,5.11-19.63,18.28-29.08,18.28-29.08Z"/><path class="cls-9" d="M93.37,414a2.66,2.66,0,0,0,0-.41c0-.3,0-.7,0-1.2,0-1.09-.06-2.63-.11-4.61-.12-4.05-.29-9.85-.5-17.06-.48-14.49-1.15-34.58-1.9-57.17v.07c.54-2.71,1.11-5.59,1.7-8.5,4.74-24.15,9-46,12.15-61.88,1.52-7.89,2.76-14.29,3.62-18.76.4-2.19.72-3.9,1-5.11.09-.56.17-1,.23-1.33a2.59,2.59,0,0,0,.06-.45,1.54,1.54,0,0,0-.12.44c-.08.33-.17.76-.3,1.32-.25,1.2-.61,2.9-1.06,5.08-.91,4.46-2.21,10.85-3.81,18.73C101.1,279,96.74,300.82,91.93,325c-.58,2.92-1.16,5.8-1.7,8.51v.07c.83,22.58,1.57,42.68,2.11,57.17.29,7.2.53,13,.69,17.05.1,2,.17,3.52.22,4.61,0,.5,0,.89.07,1.19A1.91,1.91,0,0,0,93.37,414Z"/><path class="cls-9" d="M112.42,314.75c-.15.07,1,2.23,3.33,4a9.31,9.31,0,0,0,4.74,2.14c.06-.19-2.13-.93-4.36-2.64S112.58,314.64,112.42,314.75Z"/><path class="cls-5" d="M65.89,45a9.34,9.34,0,0,0-10.22-.8,13.5,13.5,0,0,0-6.36,8.46,11.2,11.2,0,0,0-.26,5.57,6.61,6.61,0,0,0,3.24,4.38,4.81,4.81,0,0,1,2.07,1.33c.86,1.34-.51,3.14-.08,4.67a2.77,2.77,0,0,0,3.21,1.66,6.66,6.66,0,0,0,3.3-2.09,25.41,25.41,0,0,0,7.14-15A7.44,7.44,0,0,0,65.89,45Z"/><path class="cls-2" d="M220.93,394.43l-70.28-2.56a14.2,14.2,0,0,1-13.84-14.66l11.32-266.57a14.41,14.41,0,0,1,15-13.62l70.28,2.56a14.19,14.19,0,0,1,13.83,14.67L236,380.82A14.41,14.41,0,0,1,220.93,394.43Z"/><path class="cls-5" d="M220.93,394.43l.51,0a12.53,12.53,0,0,0,1.49-.1,14.46,14.46,0,0,0,11.76-8.56,15.15,15.15,0,0,0,1.17-5.78q.12-3.2.27-6.8c.78-19.24,1.92-47.05,3.32-81.41s3.14-75.29,5-120.73q.7-17,1.46-34.89.38-8.92.76-18c.09-3.05.52-6.1-.59-8.92a13.67,13.67,0,0,0-5.5-6.94,13.85,13.85,0,0,0-4.18-1.84,21.42,21.42,0,0,0-4.64-.49l-9.59-.35-19.4-.7-39.64-1.44a14.48,14.48,0,0,0-9.1,2.83,14,14,0,0,0-5.15,7.81,23.26,23.26,0,0,0-.46,4.75l-.21,4.83q-.19,4.83-.41,9.61-.81,19.15-1.6,37.72c-1.06,24.73-2.08,48.58-3.06,71.3-2,45.45-3.73,86.37-5.21,120.74-.19,4.29-.37,8.49-.55,12.57-.09,2-.18,4.06-.26,6a16.09,16.09,0,0,0,.4,5.77,14,14,0,0,0,6.77,8.48,14.43,14.43,0,0,0,5.1,1.63c1.75.19,3.56.17,5.29.26l35.75,1.37,22.59.9,5.87.26c1.33.06,2,.11,2,.11s-.68,0-2,0l-5.88-.17-22.6-.75-35.75-1.23c-1.75-.09-3.5-.06-5.33-.25a14.94,14.94,0,0,1-5.28-1.67,14.45,14.45,0,0,1-7.05-8.77,16.87,16.87,0,0,1-.43-5.93q.12-3,.24-6.05.26-6.13.52-12.58c1.44-34.37,3.14-75.29,5-120.73,1-22.73,2-46.58,3-71.31q.79-18.54,1.6-37.72.19-4.78.41-9.61c.06-1.61.13-3.22.2-4.83a24.22,24.22,0,0,1,.48-4.9,14.76,14.76,0,0,1,5.46-8.28,15.38,15.38,0,0,1,9.64-3l39.64,1.45,19.41.71,9.59.35a21.93,21.93,0,0,1,4.81.52,14.7,14.7,0,0,1,4.42,1.94,14.45,14.45,0,0,1,5.82,7.36,13.31,13.31,0,0,1,.8,4.63c0,1.56-.11,3.05-.16,4.58q-.39,9.09-.77,18-.76,17.84-1.5,34.89c-2,45.43-3.73,86.35-5.22,120.72s-2.74,62.16-3.59,81.4c-.1,2.4-.21,4.67-.3,6.8a15.43,15.43,0,0,1-1.23,5.86,14.35,14.35,0,0,1-6.37,6.87,13.93,13.93,0,0,1-5.61,1.69,10.6,10.6,0,0,1-1.5.05A4.9,4.9,0,0,1,220.93,394.43Z"/><polygon class="cls-7" points="241.15 164.74 149.96 161.42 151.91 115.66 243.1 118.98 241.15 164.74"/><polygon class="cls-7" points="238.4 229.56 147.21 226.24 149.15 180.48 240.34 183.8 238.4 229.56"/><polygon class="cls-7" points="235.65 294.38 144.46 291.06 146.4 245.3 237.59 248.62 235.65 294.38"/><polygon class="cls-7" points="232.9 359.2 141.71 355.88 143.65 310.12 234.84 313.44 232.9 359.2"/><g class="cls-10"><polygon points="241.15 164.74 149.96 161.42 151.91 115.66 243.1 118.98 241.15 164.74"/></g><g class="cls-11"><polygon points="238.4 229.56 147.21 226.24 149.15 180.48 240.34 183.8 238.4 229.56"/></g><g class="cls-8"><polygon points="235.65 294.38 144.46 291.06 146.4 245.3 237.59 248.62 235.65 294.38"/></g><g class="cls-12"><polygon points="232.9 359.2 141.71 355.88 143.65 310.12 234.84 313.44 232.9 359.2"/></g><path class="cls-2" d="M219.59,395.21l-68.18.71c-7.3.08-13.28-6.11-13.36-13.83l-2.57-275.52c-.07-7.72,5.79-14,13.1-14.11l68.18-.71c7.3-.07,13.28,6.12,13.35,13.83l2.58,275.53C232.76,388.82,226.9,395.14,219.59,395.21Z"/><path class="cls-5" d="M219.59,395.21s.65,0,1.9-.22a12.62,12.62,0,0,0,5.16-2.13,13.84,13.84,0,0,0,5.33-7.51,18.18,18.18,0,0,0,.55-6.06q0-3.29-.08-7c-.22-19.82-.53-48.47-.91-83.88s-.78-77.59-1.25-124.41q-.16-17.55-.35-36-.09-9.18-.18-18.57c0-1.55,0-3.15-.08-4.67a14.39,14.39,0,0,0-1-4.44,13.64,13.64,0,0,0-5.84-6.64,12.08,12.08,0,0,0-4.17-1.39,30.15,30.15,0,0,0-4.48-.12l-9.16.09-18.55.2-37.88.4a12.51,12.51,0,0,0-8.46,3.48,13.66,13.66,0,0,0-4.15,8.44,47.58,47.58,0,0,0-.08,4.94l.05,5c0,3.31.06,6.62.09,9.91q.18,19.74.36,38.87c.23,25.48.45,50.06.66,73.48.4,46.83.77,89,1.07,124.42q.06,6.63.11,13,0,3.15.05,6.23a16.86,16.86,0,0,0,.75,5.89,13.52,13.52,0,0,0,7.16,8.09c3.23,1.58,6.78,1,10.1,1.06l34.16-.29,21.59-.14,5.62,0c1.26,0,1.91,0,1.91,0s-.65,0-1.91.07l-5.62.1-21.59.3-34.16.43-5.08.05a12.75,12.75,0,0,1-5.21-1.11,14,14,0,0,1-7.45-8.38,17.2,17.2,0,0,1-.79-6.06c0-2.05-.05-4.13-.07-6.24q-.06-6.31-.13-13c-.36-35.42-.78-77.59-1.25-124.42-.23-23.41-.46-48-.71-73.48q-.18-19.11-.37-38.86c0-3.29-.06-6.6-.09-9.91l0-5a50.42,50.42,0,0,1,.08-5.05,14.51,14.51,0,0,1,4.42-9,13.3,13.3,0,0,1,9-3.7l37.88-.39L205,91.46l9.16-.1a30.93,30.93,0,0,1,4.6.13A13,13,0,0,1,223.21,93a14.37,14.37,0,0,1,6.18,7,15.29,15.29,0,0,1,1.07,4.71c.09,1.62,0,3.15.08,4.72q.09,9.39.17,18.58.16,18.38.32,36c.4,46.82.77,89,1.07,124.41s.51,64.06.66,83.88c0,2.48,0,4.81.05,7,0,1.1,0,2.16-.05,3.2l-.21,1.51c-.11.48-.21,1-.34,1.42a14,14,0,0,1-5.47,7.58,12.45,12.45,0,0,1-5.24,2.08,10.73,10.73,0,0,1-1.43.13C219.75,395.22,219.59,395.21,219.59,395.21Z"/><polygon class="cls-7" points="226.81 158.33 139.77 159.23 139.33 112.13 226.37 111.23 226.81 158.33"/><polygon class="cls-7" points="227.43 225.04 140.4 225.95 139.96 178.85 226.99 177.94 227.43 225.04"/><polygon class="cls-7" points="228.05 291.75 141.02 292.66 140.58 245.56 227.61 244.66 228.05 291.75"/><polygon class="cls-7" points="228.68 358.47 141.64 359.37 141.2 312.27 228.24 311.37 228.68 358.47"/><g class="cls-11"><polygon class="cls-6" points="227.43 225.04 140.4 225.95 139.96 178.85 226.99 177.94 227.43 225.04"/></g><g class="cls-8"><polygon class="cls-6" points="228.05 291.75 141.02 292.66 140.58 245.56 227.61 244.66 228.05 291.75"/></g><g class="cls-12"><polygon class="cls-6" points="228.68 358.47 141.64 359.37 141.2 312.27 228.24 311.37 228.68 358.47"/></g><path class="cls-9" d="M221.73,381.76a11.06,11.06,0,1,1-8.4-13.2A11.06,11.06,0,0,1,221.73,381.76Z"/><path class="cls-5" d="M221.73,381.76c-.09,0,.16-1,.08-2.71a11,11,0,0,0-2.67-6.63,10.77,10.77,0,0,0-9.59-3.63,10.62,10.62,0,0,0-5.63,2.57,10.65,10.65,0,0,0-2.72,12.29,10.62,10.62,0,0,0,4,4.71,10.8,10.8,0,0,0,10.23.76,11,11,0,0,0,5.22-4.88c.81-1.53,1-2.51,1.07-2.48a2.34,2.34,0,0,1-.1.7,9.1,9.1,0,0,1-.67,1.93,11.07,11.07,0,0,1-5.27,5.28,11.19,11.19,0,0,1-5.13,1.09A11.41,11.41,0,0,1,204.8,389a11.24,11.24,0,0,1-4.36-5,11.37,11.37,0,0,1,2.94-13.24,11.2,11.2,0,0,1,6.07-2.72,11.47,11.47,0,0,1,6,.85A11.34,11.34,0,0,1,219.6,372a11,11,0,0,1,2.54,7,8.26,8.26,0,0,1-.21,2A2.19,2.19,0,0,1,221.73,381.76Z"/><path class="cls-13" d="M159.29,163.88l-1,.84a.6.6,0,0,1-.38.19.55.55,0,0,1-.4-.33,2.37,2.37,0,0,1-.05-1.85,3.94,3.94,0,0,1,1.1-1.52,1.14,1.14,0,0,1,.77-.36,1.15,1.15,0,0,1,.73.44c.27.28.53.58.78.88a.69.69,0,0,1,.19.52.71.71,0,0,1-.26.34c-.43.35-1.06.5-1.49.85"/><path class="cls-14" d="M152,147.11c1.42-.06,7.8-.72,7.8-.72L170.46,149a3.7,3.7,0,0,1-3.06,1.9c-2.85-.06-6.83-.36-6.83-.36l-1.27.75s4.85,3.26,4.89,3.91a2.85,2.85,0,0,1-.33,1.34A5.06,5.06,0,0,1,164,160l-.16,4.55-4.59,3.17a3.64,3.64,0,0,1-.37-2.46c.32-1.29,2.08-2,2.08-2l-1.06-1.9-1.62-.57s-10.54,2.94-13,2.77l-8.43,4.19-1.17-12.33S150.57,147.16,152,147.11Z"/><path class="cls-13" d="M158.35,156.68c0,.12,1.29.68,2.8,1.61s2.61,1.86,2.7,1.77a9.8,9.8,0,0,0-5.5-3.38Z"/><path class="cls-13" d="M157.52,153.11a28,28,0,0,0,3,1.74,31,31,0,0,0,3,1.77,9.1,9.1,0,0,0-2.81-2.16A9.43,9.43,0,0,0,157.52,153.11Z"/><path class="cls-13" d="M154.24,148a20,20,0,0,0,2.51,1.89,8.77,8.77,0,0,0,2.74,1.57,16.38,16.38,0,0,0-2.48-1.94A8,8,0,0,0,154.24,148Z"/><path class="cls-14" d="M188.36,92.11a14.44,14.44,0,0,0-2.06-3.27,2.74,2.74,0,0,0-2.72-.5l-.65.38s-2.61-1.86-4.19-1.14c0,0-2.47-1.84-4.07-.62,0,0-1.83-1.78-3-.77a5,5,0,0,0-1.21,4.18c.22,1.12.32,4.82.94,5,0,0,1.64.51,2-.35s.59-1.28.59-1.28,0,3.33.74,3.65,2.23.52,2.56-.88c0,0,.51,1.21,1.27,1s1.73-.52,1.82-1.4.26-1.76.26-1.76.13,1.35.82,1.2,1.31,0,1.88-1,1.91-2.95,1.91-2.95Z"/><path class="cls-13" d="M180.79,94.34s-.06-.37-.1-1a5.41,5.41,0,0,1,.35-2.24,5.28,5.28,0,0,1,1.29-1.87c.43-.4.76-.59.73-.63a2.06,2.06,0,0,0-.86.48,4.66,4.66,0,0,0-1.71,4.28A2.12,2.12,0,0,0,180.79,94.34Z"/><path class="cls-13" d="M178.56,87.56a4.39,4.39,0,0,0-.62,1.19,12.44,12.44,0,0,0-.82,3.13,12.94,12.94,0,0,0,0,3.24,4,4,0,0,0,.3,1.31,22.13,22.13,0,0,1,0-4.51A23.24,23.24,0,0,1,178.56,87.56Z"/><path class="cls-13" d="M174.59,87a10.75,10.75,0,0,0-.71,3.38,10.64,10.64,0,0,0,.15,3.46c.09,0,0-1.55.13-3.43S174.68,87,174.59,87Z"/><path class="cls-9" d="M127.3,135.54l-.09-.68C127.23,135,127.28,135.34,127.3,135.54Z"/><path class="cls-9" d="M127.21,134.86v0Z"/><path class="cls-9" d="M127.32,135.7l0-.16Z"/><path class="cls-9" d="M127.43,177.41A133.76,133.76,0,0,0,141.82,169l-4.6-15.36-6.49,1c-.58-6.68-2.64-13.15-3.41-19l-7.87-26.06-17.17-1.57-20.87-1.52-13.29,1.92c-7.3,1-15.8,5.06-19.31,11.55-1.25,2.32-2.08,7.5-2.37,10.47-1.1,11.11,3,45,14.61,57L55.19,205c-8.39,26.16,77.87,15.16,77.12,5-1-4.8-5.67-25.31-5.67-25.31Z"/><path class="cls-9" d="M127.21,134.82Z"/><path class="cls-5" d="M83.19,162.25c.11.15-2.37,1.58-4.32,4.4s-2.51,5.61-2.69,5.56a12.47,12.47,0,0,1,7-10Z"/><g class="cls-8"><path d="M61.42,187.6c1.71,3.63,5.39,6,9.28,7.05a32.46,32.46,0,0,0,12,.32c16-1.87,42.89-17.68,42.44-17.37C104.91,189,69.35,193.38,61.42,187.6Z"/></g><path class="cls-5" d="M141.82,169a.68.68,0,0,1-.18.13l-.57.37c-.5.31-1.24.77-2.21,1.34-1.93,1.14-4.75,2.75-8.3,4.61a158,158,0,0,1-29,11.75,69.86,69.86,0,0,1-8.8,1.7c-2.86.4-5.63.67-8.28.89s-5.16.38-7.52.48a51.93,51.93,0,0,1-6.58-.15,20.59,20.59,0,0,1-9.09-2.69,10.72,10.72,0,0,1-2-1.65l-.44-.51a1.1,1.1,0,0,1-.13-.18,14.69,14.69,0,0,0,2.68,2.17,20.9,20.9,0,0,0,9,2.49,51.67,51.67,0,0,0,6.53.09c2.35-.12,4.86-.31,7.5-.53s5.4-.51,8.25-.91a71.8,71.8,0,0,0,8.73-1.7,167.15,167.15,0,0,0,29-11.58c3.57-1.81,6.41-3.37,8.37-4.46l2.26-1.25.59-.32Z"/><path class="cls-5" d="M137.22,153.62s-.07,0-.23.06l-.68.14-2.62.47L124,155.92,92,161.1l-8.81,1.4-.2,0-.07-.18L72.84,138c-1.23-3-2.23-5.45-2.93-7.17-.32-.82-.58-1.46-.77-1.94a3.26,3.26,0,0,1-.23-.69,6.87,6.87,0,0,1,.32.65l.84,1.91c.74,1.71,1.78,4.12,3.08,7.11,2.59,6.11,6.18,14.59,10.28,24.25l-.28-.15,8.8-1.41,32-5,9.7-1.46,2.65-.38.69-.08A.58.58,0,0,1,137.22,153.62Z"/><path class="cls-5" d="M122.29,121.7a23.22,23.22,0,0,0,1.17,3.19c.76,2,1.76,4.66,2.69,7.71s1.61,5.87,2.07,7.91a23.53,23.53,0,0,0,.81,3.3,15.55,15.55,0,0,0-.38-3.39,66.6,66.6,0,0,0-4.79-15.7A15,15,0,0,0,122.29,121.7Z"/><path class="cls-5" d="M120.09,102.84a3.42,3.42,0,0,1-1.29,1.82,2.92,2.92,0,0,1-2.47.48,3.07,3.07,0,0,1-2.1-2.47,2.88,2.88,0,0,1,.4-1.89,6.08,6.08,0,0,1,1.49-1.6c1.19-.93,2.84-1.7,3.79-3.34a6.87,6.87,0,0,0,.64-5.53,8,8,0,0,0-1.4-2.65,11.74,11.74,0,0,0-2.26-2.08,15.77,15.77,0,0,1-2.25-1.92,3.87,3.87,0,0,1-1.09-2.47,4.77,4.77,0,0,1,.74-2.55,9.48,9.48,0,0,1,1.67-2,19.53,19.53,0,0,0,3.45-3.68,7.55,7.55,0,0,0,1.08-4.28,9.63,9.63,0,0,0-1-3.5,18.55,18.55,0,0,1-1-2.53,6.09,6.09,0,0,1-.14-2.27l0,.15a3,3,0,0,0-.1.44,4.54,4.54,0,0,0,.11,1.73,15.62,15.62,0,0,0,.89,2.58,9.71,9.71,0,0,1,.87,3.42,7.24,7.24,0,0,1-1.08,4,20,20,0,0,1-3.42,3.57,10.58,10.58,0,0,0-1.76,2.14,5.25,5.25,0,0,0-.82,2.8A4.43,4.43,0,0,0,114.27,84a16.26,16.26,0,0,0,2.32,2,11.15,11.15,0,0,1,2.17,2,7.9,7.9,0,0,1,1.33,2.49,6.44,6.44,0,0,1-.58,5.16c-.84,1.5-2.4,2.26-3.64,3.25a6.13,6.13,0,0,0-1.57,1.73,3.19,3.19,0,0,0-.42,2.13,3.37,3.37,0,0,0,2.37,2.69,3.16,3.16,0,0,0,2.67-.59,3.2,3.2,0,0,0,1-1.39A1.78,1.78,0,0,0,120.09,102.84Z"/><path class="cls-7" d="M69.66,52.18a3.18,3.18,0,0,1,.65,2.24A14.88,14.88,0,0,1,70,57.21a15.07,15.07,0,0,1-.78,2.7,3.16,3.16,0,0,1-1.46,1.82c-.68.28-1.58,0-2.3-1.07a5,5,0,0,1-.79-1.95,6.89,6.89,0,0,1,0-2.56,6.67,6.67,0,0,1,1-2.36,5.08,5.08,0,0,1,1.48-1.51A2,2,0,0,1,69.66,52.18Z"/><path class="cls-5" d="M61.51,79.54c-.95-2.72-.08-5.75,1.22-8.33s3-4.95,3.91-7.69c1-3,.9-6.22,2.09-9.11A11.41,11.41,0,0,1,75.59,48c1.86-.62,3.92-.77,5.53-1.89s2.51-3.12,3.76-4.7c2-2.57,4-4.78,7-6,3.45-1.44,8.5-2,12-.56a9.92,9.92,0,0,1,4.91,4.8,20.92,20.92,0,0,1,1.89,6.73c3.54.68,5.59,4.31,7.16,7.55a14.56,14.56,0,0,1,1.85,5.74c.08,2.26-1.86,10-3,12-5.66,10.22-14.06,12.37-24.28,18-4,2.18-6.38,7.2-10.89,7-5.25-.2-10.35-.4-13.4-4.68s-6.48-8.32-6.93-13.55"/><path class="cls-14" d="M115.54,63.38c-.28-7.32-4.91-16.4-12.21-15.8L80.46,52.79A4.29,4.29,0,0,0,76.53,57l1.13,54.87-.16,0s4.78,15.6,19.92,11.27c3-.86,4.45-4.09,5.13-7.42l.15,0c0-.4,0-.77,0-1.15a36.11,36.11,0,0,0,.28-7.52h0c.16-4.43.2-6.24.2-6.2s9.37-1.33,11.6-13.46C115.93,81.45,115.86,71.51,115.54,63.38Z"/><path class="cls-5" d="M97,72.53a1.57,1.57,0,0,1-1.55,1.54,1.48,1.48,0,0,1-1.57-1.44,1.55,1.55,0,0,1,1.54-1.54A1.49,1.49,0,0,1,97,72.53Z"/><path class="cls-5" d="M113.06,72.53a1.55,1.55,0,0,1-1.54,1.54,1.49,1.49,0,0,1-1.58-1.44,1.55,1.55,0,0,1,1.54-1.54A1.49,1.49,0,0,1,113.06,72.53Z"/><path class="cls-5" d="M113.9,68.72c-.2.26-1.55-.79-3.38-.71s-3.11,1.2-3.33.95.09-.59.65-1.11a4.13,4.13,0,0,1,5.35-.19C113.78,68.14,114,68.6,113.9,68.72Z"/><path class="cls-5" d="M97,69c-.24.24-1.55-.93-3.5-1s-3.44.84-3.64.57c-.09-.12.16-.56.81-1a4.71,4.71,0,0,1,2.93-.77,4.64,4.64,0,0,1,2.77,1.14C96.89,68.38,97.07,68.86,97,69Z"/><path class="cls-5" d="M102.54,81a11.52,11.52,0,0,1,2.74-.42c.44,0,.84-.11.92-.4a2.2,2.2,0,0,0-.25-1.28l-1.2-3.3c-1.65-4.7-2.83-8.55-2.64-8.62s1.68,3.69,3.33,8.39c.4,1.15.78,2.26,1.14,3.31a2.46,2.46,0,0,1,.18,1.69A1.06,1.06,0,0,1,106,81a3,3,0,0,1-.73.09A10.53,10.53,0,0,1,102.54,81Z"/><path class="cls-13" d="M103.23,100.94A31,31,0,0,1,87,96.2s3.89,8.73,16.11,7.88Z"/><path class="cls-13" d="M101.74,85.06a3,3,0,0,0-2.69-1.19,2.76,2.76,0,0,0-1.94,1,1.76,1.76,0,0,0-.18,2,2,2,0,0,0,2.19.61,6.39,6.39,0,0,0,2.18-1.23,1.64,1.64,0,0,0,.49-.49.56.56,0,0,0,0-.62"/><path class="cls-5" d="M97.57,82.07c.27,0,.23,1.81,1.76,3.15s3.48,1.17,3.49,1.43c0,.11-.44.34-1.26.35a4.49,4.49,0,0,1-2.91-1.1,3.94,3.94,0,0,1-1.37-2.63C97.23,82.5,97.45,82.06,97.57,82.07Z"/><path class="cls-5" d="M97.36,63.26c-.17.46-1.84.2-3.82.39s-3.59.69-3.84.27c-.11-.19.18-.62.83-1A6.3,6.3,0,0,1,93.39,62a6.4,6.4,0,0,1,3,.42C97.09,62.68,97.44,63.05,97.36,63.26Z"/><path class="cls-5" d="M112.76,63.61c-.35.38-1.66,0-3.25-.11s-3,.19-3.25-.22c-.13-.19.09-.57.69-.92a5.11,5.11,0,0,1,2.66-.56,4.87,4.87,0,0,1,2.57.83C112.74,63,112.91,63.43,112.76,63.61Z"/><path class="cls-5" d="M75.4,54c1.28-1.6,3.38-2.29,5.36-2.83A111.88,111.88,0,0,1,107,47.26c.91,1.9-.34,4.25-2.12,5.39s-4,1.45-6,2S94.75,56.11,93.74,58s-.58,4.49-1.55,6.52c-1.67,3.49-6.84,4.14-8.49,7.64-1.25,2.65-.44,2-.33,5,.12,3.32-1.92,3.82-4.54,5.85-2.06,1.6-6,3.44-8.64,3.23.44-10.45,3.15-15.48,3.6-25.93C73.88,58.07,74,55.73,75.4,54Z"/><path class="cls-9" d="M90,37.42a.83.83,0,0,1,.22-.16,5.55,5.55,0,0,1,.66-.4,10.32,10.32,0,0,1,2.65-1,11.64,11.64,0,0,1,4.2-.19,10.77,10.77,0,0,1,8.21,5.68,11.77,11.77,0,0,1,1.3,4,10.52,10.52,0,0,1,0,2.83,6.71,6.71,0,0,1-.14.76,1.23,1.23,0,0,1-.07.26,13.74,13.74,0,0,0,0-3.83,11.8,11.8,0,0,0-1.33-3.9,10.64,10.64,0,0,0-8-5.55,11.79,11.79,0,0,0-4.12.13A13.23,13.23,0,0,0,90,37.42Z"/><path class="cls-9" d="M78.29,47.28h.36a3.92,3.92,0,0,0,1-.09,6.08,6.08,0,0,0,1.48-.53,12,12,0,0,0,1.77-1.13c.63-.47,1.28-1,2-1.59a13.37,13.37,0,0,1,2.5-1.59A13.67,13.67,0,0,1,94,41a13.48,13.48,0,0,1,6.43,2,13.82,13.82,0,0,1,4,3.83,13.07,13.07,0,0,1,1.67,3.32c.14.42.23.75.28,1a1.56,1.56,0,0,1,.06.35s-.13-.47-.44-1.29a14.07,14.07,0,0,0-5.68-7,13.3,13.3,0,0,0-6.31-2,13.73,13.73,0,0,0-6.5,1.25A13.57,13.57,0,0,0,85,44.11c-.73.56-1.4,1.1-2,1.56a11.61,11.61,0,0,1-1.81,1.12,5.69,5.69,0,0,1-1.53.49,3.73,3.73,0,0,1-1,0A1.45,1.45,0,0,1,78.29,47.28Z"/><path class="cls-9" d="M68,60.3a20.23,20.23,0,0,0,.64,3,13.83,13.83,0,0,0,3.9,6.1,14,14,0,0,0,6.51,3.2,21.68,21.68,0,0,0,3,.29s-.07,0-.21,0-.34,0-.61,0a12.26,12.26,0,0,1-2.25-.18,13.21,13.21,0,0,1-10.56-9.43,12.61,12.61,0,0,1-.43-2.21,5.06,5.06,0,0,1,0-.61A.48.48,0,0,1,68,60.3Z"/><path class="cls-9" d="M79.59,78.39a6.83,6.83,0,0,1-.82-.13c-.53-.11-1.29-.29-2.21-.57A16.74,16.74,0,0,1,70,74a10.83,10.83,0,0,1-3.38-6.61,7.66,7.66,0,0,1,.08-2.29,4.3,4.3,0,0,1,.15-.6c0-.14.06-.21.07-.2a10.42,10.42,0,0,0-.11,3.06,11.07,11.07,0,0,0,3.37,6.45,17.58,17.58,0,0,0,6.41,3.66c.91.3,1.66.51,2.17.64A4.76,4.76,0,0,1,79.59,78.39Z"/><path class="cls-5" d="M117.81,45.34a11.78,11.78,0,0,0-7.73,1.47,3.78,3.78,0,0,1,1-.69,9.07,9.07,0,0,1,2.71-1,8.67,8.67,0,0,1,2.88-.09A3.67,3.67,0,0,1,117.81,45.34Z"/><path class="cls-5" d="M112.94,39a4.57,4.57,0,0,1,.09,1.28,11.28,11.28,0,0,1-.53,3,11.06,11.06,0,0,1-1.36,2.78,4.23,4.23,0,0,1-.82,1,18.45,18.45,0,0,0,1.92-3.85A18.4,18.4,0,0,0,112.94,39Z"/><path class="cls-14" d="M79.7,73.56c-.18-.1-7.61-2.6-7.68,5.08s7.65,6.17,7.67,6S79.7,73.56,79.7,73.56Z"/><path class="cls-13" d="M77.37,81.65s-.14.1-.36.2a1.38,1.38,0,0,1-1,0c-.8-.31-1.47-1.6-1.5-3A4.53,4.53,0,0,1,74.89,77a1.56,1.56,0,0,1,1-1,.69.69,0,0,1,.79.38c.1.21,0,.37.09.38s.16-.13.1-.44a.82.82,0,0,0-.29-.49,1,1,0,0,0-.74-.2,1.87,1.87,0,0,0-1.41,1.18A4.46,4.46,0,0,0,74,78.88c0,1.55.81,3,1.92,3.34A1.4,1.4,0,0,0,77.11,82C77.35,81.84,77.39,81.67,77.37,81.65Z"/><path class="cls-6" d="M73.25,82.92a3.2,3.2,0,0,1-.36.22c-.23.14-.59.32-1,.6A7.21,7.21,0,0,0,69.16,87,7.09,7.09,0,0,0,68.62,90a7,7,0,0,0,.87,3.28A7.25,7.25,0,0,0,72,95.94,7.17,7.17,0,0,0,75.89,97a7.22,7.22,0,0,0,3.82-1.14,7.24,7.24,0,0,0-.07-12.2,10.4,10.4,0,0,0-1.42-.74,5.21,5.21,0,0,1,1.48.65,7.34,7.34,0,0,1,3.54,6.24,7.46,7.46,0,0,1-.8,3.4,7.37,7.37,0,0,1-2.58,2.87A7.26,7.26,0,0,1,78,97a7,7,0,0,1-2.1.32,7.33,7.33,0,0,1-6.62-3.93,7.34,7.34,0,0,1,2.54-9.69c.45-.27.82-.43,1.06-.56A1.82,1.82,0,0,1,73.25,82.92Z"/><path class="cls-9" d="M67.42,59.49a1.47,1.47,0,0,1,0,.37,7.64,7.64,0,0,1-.1,1.07,15.44,15.44,0,0,1-1.13,3.8C65.53,66.27,64.56,68,63.54,70c-.5,1-1,2-1.44,3.13a14.72,14.72,0,0,0-.94,3.55,13.19,13.19,0,0,0,1,6.94,13.86,13.86,0,0,0,1.59,2.67c.57.79,1.14,1.51,1.66,2.16,1,1.3,1.92,2.32,2.54,3l.7.81.24.3-.28-.26c-.17-.17-.42-.43-.74-.78-.64-.68-1.55-1.68-2.61-3-.53-.65-1.1-1.36-1.69-2.15A13.83,13.83,0,0,1,62,83.7a13.23,13.23,0,0,1-1.09-7.08,15.19,15.19,0,0,1,1-3.62,31.55,31.55,0,0,1,1.46-3.14c1-2,2-3.68,2.68-5.21a15.84,15.84,0,0,0,1.2-3.73,10.27,10.27,0,0,0,.16-1.06A1.74,1.74,0,0,1,67.42,59.49Z"/></g><g id="Character_3" data-name="Character 3"><path class="cls-7" d="M564.44,209.84l-1.16-.35c-5.42,2.24-9,7.59-10.88,13.16s-2.33,11.49-3.42,17.26-3,11.64-7.05,15.87a65.84,65.84,0,0,0,8.43,6.15,6.73,6.73,0,0,0,3.15,1.22c1.81.07,3.36-1.22,4.6-2.54,6.1-6.53,6.85-18.27,7.49-27.18S566.94,218.41,564.44,209.84Z"/><g class="cls-11"><path d="M560.09,213.2s-13.27,46.4-12.42,47,3.48,2.21,3.48,2.21l12.1-48.55Z"/></g><path class="cls-7" d="M568.79,201.81a4,4,0,0,0-3.58-3.54,5.71,5.71,0,0,0-4.81,2.14,10.24,10.24,0,0,0-2.09,5c-.42,2.53-.08,5.52,2,7a5.07,5.07,0,0,0,5.53-.07,7.46,7.46,0,0,0,3.08-4.83,14.33,14.33,0,0,0-.19-5.83"/><path class="cls-5" d="M564.38,209.49a3.81,3.81,0,0,1-.65-1.61,9.8,9.8,0,0,1-.08-4.2,9.91,9.91,0,0,1,1.66-3.86c.64-.87,1.17-1.28,1.21-1.24a10.78,10.78,0,0,1-.9,1.45,11.54,11.54,0,0,0-1.46,3.75,11.72,11.72,0,0,0-.07,4A11.64,11.64,0,0,1,564.38,209.49Z"/><path class="cls-5" d="M562.43,213.78c0,.07-.25.22-.74.24a2.7,2.7,0,0,1-2.71-2.24c-.07-.48,0-.78.09-.77s.18,1.17,1.18,2A5.12,5.12,0,0,0,562.43,213.78Z"/><polygon class="cls-15" points="632.08 149.83 642.03 171.32 619.88 158.58 632.08 149.83"/><polygon class="cls-2" points="452.4 81.52 482.38 120.97 495.31 117.54 501.81 121.24 513.07 100.54 506.3 96.98 501.29 84.29 452.4 81.52"/><path class="cls-5" d="M452.4,81.52l48.9,2.61h.1l0,.09c1.6,4,3.28,8.29,5,12.69l-.07-.08,6.77,3.55.15.08-.08.15-5.75,10.56L502,121.31l-.08.15-.15-.08-6.51-3.7.13,0-12.93,3.42-.1,0-.06-.08L452.4,81.52l30.1,39.36-.16-.06,12.93-3.44h.06l.06,0,6.51,3.69-.23.07q2.7-5,5.51-10.13c2-3.62,3.9-7.18,5.74-10.57l.07.23-6.77-3.56-.05,0,0,0c-1.74-4.41-3.42-8.67-5-12.71l.13.1Z"/><path class="cls-5" d="M488.38,93a7.07,7.07,0,0,1,2.9,9.67,7.31,7.31,0,0,1-9.79,3,7.06,7.06,0,0,1-2.9-9.66A7.32,7.32,0,0,1,488.38,93Z"/><path class="cls-5" d="M452.4,81.52c.05-.09,7.39,3.52,16.4,8.06s16.28,8.28,16.24,8.36-7.38-3.53-16.4-8.06S452.36,81.6,452.4,81.52Z"/><path class="cls-7" d="M686.69,202.34h0a11.67,11.67,0,0,1-15.55,4.82l-163-83.25,11-20.2L682,186.9A11.26,11.26,0,0,1,686.69,202.34Z"/><polygon class="cls-7" points="521.06 102.6 508.14 126.35 499.87 122.01 512.79 98.26 521.06 102.6"/><g class="cls-8"><polygon points="509.01 124.74 520 104.54 523.08 106.13 510.11 125.31 509.01 124.74"/></g><g class="cls-16"><polygon class="cls-6" points="503.41 115.5 515.36 112.55 517.29 109.53 505.01 112.57 503.41 115.5"/></g><g class="cls-11"><path d="M620.72,156.36a24.21,24.21,0,0,1,.6,25.62Z"/></g><path class="cls-5" d="M590.55,411.21c.09.2,1.07-.12,2.29-.06s2.17.41,2.27.23-.81-.93-2.24-1S590.44,411,590.55,411.21Z"/><path class="cls-5" d="M587.86,394.62c.18.12.87-.64,2-1.2s2.09-.71,2.09-.92-1.17-.41-2.44.26S587.69,394.53,587.86,394.62Z"/><path class="cls-7" d="M589.7,394,591,416.61s-22.56,8.9-22.73,13.11l44-.93-.56-35.32Z"/><path class="cls-1" d="M604.54,414.42a1.79,1.79,0,0,1,1.28,2,1.72,1.72,0,0,1-2,1.29,1.9,1.9,0,0,1-1.35-2.15,1.79,1.79,0,0,1,2.22-1.11"/><path class="cls-5" d="M612.27,429.93v-4.71L570,427.45s-1.94.89-1.69,2.27Z"/><path class="cls-5" d="M590.27,416.4c0,.21,1.09.29,2.16,1s1.65,1.55,1.85,1.47-.15-1.33-1.46-2.11S590.22,416.2,590.27,416.4Z"/><path class="cls-5" d="M585.7,418.4c0,.21.9.56,1.64,1.45s1,1.85,1.2,1.83.32-1.23-.63-2.32S585.7,418.2,585.7,418.4Z"/><path class="cls-5" d="M583.2,424c.2,0,.47-1-.1-2.2s-1.59-1.61-1.68-1.43.55.8,1,1.76S583,424,583.2,424Z"/><path class="cls-5" d="M619.84,193.74s10,17.26,11.42,32.7c1.25,14-7.58,30-7.58,30l-15.27,57.46,4.5,98.26-24.4,1.25L574.43,300.75l4.26-104.85Z"/><path class="cls-7" d="M578.57,380.09l12.36,19S575.77,418,577.71,421.75l37.69-22.63-18-30.38Z"/><path class="cls-1" d="M601.6,390.45a1.8,1.8,0,0,1,2.12,1.12,1.74,1.74,0,0,1-1.09,2.11,1.9,1.9,0,0,1-2.24-1.2,1.8,1.8,0,0,1,1.38-2.07"/><path class="cls-5" d="M615.4,399.12l-1.94-3L578.05,419s-1.24,1.73-.34,2.8Z"/><path class="cls-5" d="M590.2,399.26c.12.18,1.09-.29,2.35-.24s2.21.53,2.33.35-.79-1.07-2.31-1.1S590.06,399.11,590.2,399.26Z"/><path class="cls-5" d="M587.23,403.27c.07.2,1,0,2.14.44s1.77,1.12,2,1-.33-1.23-1.7-1.71S587.13,403.09,587.23,403.27Z"/><path class="cls-5" d="M587.83,409.35c.19-.07-.11-1.14-1.19-1.86s-2.18-.61-2.16-.41.87.42,1.74,1S587.63,409.44,587.83,409.35Z"/><path class="cls-5" d="M566.79,200.64s-29.7,106.82-23.32,118.79S582.61,398,582.61,398l27.52-15.15-31.44-73.45,23.9-52.57s11.45-10,15.87-23.93-3.21-37-3.21-37H567.46Z"/><path class="cls-9" d="M619.84,218.08a7.26,7.26,0,0,1,.19.83c.11.55.26,1.37.4,2.44a60.35,60.35,0,0,1,.59,9.4,38.56,38.56,0,0,1-.75,6.72,20.63,20.63,0,0,1-1.11,3.69,24.42,24.42,0,0,1-1.92,3.68A30.72,30.72,0,0,1,602.67,257l.14-.13L579,309.49v-.23l1.37,3.19,30,70.29.07.17-.16.09-20.18,11-5.5,3-1.44.76a5.28,5.28,0,0,1-.5.24s.16-.11.47-.29l1.41-.81,5.45-3.06L610,382.64l-.09.26-30.15-70.22-1.37-3.19,0-.12,0-.12,24-52.55,0-.09.1,0a30.41,30.41,0,0,0,14.4-11.94,24.17,24.17,0,0,0,1.91-3.61,19.78,19.78,0,0,0,1.12-3.62,37.14,37.14,0,0,0,.8-6.65,65.2,65.2,0,0,0-.45-9.38c-.13-1.07-.25-1.89-.33-2.45S619.84,218.08,619.84,218.08Z"/><path class="cls-9" d="M578.69,219.85a3.52,3.52,0,0,1,.55-.06l1.68-.12,6.4-.43,22.86-1.42h.27v.28c0,6.72,0,14.28,0,22.3v.14l-.11.08L607,243.56c-4.07,3.46-8,6.82-11.73,10l-.14.12-.17-.08L579.68,246l-.13-.06v-.14c-.28-7.82-.51-14.32-.67-18.91-.07-2.22-.12-4-.16-5.22,0-.57,0-1,0-1.36a3,3,0,0,1,0-.45s0,.18,0,.5,0,.82.08,1.4c.07,1.26.17,3,.29,5.27.22,4.55.54,11,.92,18.74l-.13-.2,15.27,7.54-.31,0,11.7-10,3.44-2.94-.1.22c0-8,0-15.58,0-22.3l.28.26-22.71,1.14-6.47.29-1.73.07A4.85,4.85,0,0,1,578.69,219.85Z"/><path class="cls-9" d="M610.1,222.26a5.26,5.26,0,0,1-1.22.26c-.79.13-1.93.28-3.35.46-2.83.34-6.76.73-11.11,1s-8.3.37-11.15.38c-1.43,0-2.59,0-3.39,0a5,5,0,0,1-1.24-.11,5.19,5.19,0,0,1,1.24-.12l3.38-.15c2.85-.11,6.78-.28,11.12-.55s8.27-.59,11.11-.83l3.37-.27A5.62,5.62,0,0,1,610.1,222.26Z"/><path class="cls-9" d="M567.52,146.25a39.71,39.71,0,0,0-3.11,19.11c.44,4.19,2.91,14.86,2.91,14.86L567,200.64s54.15-4.06,54.11-4.17.59-25.71.1-43.71-8.4-36.53-8.4-36.53-7.21-4.16-12.61-3.71-28.07,3-28.07,3Z"/><path class="cls-9" d="M571.24,116.2s-9,1.31-17.44,14.48c-8.66,13.6-12.63,19.23-12.63,19.23l24.69,16.14s13.61-20.52,15.32-24.93S584.78,115.79,571.24,116.2Z"/><path class="cls-9" d="M607.44,114.82s7.82,3.09,11,8.06c2.1,3.24,15,25.94,15,25.94l-14.86,10.35-11.22-31.51Z"/><g class="cls-11"><path d="M564,168.92l2.86,1.29s13.5-17.89,14-28L566,165.2l-2.49-1.32Z"/></g><path class="cls-5" d="M619.15,130.68a1.79,1.79,0,0,1,.12.5c.06.4.13.88.22,1.47.18,1.27.42,3.11.66,5.39.51,4.55,1.06,10.87,1.42,17.86s.48,13.33.51,17.91c0,2.29,0,4.15,0,5.43,0,.59,0,1.08,0,1.48a1.55,1.55,0,0,1,0,.51,1.69,1.69,0,0,1-.06-.51c0-.4,0-.89-.06-1.48,0-1.36-.08-3.19-.14-5.42-.13-4.58-.3-10.91-.67-17.89s-.85-13.29-1.26-17.86c-.21-2.22-.38-4-.5-5.4,0-.59-.1-1.08-.13-1.47A2.05,2.05,0,0,1,619.15,130.68Z"/><path class="cls-5" d="M615.21,89.71c-1.13-5.76-3.51-11.2-5.32-16.79-2.11-6.5-3.75-13.72-9-18.1-3.47-2.9-8-4.1-12.44-5-4-.82-8.16-1.45-12.17-.62-2,.41-3.91,1.19-5.9,1.67-2.3.56-4.73.73-6.88,1.72-4.45,2-6.72,7.13-7.39,12s-.12,9.81-.81,14.66a70.55,70.55,0,0,1-1.52,6.89c-2.06,4.43-4.3,8.86-4,13.6.23,3.43,1.8,6.61,2.56,10s.45,7.38-2.26,9.5a5.14,5.14,0,0,0,6.31.33,5.08,5.08,0,0,0,2-3.6,3.58,3.58,0,0,0,1.36,1.12,8.72,8.72,0,0,0,4.43.35c4.31-.41,8.79-.92,12.54-3l21.11-1.8c5.45,2.2,12-.85,15.15-5.83S616.34,95.48,615.21,89.71Z"/><path class="cls-5" d="M572.4,53.71c-2,.41-4.2.11-6.2.67-2.91.82-5.07,3.38-6.18,6.19a29.52,29.52,0,0,0-1.54,8.88l-.57,8.1a25.56,25.56,0,0,1-.72,5.16c-.53,1.86-2,6.83-2.08,9.25a26.14,26.14,0,0,0,6,18.3c1.87,2.11,10.54,2.16,13.3,2.72,1.21-1.07,4.25-1.06,5.46-2.12.21-.18-8.82-7.08-8.71-7.34a1.94,1.94,0,0,0-.12-1.31,64.52,64.52,0,0,1,2.72-48.06"/><path class="cls-15" d="M596.83,115.51,600,65.89h0a4.15,4.15,0,0,0-3.71-4.22l-22-5.62c-7.06-.76-11.78,7.92-12.24,15-.51,7.87-.83,17.5.09,23.37C564,106.25,573,107.77,573,107.77s.75,7.93.75,7.93,5.73-1,10-1.47C593.1,113.23,596.83,115.51,596.83,115.51Z"/><path class="cls-5" d="M564.74,79.88a1.52,1.52,0,0,0,1.46,1.53,1.46,1.46,0,0,0,1.57-1.36,1.53,1.53,0,0,0-1.46-1.54A1.47,1.47,0,0,0,564.74,79.88Z"/><path class="cls-5" d="M564.77,76.41c.18.2,1.33-.65,3-.64s2.83.82,3,.63-.1-.45-.62-.83a4.17,4.17,0,0,0-2.4-.75,4,4,0,0,0-2.36.76C564.84,76,564.67,76.32,564.77,76.41Z"/><path class="cls-5" d="M579.72,80.07a1.52,1.52,0,0,0,1.45,1.54,1.46,1.46,0,0,0,1.57-1.37,1.52,1.52,0,0,0-1.46-1.53A1.44,1.44,0,0,0,579.72,80.07Z"/><path class="cls-5" d="M580.79,76.41c.19.2,1.34-.65,3-.64s2.82.82,3,.63-.11-.45-.63-.83a4.14,4.14,0,0,0-2.4-.75,4.05,4.05,0,0,0-2.36.76C580.87,76,580.7,76.32,580.79,76.41Z"/><path class="cls-5" d="M574.85,88.49A10.71,10.71,0,0,0,572.2,88c-.42,0-.81-.13-.88-.41a2.11,2.11,0,0,1,.28-1.23c.39-1,.81-2.06,1.24-3.17,1.72-4.51,3-8.22,2.78-8.28s-1.72,3.53-3.44,8c-.42,1.11-.81,2.17-1.19,3.18a2.43,2.43,0,0,0-.22,1.64,1.07,1.07,0,0,0,.69.61,3.27,3.27,0,0,0,.7.1A11,11,0,0,0,574.85,88.49Z"/><path class="cls-17" d="M573,107.77a31.91,31.91,0,0,0,16.51-4.18s-4.34,9-16.16,7.85Z"/><path class="cls-17" d="M580.34,91.93a3.07,3.07,0,0,0-2.13-1.15A3.41,3.41,0,0,0,575.16,92l-.08.06a.64.64,0,0,0,0,.7,1.89,1.89,0,0,0,.53.56A7.26,7.26,0,0,0,578,94.79a2.26,2.26,0,0,0,2.47-.62A2,2,0,0,0,580.34,91.93Z"/><path class="cls-5" d="M579.64,89.62c-.26,0-.27,1.76-1.79,3s-3.4,1.05-3.41,1.3.42.35,1.21.37a4.39,4.39,0,0,0,2.85-1,3.81,3.81,0,0,0,1.39-2.52C580,90.05,579.76,89.61,579.64,89.62Z"/><path class="cls-5" d="M579.79,70.58c.16.45,1.79.24,3.7.48s3.46.76,3.71.36c.12-.19-.15-.61-.77-1a6.24,6.24,0,0,0-2.75-1,6.08,6.08,0,0,0-2.9.34C580.08,70,579.72,70.37,579.79,70.58Z"/><path class="cls-5" d="M564.74,71.22c.29.37,1.41,0,2.76,0s2.5.25,2.76-.13c.12-.19-.06-.56-.56-.91a3.8,3.8,0,0,0-2.24-.62,3.84,3.84,0,0,0-2.21.74C564.77,70.66,564.62,71,564.74,71.22Z"/><path class="cls-9" d="M554.77,118.08a3.28,3.28,0,0,1-.24-.69c-.13-.47-.31-1.15-.5-2a37.86,37.86,0,0,1-.79-7.71,41.21,41.21,0,0,1,1.65-11.38c1.13-4.18,2.83-8.64,3.6-13.53s.53-9.67,1.14-14a21.58,21.58,0,0,1,4-10.73A12.59,12.59,0,0,1,570,53.64a7.1,7.1,0,0,1,2.83-.29,13.78,13.78,0,0,0-2.77.51,12.62,12.62,0,0,0-6.09,4.4,21.52,21.52,0,0,0-3.81,10.55c-.57,4.25-.35,9-1.09,14s-2.51,9.45-3.65,13.59a41.14,41.14,0,0,0-1.17,18.9c.15.89.3,1.59.4,2.06A3.27,3.27,0,0,1,554.77,118.08Z"/><path class="cls-5" d="M570.93,55.26a2.84,2.84,0,0,1,1.21-1.65A16.81,16.81,0,0,1,585,50.67,30,30,0,0,1,597.27,56c3.22,2.24,6.27,5,7.9,8.54a28,28,0,0,1,1.92,8.06c.93,6.81,2.76,13.63,2.69,20.5,0,2.68.46,7.18,0,10.48-.49,3.52-3.91,7.82-7.37,8.61l-7.83.78s4.24-14.61,3.91-19.87c-.29-4.61-.25-9.67-.77-14.26a2.47,2.47,0,0,0-.27-1,2.51,2.51,0,0,0-1.07-.82l-4.89-2.5a48.16,48.16,0,0,1-4.6-2.57,41.9,41.9,0,0,1-4.61-3.18c-2.12-1.81-4-3.25-6.17-5.06a24.82,24.82,0,0,1-3.84-4.58,6.32,6.32,0,0,1-1-5"/><path class="cls-15" d="M597.17,82.07a3.44,3.44,0,0,1,5-2.93c1.2.69,2.11,2.08,2,4.75-.29,7.11-7.37,5.35-7.38,5.15S597,85,597.17,82.07Z"/><path class="cls-17" d="M599.12,86.43s.12.09.32.2a1.23,1.23,0,0,0,.93.05A3.07,3.07,0,0,0,601.9,84a4.14,4.14,0,0,0-.27-1.79,1.43,1.43,0,0,0-.9-1,.62.62,0,0,0-.74.31c-.11.2-.07.34-.1.35s-.15-.13-.08-.42a.73.73,0,0,1,.3-.43.93.93,0,0,1,.69-.15A1.73,1.73,0,0,1,602.05,82a4.23,4.23,0,0,1,.35,2c-.11,1.44-.9,2.75-1.94,3a1.34,1.34,0,0,1-1.12-.23C599.12,86.6,599.09,86.44,599.12,86.43Z"/><path class="cls-9" d="M609,70.87a24.54,24.54,0,0,0-4.93-3,38.87,38.87,0,0,0-6-2c-2.29-.61-4.86-1.16-7.51-2a38.8,38.8,0,0,1-12.49-6.57,34.1,34.1,0,0,1-3.19-2.86,6.8,6.8,0,0,1-1-1.19,10,10,0,0,1,1.19,1,41.55,41.55,0,0,0,3.29,2.7,41,41,0,0,0,12.41,6.34c2.61.81,5.17,1.37,7.48,2a34.9,34.9,0,0,1,6,2.14,16.78,16.78,0,0,1,3.64,2.29,9.32,9.32,0,0,1,.86.8C608.89,70.75,609,70.85,609,70.87Z"/><path class="cls-5" d="M605.94,61.67c2.72,8.79,7.16,16.84,9.89,23.19,1.26,2.94,3.09,6.41,3.67,9.56.64,3.46-.84,6.9-1.66,10.32s-.7,7.64,2.14,9.7a22.7,22.7,0,0,1-13.43,4.85,4.2,4.2,0,0,1-2.62-.57,1.65,1.65,0,0,1-.4-2.37,11.66,11.66,0,0,1-14.79,1.53c-.32-3.8-.57-7.92,1.52-11.1,1.71-2.6,4.8-4.24,5.92-7.14.67-1.73-.21-3.91.08-5.74s1.51-4.28,2.06-4.53h0a9,9,0,0,0,9.6-6.64l.16-.57Z"/><path class="cls-9" d="M604.21,112.61a3.84,3.84,0,0,1,.37-.72l1.12-2a52.25,52.25,0,0,0,3.44-7.73,31.43,31.43,0,0,0,1.79-12.3,21.94,21.94,0,0,0-5.75-13.78c-3.77-3.93-8.57-6.23-12.84-8.21A95.33,95.33,0,0,1,581,62.24a26.66,26.66,0,0,1-6.53-5.47,14.21,14.21,0,0,1-1.37-1.87,3.9,3.9,0,0,1-.4-.7s.62.93,1.94,2.42a27.94,27.94,0,0,0,6.58,5.26,100.7,100.7,0,0,0,11.32,5.48c4.29,2,9.16,4.26,13,8.29a22.37,22.37,0,0,1,5.86,14.16,31.42,31.42,0,0,1-1.94,12.47,45.72,45.72,0,0,1-3.64,7.7c-.5.87-.92,1.53-1.21,2A6.67,6.67,0,0,1,604.21,112.61Z"/><path class="cls-5" d="M582.23,139.69c-.09,0,.61-1.27,1.13-3.43a16.1,16.1,0,0,0-4.79-15.79c-1.64-1.51-2.9-2.14-2.85-2.23a3.32,3.32,0,0,1,.9.41,14.18,14.18,0,0,1,2.19,1.55,15.58,15.58,0,0,1,4.91,16.15,14.88,14.88,0,0,1-1,2.51A2.83,2.83,0,0,1,582.23,139.69Z"/><path class="cls-7" d="M563.34,209.4l23.25.5a2,2,0,0,1,1.93,2.06c-.48,11.52-2.59,68.7,2.15,69.59,5.28,1,10.87-9.07,18.62-5.57s17,7.44,21.29,3.06,7.79-55.09-9.48-82.82l-55,3.15Z"/><path class="cls-5" d="M592,203.09a5.39,5.39,0,0,1-1.14,0l-3.11-.06c-2.61-.05-6.23,0-10.21.26s-7.56.75-10.15,1.15l-3.06.5a5.85,5.85,0,0,1-1.13.13,4.48,4.48,0,0,1,1.09-.33c.71-.18,1.75-.41,3-.66a86.81,86.81,0,0,1,10.18-1.31,85.79,85.79,0,0,1,10.26-.11c1.31.07,2.37.15,3.1.23A4.5,4.5,0,0,1,592,203.09Z"/><path class="cls-5" d="M603.68,209.53a8.46,8.46,0,0,1-1.61-.25c-1-.19-2.52-.47-4.36-.79-3.69-.63-8.8-1.37-14.49-1.82s-10.86-.51-14.59-.45c-1.87,0-3.39.07-4.43.11a8.91,8.91,0,0,1-1.63,0,11.53,11.53,0,0,1,1.62-.2c1-.1,2.55-.19,4.43-.27a127.41,127.41,0,0,1,29.16,2.28c1.83.37,3.32.7,4.33,1A10.29,10.29,0,0,1,603.68,209.53Z"/><path class="cls-5" d="M612.82,229.94a7.73,7.73,0,0,1,0,1.49c0,1-.1,2.41-.17,4-.13,3.42-.21,8.14,0,13.35s.56,9.92.91,13.32c.17,1.62.31,3,.42,4a7.2,7.2,0,0,1,.11,1.49,9.47,9.47,0,0,1-.31-1.46c-.17-.94-.37-2.31-.59-4-.44-3.4-.89-8.12-1.06-13.34s0-10,.2-13.39c.11-1.71.23-3.09.34-4A8.48,8.48,0,0,1,612.82,229.94Z"/><path class="cls-5" d="M620.34,265c-.14,0-1.1-10.23-2.13-22.89s-1.77-22.93-1.62-22.94,1.1,10.24,2.13,22.9S620.49,265,620.34,265Z"/><path class="cls-15" d="M543.89,151.65l-2,2.66-.72-13.57-13.69-4.6s-3.22,34.12-2.73,39.41c.54,5.79.65,6.07,2.12,8.71,1.88,3.37,8.41,5.73,12.14,4.74s7.74-6.07,10.72-9.11c5.43-5.52,13.8-16,13.8-16Z"/><path class="cls-17" d="M543.89,151.65a17.35,17.35,0,0,1-1.49,2.28c-1,1.38-2.26,3.3-3.61,5.47s-2.48,4.2-3.29,5.67a16.58,16.58,0,0,1-1.37,2.36,12.09,12.09,0,0,1,1-2.52,64.5,64.5,0,0,1,6.93-11.2A12.94,12.94,0,0,1,543.89,151.65Z"/><path class="cls-15" d="M527.39,137.88l-5.33-3c-2.14-1.7-4.11-3.37-4.63-6.06h0s15.56,6.95,16.8,7.59,7.11,3,6.93,5.43Z"/><g class="cls-11"><path d="M583.12,202c5.75-.13,11.51-.1,17.25.26,1.16.08,2.68.53,2.63,1.69a1.56,1.56,0,0,1-1.14,1.31,4.74,4.74,0,0,1-1.84.06l-15.33-1.58a61.76,61.76,0,0,0-9.41-.48,60.54,60.54,0,0,0-11.22,2l-.2-1.26S579.87,202.1,583.12,202Z"/></g></g><g id="Character_2" data-name="Character 2"><path class="cls-7" d="M323.5,357.41,341,340.1l-31.24-53.49a30.15,30.15,0,0,0-12-8.34l-11-4.18-27.35-5L240,276.72a11.61,11.61,0,0,0-7.27,12.17l5.08,42.75,3,55.66,70.54-12.23-7.1-20.59.24-32.1Z"/><path class="cls-5" d="M304.93,353.11c.17,0,.21-11.12.1-24.83s-.34-24.83-.51-24.83-.2,11.12-.09,24.83S304.77,353.11,304.93,353.11Z"/><path class="cls-7" d="M302.35,361.27l-42.63-17.16a9.72,9.72,0,0,1-6.07-8.29L250.53,295s.37-17.38-10.49-18.23l-6.18,2.44c-8,4.23-10,15.86-8.87,24.83,1.55,12.75,2.19,30.79,3.92,41.86,1.41,9,6.85,16.21,15.45,19.34l52.5,11.37Z"/><path class="cls-5" d="M251.14,301.18a6.45,6.45,0,0,1,.13.94c.07.67.16,1.56.28,2.69.22,2.4.52,5.77.9,9.91s.79,9.18,1.26,14.71c.12,1.38.24,2.8.36,4.25a32.4,32.4,0,0,0,.54,4.37,7.31,7.31,0,0,0,2.12,3.83,14.62,14.62,0,0,0,3.94,2.45c11.75,5.08,22.58,9.28,30.45,12.23l9.33,3.44,2.54.93a7.05,7.05,0,0,1,.87.36A4.86,4.86,0,0,1,303,361l-2.57-.83c-2.23-.74-5.45-1.85-9.4-3.27-7.91-2.86-18.76-7-30.55-12.09a14.83,14.83,0,0,1-4.09-2.56,7.84,7.84,0,0,1-2.27-4.11,32.11,32.11,0,0,1-.54-4.45c-.12-1.45-.23-2.87-.34-4.26-.43-5.53-.82-10.51-1.14-14.71s-.55-7.53-.72-9.93c-.07-1.13-.13-2-.17-2.7A6.23,6.23,0,0,1,251.14,301.18Z"/><path class="cls-5" d="M226.72,323.4a2.47,2.47,0,0,1,.08.55c0,.43.09.95.14,1.58.13,1.45.3,3.41.51,5.8s.53,5.35,1,8.57a82.18,82.18,0,0,0,1.93,10.35,15.39,15.39,0,0,0,2.08,4.94,29.08,29.08,0,0,0,3.18,3.91,27.47,27.47,0,0,0,6.82,5.12,26,26,0,0,0,7.49,2.45,2.3,2.3,0,0,1-.55,0,12.15,12.15,0,0,1-1.58-.21,20.92,20.92,0,0,1-5.54-1.87,26.71,26.71,0,0,1-7-5.11,28.23,28.23,0,0,1-3.27-4,15.69,15.69,0,0,1-2.17-5.1,77.16,77.16,0,0,1-1.9-10.43c-.39-3.24-.65-6.16-.83-8.61s-.28-4.44-.33-5.82q0-.94,0-1.59A2,2,0,0,1,226.72,323.4Z"/><path class="cls-5" d="M244.94,352a6.55,6.55,0,0,1,.78-2.27,14.65,14.65,0,0,1,8.65-7.39,6.35,6.35,0,0,1,2.36-.41c0,.09-.87.27-2.23.79a16.5,16.5,0,0,0-8.42,7.2C245.35,351.17,245,352,244.94,352Z"/><g class="cls-8"><path d="M290.1,356.4c-4.56-2.58-9-4.55-13.79-6.72s-9.43-4.95-12.55-9.15c-5.88-7.93-5.21-19.37-11.23-27.2q.58,7.91,1.18,15.79c.36,4.82-.38,9.59,2.72,12.87,2.62,2.76,7.72,4.87,11.33,6.06,7.26,2.4,15.08,5.95,22.34,8.35"/></g><g class="cls-8"><polygon points="304.53 306.46 308.22 329.2 304.73 322.76 304.53 306.46"/></g><path class="cls-5" d="M251.27,296.08c-.09,0-.22-1.44-1-3.63a18.31,18.31,0,0,0-12.92-11.61c-2.26-.55-3.73-.53-3.72-.62a3.53,3.53,0,0,1,1,0,16.4,16.4,0,0,1,2.77.35,17.68,17.68,0,0,1,13.15,11.82,15.63,15.63,0,0,1,.65,2.71A4.88,4.88,0,0,1,251.27,296.08Z"/><path class="cls-5" d="M302.05,284.49a69.31,69.31,0,0,1,1.5,7.95,73.09,73.09,0,0,1,1.06,8,72,72,0,0,1-1.5-7.95A73.09,73.09,0,0,1,302.05,284.49Z"/><path class="cls-7" d="M349.56,412.65s32.76,9.07,34.08,9.53c2,.69,1.64,7.92-1.43,7.81-1.45-.05-25.17.88-28.16.7s-12-3.75-12-3.75Z"/><path class="cls-5" d="M363.21,425.15a31,31,0,0,1,1.44-3.52,31.39,31.39,0,0,1,2.32-3,7.28,7.28,0,0,0-3.76,6.53Z"/><path class="cls-5" d="M359.79,423.6c.16,0,.5-1.52,1.37-3.23s1.9-2.91,1.78-3a6.13,6.13,0,0,0-2.27,2.77A6.19,6.19,0,0,0,359.79,423.6Z"/><path class="cls-5" d="M356.59,422.74a21.6,21.6,0,0,1,.77-3.46,20.92,20.92,0,0,1,1.78-3.06,6.16,6.16,0,0,0-2.55,6.52Z"/><path class="cls-5" d="M357.17,418.51a5.77,5.77,0,0,0,.35-2.44,11.47,11.47,0,0,0-.33-2.67,11.13,11.13,0,0,0-.49-1.52,1.72,1.72,0,0,0-.52-.8.88.88,0,0,0-1.13.05,1.43,1.43,0,0,0-.43.93,6.38,6.38,0,0,0-.05.86,6.88,6.88,0,0,0,.21,1.61,9.78,9.78,0,0,0,1,2.5,6.82,6.82,0,0,0,1.48,2c.07-.06-.48-.82-1.13-2.16a10.72,10.72,0,0,1-.86-2.43,7.26,7.26,0,0,1-.16-1.5c0-.5,0-1.13.3-1.37a.33.33,0,0,1,.44,0,1.47,1.47,0,0,1,.36.57,13,13,0,0,1,.49,1.45,13.75,13.75,0,0,1,.44,2.56C357.23,417.57,357.08,418.5,357.17,418.51Z"/><path class="cls-5" d="M357.13,418.18a4.59,4.59,0,0,0-2.11-.34,8.92,8.92,0,0,0-2.33.28,5.77,5.77,0,0,0-1.34.49,1.41,1.41,0,0,0-.74,1.5,1.64,1.64,0,0,0,1.18,1.17,3,3,0,0,0,1.47,0,5.66,5.66,0,0,0,2.13-1,5.92,5.92,0,0,0,1.53-1.5,14.41,14.41,0,0,0-1.75,1.18,5.61,5.61,0,0,1-2,.87,2.6,2.6,0,0,1-1.21,0,1.13,1.13,0,0,1-.8-.78.85.85,0,0,1,.48-.92,4.9,4.9,0,0,1,1.19-.46,11.34,11.34,0,0,1,2.21-.39C356.31,418.13,357.12,418.26,357.13,418.18Z"/><path class="cls-5" d="M368.24,425.5a19.5,19.5,0,0,1,.65-3,18.84,18.84,0,0,1,1.6-2.56,4.71,4.71,0,0,0-2.25,5.52Z"/><path class="cls-5" d="M345.38,427a6.5,6.5,0,0,0,1.27.6,27.91,27.91,0,0,0,3.65,1.13,51.56,51.56,0,0,0,12.5,1.18c4.91-.05,9.34-.27,12.55-.4l3.79-.2a6.55,6.55,0,0,0,1.39-.15,6.6,6.6,0,0,0-1.39-.07l-3.8,0-12.54.25a58.94,58.94,0,0,1-12.42-1C347.25,427.72,345.42,426.91,345.38,427Z"/><path class="cls-5" d="M344.41,427.76c0,.07.95-.45,2.46-1.11a11.42,11.42,0,0,1,6.2-1,9.77,9.77,0,0,1,5.36,3.18,17.48,17.48,0,0,0,1.89,1.93,10.12,10.12,0,0,0-1.61-2.19,12.72,12.72,0,0,0-2.17-2,7.77,7.77,0,0,0-3.39-1.43,10.71,10.71,0,0,0-6.44,1.22A8.67,8.67,0,0,0,344.41,427.76Z"/><path class="cls-7" d="M310.79,405s-31,20.3-32.12,21.14c-1.67,1.26.25,7.27,3.14,6.23,1.37-.49,27.38-7.73,30.18-8.82s10.33-7.23,10.33-7.23Z"/><path class="cls-5" d="M301.58,421.1a5.92,5.92,0,0,0-2.08-3.32A5.77,5.77,0,0,0,296,416a28.28,28.28,0,0,1,3.12,2.17A30.74,30.74,0,0,1,301.58,421.1Z"/><path class="cls-5" d="M304.36,418.59a8.25,8.25,0,0,0-4.9-5c-.08.15,1.28,1,2.62,2.34S304.22,418.66,304.36,418.59Z"/><path class="cls-5" d="M307.15,416.79a6.13,6.13,0,0,0-4.41-5.44,11.54,11.54,0,0,1,4.41,5.44Z"/><path class="cls-5" d="M305.32,412.94c.08,0-.35-.88-.71-2.32a13.71,13.71,0,0,1-.36-2.57,13.19,13.19,0,0,1,0-1.53,1.47,1.47,0,0,1,.17-.65.32.32,0,0,1,.43-.1c.35.14.53.74.7,1.22a7.14,7.14,0,0,1,.31,1.47,11.24,11.24,0,0,1-.08,2.58c-.22,1.48-.51,2.37-.43,2.4a6.6,6.6,0,0,0,.81-2.33,10.13,10.13,0,0,0,.2-2.69,7.16,7.16,0,0,0-.3-1.59,6.64,6.64,0,0,0-.3-.81,1.41,1.41,0,0,0-.7-.75.87.87,0,0,0-1.09.29,1.78,1.78,0,0,0-.25.92,10.68,10.68,0,0,0,0,1.6,11.52,11.52,0,0,0,.49,2.64A5.63,5.63,0,0,0,305.32,412.94Z"/><path class="cls-5" d="M305.25,412.61c0,.08.77-.29,2-.59a11.2,11.2,0,0,1,2.22-.31,4.88,4.88,0,0,1,1.27.08.85.85,0,0,1,.74.73,1.12,1.12,0,0,1-.52,1,2.58,2.58,0,0,1-1.15.39,6,6,0,0,1-2.18-.22,14.69,14.69,0,0,0-2-.6,5.54,5.54,0,0,0,1.9,1,5.91,5.91,0,0,0,2.35.35,3.05,3.05,0,0,0,1.4-.44,1.66,1.66,0,0,0,.77-1.48,1.38,1.38,0,0,0-1.16-1.2,5,5,0,0,0-1.43-.06,9.52,9.52,0,0,0-2.3.43A4.71,4.71,0,0,0,305.25,412.61Z"/><path class="cls-5" d="M285.76,431.28c0,.05.52-.32.76-1.2a4.62,4.62,0,0,0-.58-3.37,13.45,13.45,0,0,0-1-1.55,6.09,6.09,0,0,0-1-1.13,1.85,1.85,0,0,0-1-.41c-.26,0-.4.05-.39.08s.55.05,1.13.63a7.18,7.18,0,0,1,.89,1.13c.32.46.66,1,1,1.51a4.89,4.89,0,0,1,.68,3C286,430.8,285.69,431.22,285.76,431.28Z"/><path class="cls-5" d="M296.89,423a4.68,4.68,0,0,0-3.82-4.57,8.76,8.76,0,0,1,3.82,4.57Z"/><path class="cls-5" d="M319.13,417.46a11.72,11.72,0,0,0-1.36.93,39.81,39.81,0,0,1-3.83,2.35,50.61,50.61,0,0,1-6.07,2.7c-2.35.87-5,1.7-7.76,2.51-5.58,1.6-10.63,3.07-14.27,4.17l-4.31,1.32A8.75,8.75,0,0,0,280,432a10.39,10.39,0,0,0,1.62-.35l4.35-1.16c3.68-1,8.74-2.41,14.32-4,2.79-.8,5.44-1.65,7.79-2.56a46.31,46.31,0,0,0,6.08-2.83,30.44,30.44,0,0,0,3.76-2.51A9.43,9.43,0,0,0,319.13,417.46Z"/><path class="cls-5" d="M320.28,417.88a8.54,8.54,0,0,0-2.63-.7,10.84,10.84,0,0,0-6.51.79,7.77,7.77,0,0,0-2.79,2.4,12.93,12.93,0,0,0-1.46,2.59,10.41,10.41,0,0,0-.86,2.58,19.89,19.89,0,0,0,1.21-2.41,9.86,9.86,0,0,1,4.14-4.67,11.48,11.48,0,0,1,6.22-.9C319.25,417.74,320.26,418,320.28,417.88Z"/><path class="cls-5" d="M375.23,354.28s9.31,3.32,9.34,13.75c.08,20-40.36,42-40.36,42L290.4,374.37,287,373S359.67,345.72,375.23,354.28Z"/><path class="cls-9" d="M317.66,392.38a10.26,10.26,0,0,0,1.4-.95c.88-.64,2.14-1.59,3.68-2.78,3.08-2.38,7.27-5.76,11.78-9.63s8.48-7.51,11.3-10.19c1.41-1.34,2.54-2.44,3.31-3.22a10.75,10.75,0,0,0,1.15-1.24,9.11,9.11,0,0,0-1.3,1.09l-3.42,3.08c-2.89,2.61-6.89,6.2-11.39,10.06s-8.65,7.29-11.67,9.74l-3.57,2.92A10,10,0,0,0,317.66,392.38Z"/><path class="cls-9" d="M360,361.74a10.74,10.74,0,0,0-5.18.48,10.45,10.45,0,0,0-4.61,2.42c.09.14,2.05-1.11,4.76-1.9S360.05,361.91,360,361.74Z"/><path class="cls-9" d="M355.41,358.6a8.21,8.21,0,0,0-4.87,6c.16.05.75-1.62,2.1-3.28S355.49,358.74,355.41,358.6Z"/><path class="cls-5" d="M378.19,421.85c0-.06-.64-.19-1.38.42a5,5,0,0,0-1.56,3.12,6.24,6.24,0,0,0,.49,3.45c.38.81.8,1.2.85,1.16a9.45,9.45,0,0,0-.49-1.31,7.1,7.1,0,0,1-.31-3.22,5.36,5.36,0,0,1,1.28-2.91C377.64,422,378.2,421.94,378.19,421.85Z"/><path class="cls-1" d="M371.39,325.9l-15.31,41.24a6,6,0,0,1-5.65,3.88l-84.27-1.11v-6.4l31.27,1.14,13.28-41.17a3.35,3.35,0,0,1,3.2-2.33l54.36.16A3.36,3.36,0,0,1,371.39,325.9Z"/><path class="cls-5" d="M371.39,325.9l0-.13a3.19,3.19,0,0,0,.07-1.93,3.33,3.33,0,0,0-1.48-2,3.14,3.14,0,0,0-1.53-.48c-.58,0-1.21,0-1.87,0l-22.68,0-15.88,0-8.93,0h-4.69a3.72,3.72,0,0,0-2.25.49,3.28,3.28,0,0,0-1.39,1.83c-4,12.45-8.47,26.3-13.23,41.1l0,.09h-.1l-31.27-1.14.15-.13v6.4l-.14-.14,53,.71,23,.32,5.31.07,2.58,0a6.29,6.29,0,0,0,2.45-.36,5.88,5.88,0,0,0,3.38-3.25c.56-1.5,1.11-3,1.64-4.4l10.11-27.1,2.75-7.34c.63-1.68,1-2.56,1-2.56s-.31.89-.93,2.57-1.53,4.18-2.71,7.37c-2.36,6.4-5.78,15.66-10,27.13-.54,1.43-1.08,2.9-1.64,4.4a6,6,0,0,1-3.49,3.37,6.34,6.34,0,0,1-2.52.38l-2.58,0-5.31-.07-23-.29-53-.69H266v-6.68h.14l31.27,1.14-.13.1,13.27-41.09a3.52,3.52,0,0,1,1.5-1.95,4,4,0,0,1,2.36-.53l4.69,0,8.93,0,15.88.07,22.68.1c.67,0,1.29,0,1.88,0a3.4,3.4,0,0,1,3.05,2.55,3.28,3.28,0,0,1,0,1.57A3.84,3.84,0,0,1,371.39,325.9Z"/><path class="cls-6" d="M334,341.5a3.78,3.78,0,0,1,4.1.44,3.3,3.3,0,0,1,.8,3.62,3.58,3.58,0,0,1-3.08,2.15,3.22,3.22,0,0,1-3.25-2.14c-.39-1.35,0-3.36,1.43-4.07"/><path class="cls-5" d="M353.29,412.27s-76-48.65-79.3-50.55c-2.85-1.63-10.48-6.33-18-4.25s-14.27,8.82-17.64,18.68c-1.93,5.63-2.84,15.24-3.26,22.45a33.29,33.29,0,0,0,7.79,23.74,21.14,21.14,0,0,0,9.48,6.73c.79.25,1.61.46,2.46.65,14.37,3.11,29.14-3.34,37.22-15.63l1.77-2.7s49.74,18.27,50.52,18Z"/><path class="cls-9" d="M277.91,364.41s-.07,0-.19-.11l-.53-.36c-.47-.33-1.15-.8-2.06-1.38a40.1,40.1,0,0,0-8.06-4.1,21.55,21.55,0,0,0-6.08-1.28,17.57,17.57,0,0,0-7,1.14,22.65,22.65,0,0,0-6.72,4.07,31.64,31.64,0,0,0-3,2.93,22,22,0,0,0-2.46,3.51,36.12,36.12,0,0,0-3.28,7.82c-.71,2.65-1.29,5.27-1.83,7.74A70.34,70.34,0,0,0,235,397.72a48,48,0,0,0,.69,9c.17,1.06.35,1.87.47,2.42l.12.63c0,.15,0,.22,0,.22s0-.06-.07-.2-.1-.37-.17-.63c-.14-.54-.36-1.35-.55-2.41a44.61,44.61,0,0,1-.84-9.07,68.55,68.55,0,0,1,1.66-13.4c.54-2.49,1.09-5.09,1.81-7.78a36.57,36.57,0,0,1,3.31-7.93A22.78,22.78,0,0,1,244,365a31.36,31.36,0,0,1,3-3,22.59,22.59,0,0,1,6.85-4.13,17.65,17.65,0,0,1,7.15-1.12,21.51,21.51,0,0,1,6.17,1.35,37.88,37.88,0,0,1,8.05,4.25c.89.61,1.56,1.11,2,1.45l.51.4A.75.75,0,0,1,277.91,364.41Z"/><path class="cls-9" d="M259.22,398.54l.42.19,1.25.49,4.82,1.86,17.91,6.74c7.61,2.84,16.72,6.22,26.95,9.94s21.56,7.8,33.66,11.9l.22.07.11-.21c1.9-3.62,3.91-7.45,5.94-11.34l3-5.78.11-.23-.21-.13-58-36.82-17.42-11-4.73-3-1.24-.75c-.28-.17-.43-.24-.43-.24l.4.28,1.21.8,4.68,3,17.33,11.13,57.9,37-.1-.36-3,5.79-5.93,11.34.33-.13c-12.1-4.09-23.44-8.15-33.68-11.84l-27-9.82-18-6.59-4.86-1.77-1.26-.44Z"/><path class="cls-5" d="M263.16,237.16a38.74,38.74,0,0,1-3.38-8.07,13.16,13.16,0,0,1,.45-8.59c.71-1.56,1.82-2.93,2.37-4.54.77-2.23.46-4.85,1.83-6.76,2.16-3,6.76-2.28,10.09-3.84,2.59-1.22,4.41-3.84,7.13-4.72,2.38-.76,5,0,7.28,1s4.54,2.24,7,2.56a47.74,47.74,0,0,0,5.35,0,7.1,7.1,0,0,1,4.93,1.7c1.25,1.27,1.52,3.61.16,4.76,3.12-.52,6.06,2.59,6,5.75s-2.43,6-5.31,7.27a18.83,18.83,0,0,1-9.31,1.15c-8.93-.69-17.9-4.09-24-10.66"/><path class="cls-15" d="M265.08,226,259,270.2a13.27,13.27,0,0,0,12,15h0A13.27,13.27,0,0,0,285.3,273.8c.46-3.33.84-6.1.91-6.44,0,0,11.41.49,13.75-10.54,1.13-5.33,2.58-16.5,3.76-26.61a21,21,0,0,0-16.75-23L285.9,207C274.27,205.34,266.38,214.31,265.08,226Z"/><path class="cls-17" d="M286.26,267.2a26.24,26.24,0,0,1-13.59-7s1.82,8.63,13.05,9.84Z"/><path class="cls-5" d="M298.76,239.6a1.6,1.6,0,0,1-1.84,1.29,1.54,1.54,0,0,1-1.34-1.75,1.62,1.62,0,0,1,1.84-1.29A1.54,1.54,0,0,1,298.76,239.6Z"/><path class="cls-5" d="M300.26,235.16c-.23.16-1.25-1-2.95-1.3s-3.12.27-3.26,0,.2-.45.82-.73a4.37,4.37,0,0,1,2.66-.27,4.18,4.18,0,0,1,2.3,1.28C300.27,234.68,300.38,235.08,300.26,235.16Z"/><path class="cls-5" d="M282.92,236.87a1.62,1.62,0,0,1-1.84,1.29,1.55,1.55,0,0,1-1.35-1.75,1.61,1.61,0,0,1,1.84-1.29A1.54,1.54,0,0,1,282.92,236.87Z"/><path class="cls-5" d="M283.5,232.14c-.24.16-1.26-1-3-1.3s-3.11.27-3.26,0,.2-.45.83-.73a4.43,4.43,0,0,1,2.66-.28,4.28,4.28,0,0,1,2.3,1.29C283.51,231.66,283.61,232.06,283.5,232.14Z"/><path class="cls-5" d="M287.15,246A11.41,11.41,0,0,1,290,246c.44,0,.87,0,1-.24a2.3,2.3,0,0,0,0-1.35l-.63-3.56c-.84-5.05-1.36-9.18-1.15-9.21s1.05,4,1.89,9.1c.2,1.25.39,2.43.57,3.57a2.62,2.62,0,0,1-.12,1.75,1.1,1.1,0,0,1-.84.49,2.88,2.88,0,0,1-.75,0A11,11,0,0,1,287.15,246Z"/><path class="cls-5" d="M281.91,246.14c.28,0-.08,1.89,1.23,3.51s3.32,1.82,3.29,2.08-.51.27-1.35.12a4.67,4.67,0,0,1-2.76-1.62,4.09,4.09,0,0,1-.91-2.92C281.49,246.52,281.79,246.11,281.91,246.14Z"/><path class="cls-5" d="M285.27,225.57c-.26.42-1.91-.13-4-.29s-3.76.06-3.94-.4c-.08-.23.29-.61,1-.92a6.94,6.94,0,0,1,6,.52C285.09,224.92,285.38,225.36,285.27,225.57Z"/><path class="cls-5" d="M300.62,230.11c-.38.33-1.47-.3-2.87-.6s-2.65-.26-2.84-.72c-.09-.22.18-.57.77-.83a4.11,4.11,0,0,1,2.47-.17,4.06,4.06,0,0,1,2.14,1.24C300.71,229.52,300.79,230,300.62,230.11Z"/><path class="cls-15" d="M264.35,234.35c-.17-.11-7.15-3.76-8.42,3.85s6.63,7.31,6.68,7.09S264.35,234.35,264.35,234.35Z"/><path class="cls-17" d="M260.77,242s-.15.07-.39.14a1.36,1.36,0,0,1-1-.15c-.75-.43-1.21-1.81-1-3.19a4.33,4.33,0,0,1,.69-1.84,1.58,1.58,0,0,1,1.16-.85.68.68,0,0,1,.72.5c.07.23,0,.37,0,.39s.19-.1.18-.42a.89.89,0,0,0-.22-.53,1,1,0,0,0-.7-.32,1.92,1.92,0,0,0-1.58.95,4.48,4.48,0,0,0-.81,2c-.21,1.55.33,3.11,1.38,3.61a1.45,1.45,0,0,0,1.25,0C260.72,242.2,260.79,242,260.77,242Z"/><path class="cls-5" d="M305.91,219.94c-1.3,2.81-8,3.89-12.94,2.41-4.53-1.37-6.18-4.25-9.06-6.76-1.83-1.59-1.83-1.59-4.81-1.9-2.41-.24-4.34,2.15-6.16,3.75,1,6-1.67,12-4.29,17.57a3.07,3.07,0,0,1-1.23,1.57c-1,.51-2.26-.3-2.88-1.27a9.55,9.55,0,0,1-1.07-5.34A31.69,31.69,0,0,1,266,217.73a21.49,21.49,0,0,1,7.95-9.52,20.43,20.43,0,0,1,15.13-2.51,25.15,25.15,0,0,1,13.26,8,14.7,14.7,0,0,1,3.57,6.28"/><path class="cls-5" d="M290.44,238.32c.06,0,0-.65.34-1.76a7.29,7.29,0,0,1,2.7-3.91,7.13,7.13,0,0,1,6.73-1,7,7,0,0,1,3.27,2.47,7,7,0,0,1,0,8.35,7,7,0,0,1-3.27,2.47,7.15,7.15,0,0,1-6.73-1,7.32,7.32,0,0,1-2.7-3.91c-.3-1.11-.28-1.77-.34-1.77a1.32,1.32,0,0,0,0,.48,5.51,5.51,0,0,0,.15,1.35,7.36,7.36,0,0,0,2.66,4.2,7.58,7.58,0,0,0,7.19,1.15,7.5,7.5,0,0,0,3.57-2.65,7.62,7.62,0,0,0,0-9,7.59,7.59,0,0,0-10.76-1.5,7.33,7.33,0,0,0-2.66,4.2,5.51,5.51,0,0,0-.15,1.35A1.24,1.24,0,0,0,290.44,238.32Z"/><path class="cls-5" d="M272.39,235.17c.07,0,.05-.65.35-1.76a7.32,7.32,0,0,1,2.69-3.91,7.15,7.15,0,0,1,6.74-1,7,7,0,0,1,3.27,2.47,7,7,0,0,1,0,8.34,7,7,0,0,1-3.27,2.48,7.17,7.17,0,0,1-6.74-1,7.35,7.35,0,0,1-2.69-3.91c-.3-1.11-.28-1.77-.35-1.77a1.47,1.47,0,0,0,0,.48,5.51,5.51,0,0,0,.15,1.35,7.36,7.36,0,0,0,2.66,4.2,7.57,7.57,0,0,0,7.19,1.15,7.47,7.47,0,0,0,3.56-2.65,7.6,7.6,0,0,0-10.75-10.55,7.33,7.33,0,0,0-2.66,4.2,5.51,5.51,0,0,0-.15,1.35A1.43,1.43,0,0,0,272.39,235.17Z"/><path class="cls-5" d="M287.26,235.43c.07.15,1-.3,2.17,0s1.68,1.25,1.83,1.16,0-.32-.22-.7a2.62,2.62,0,0,0-1.44-1,2.66,2.66,0,0,0-1.77.07C287.41,235.14,287.22,235.36,287.26,235.43Z"/><path class="cls-5" d="M262.17,233.22c0,.17,2.43.28,5.42.24s5.41-.22,5.41-.39-2.43-.27-5.42-.23A24.83,24.83,0,0,0,262.17,233.22Z"/></g></g></svg>